Pliska-SemiBold.ufo
<glyph name="exclam" format="2">
  <advance width="333"/>
  <unicode hex="0021"/>
  <outline>
    <contour>
      <point x="97" y="60.9143" type="curve" smooth="yes"/>
      <point x="97" y="102.667"/>
      <point x="130.739" y="136.667"/>
      <point x="171.5" y="136.667" type="curve" smooth="yes"/>
      <point x="212.928" y="136.667"/>
      <point x="246.333" y="102.333"/>
      <point x="246.333" y="61" type="curve" smooth="yes"/>
      <point x="246.333" y="20.3333"/>
      <point x="213.264" y="-11.6667"/>
      <point x="170.833" y="-11.6667" type="curve" smooth="yes"/>
      <point x="129.069" y="-11.6667"/>
      <point x="97" y="20.3333"/>
    </contour>
    <contour>
      <point x="94.6667" y="596.171" type="curve" smooth="yes"/>
      <point x="94.6667" y="654.954"/>
      <point x="123.361" y="686"/>
      <point x="171.201" y="686" type="curve" smooth="yes"/>
      <point x="217.765" y="686"/>
      <point x="247.333" y="655.94"/>
      <point x="247.333" y="596" type="curve" smooth="yes"/>
      <point x="247.333" y="557.499"/>
      <point x="241.279" y="519.841"/>
      <point x="226.915" y="461.39" type="curve"/>
      <point x="205.086" y="378.894"/>
      <point x="195.574" y="321.921"/>
      <point x="186.852" y="214.667" type="curve"/>
      <point x="155.145" y="214.667" type="line"/>
      <point x="146.407" y="322.027"/>
      <point x="136.193" y="379.988"/>
      <point x="114.231" y="465.943" type="curve" smooth="yes"/>
      <point x="100.706" y="520.934"/>
      <point x="94.6667" y="557.399"/>
    </contour>
  </outline>
</glyph>
<glyph name="quotedbl" format="2">
  <advance width="506"/>
  <unicode hex="0022"/>
  <outline>
    <contour>
      <point x="81" y="625" type="curve" smooth="yes"/>
      <point x="81" y="661.333"/>
      <point x="104.667" y="686"/>
      <point x="138" y="686" type="curve" smooth="yes"/>
      <point x="170.333" y="686"/>
      <point x="195.333" y="660.667"/>
      <point x="195.333" y="628" type="curve" smooth="yes"/>
      <point x="195.333" y="603.667"/>
      <point x="185.667" y="549.667"/>
      <point x="157.667" y="426.333" type="curve"/>
      <point x="128" y="413" type="line"/>
      <point x="123.063" y="427.667"/>
      <point x="115.517" y="440.333"/>
      <point x="113.667" y="445" type="curve"/>
      <point x="94" y="530.333"/>
      <point x="81" y="605.667"/>
    </contour>
    <contour>
      <point x="310.667" y="625" type="curve" smooth="yes"/>
      <point x="310.667" y="661.333"/>
      <point x="334.333" y="686"/>
      <point x="367.667" y="686" type="curve" smooth="yes"/>
      <point x="400" y="686"/>
      <point x="425" y="660.667"/>
      <point x="425" y="628" type="curve" smooth="yes"/>
      <point x="425" y="603.667"/>
      <point x="413.333" y="540.333"/>
      <point x="387.333" y="426.333" type="curve"/>
      <point x="357.667" y="413" type="line"/>
      <point x="352.8" y="427"/>
      <point x="344.502" y="440.333"/>
      <point x="343.333" y="445" type="curve" smooth="yes"/>
      <point x="323.667" y="531"/>
      <point x="310.667" y="605.667"/>
    </contour>
  </outline>
</glyph>
<glyph name="ampersand" format="2">
  <advance width="815"/>
  <unicode hex="0026"/>
  <outline>
    <contour>
      <point x="55.3333" y="157.425" type="curve" smooth="yes"/>
      <point x="55.3333" y="257.141"/>
      <point x="125.237" y="319.663"/>
      <point x="251" y="384.333" type="curve"/>
      <point x="215.333" y="455.333"/>
      <point x="204.667" y="487.333"/>
      <point x="204.667" y="524.747" type="curve" smooth="yes"/>
      <point x="204.667" y="622.667"/>
      <point x="277.333" y="686"/>
      <point x="385.019" y="686" type="curve" smooth="yes"/>
      <point x="479.667" y="686"/>
      <point x="542.333" y="637.333"/>
      <point x="542.333" y="563.241" type="curve" smooth="yes"/>
      <point x="542.333" y="491.354"/>
      <point x="484.466" y="447.513"/>
      <point x="389.333" y="410" type="curve"/>
      <point x="441.26" y="325.027"/>
      <point x="476.073" y="272.64"/>
      <point x="534" y="198.667" type="curve"/>
      <point x="594" y="275"/>
      <point x="615" y="315"/>
      <point x="615" y="357.665" type="curve" smooth="yes"/>
      <point x="615" y="385.333"/>
      <point x="605.667" y="392"/>
      <point x="549.667" y="398.333" type="curve"/>
      <point x="549.667" y="421.333" type="line"/>
      <point x="759" y="421.333" type="line"/>
      <point x="759" y="398.333" type="line"/>
      <point x="713.667" y="393.667"/>
      <point x="699" y="385"/>
      <point x="679" y="352" type="curve" smooth="yes"/>
      <point x="652.333" y="307.333" type="line" smooth="yes"/>
      <point x="624" y="260.667"/>
      <point x="608.333" y="237.667"/>
      <point x="557" y="167.333" type="curve"/>
      <point x="609.667" y="99"/>
      <point x="643.667" y="76"/>
      <point x="685.806" y="76" type="curve" smooth="yes"/>
      <point x="715.667" y="76"/>
      <point x="734.333" y="87.6667"/>
      <point x="756.333" y="119" type="curve"/>
      <point x="774.667" y="107.333" type="line"/>
      <point x="723.191" y="16.2687"/>
      <point x="682.169" y="-15"/>
      <point x="617.516" y="-15" type="curve" smooth="yes"/>
      <point x="561" y="-15"/>
      <point x="520.667" y="8.33333"/>
      <point x="459.667" y="74" type="curve"/>
      <point x="380" y="11.3333"/>
      <point x="316" y="-14.3333"/>
      <point x="244.821" y="-14.3333" type="curve" smooth="yes"/>
      <point x="129.667" y="-14.3333"/>
      <point x="55.3333" y="53.3333"/>
    </contour>
    <contour>
      <point x="178.667" y="236.056" type="curve" smooth="yes"/>
      <point x="178.667" y="158.051"/>
      <point x="245.898" y="53.6667"/>
      <point x="330.062" y="53.6667" type="curve" smooth="yes"/>
      <point x="360.333" y="53.6667"/>
      <point x="390.333" y="67"/>
      <point x="436" y="101.333" type="curve"/>
      <point x="374.933" y="179.88"/>
      <point x="324.477" y="255.951"/>
      <point x="267.333" y="353" type="curve"/>
      <point x="201.667" y="313"/>
      <point x="178.667" y="282"/>
    </contour>
    <contour>
      <point x="309" y="584.848" type="curve" smooth="yes"/>
      <point x="309" y="546.333"/>
      <point x="322.333" y="501.517"/>
      <point x="367.667" y="436.517" type="curve"/>
      <point x="428.957" y="466.378"/>
      <point x="457.333" y="502.768"/>
      <point x="457.333" y="540.627" type="curve" smooth="yes"/>
      <point x="457.333" y="602.667"/>
      <point x="417.333" y="653.333"/>
      <point x="368.286" y="653.333" type="curve" smooth="yes"/>
      <point x="332.667" y="653.333"/>
      <point x="309" y="628"/>
    </contour>
  </outline>
</glyph>
<glyph name="quotesingle" format="2">
  <advance width="245"/>
  <unicode hex="0027"/>
  <outline>
    <contour>
      <point x="66" y="625" type="curve" smooth="yes"/>
      <point x="66" y="661.333"/>
      <point x="89.6667" y="686"/>
      <point x="123" y="686" type="curve" smooth="yes"/>
      <point x="155.333" y="686"/>
      <point x="180.333" y="660.667"/>
      <point x="180.333" y="628" type="curve" smooth="yes"/>
      <point x="180.333" y="603.667"/>
      <point x="170" y="547.667"/>
      <point x="142.667" y="426.333" type="curve"/>
      <point x="113" y="413" type="line"/>
      <point x="108.133" y="427"/>
      <point x="99.8358" y="440.333"/>
      <point x="98.6667" y="445" type="curve" smooth="yes"/>
      <point x="79" y="530.333"/>
      <point x="66" y="605.667"/>
    </contour>
  </outline>
</glyph>
<glyph name="parenright" format="2">
  <advance width="333"/>
  <unicode hex="0029"/>
  <outline>
    <contour>
      <point x="27.6667" y="-147.667" type="line"/>
      <point x="91.6667" y="-101.667"/>
      <point x="118.333" y="-72.3333"/>
      <point x="141" y="-22" type="curve" smooth="yes"/>
      <point x="168.667" y="38.3333"/>
      <point x="182.333" y="133.333"/>
      <point x="182.333" y="260" type="curve" smooth="yes"/>
      <point x="182.333" y="384"/>
      <point x="169.333" y="471.333"/>
      <point x="141.333" y="535" type="curve" smooth="yes"/>
      <point x="118" y="590"/>
      <point x="92.3333" y="618.333"/>
      <point x="27.6667" y="664" type="curve"/>
      <point x="31.6667" y="688" type="line"/>
      <point x="114.333" y="638"/>
      <point x="151.667" y="604"/>
      <point x="196" y="540" type="curve"/>
      <point x="257.333" y="455.333"/>
      <point x="286.333" y="363.667"/>
      <point x="286.333" y="259.667" type="curve" smooth="yes"/>
      <point x="286.333" y="135.333"/>
      <point x="244" y="22.6667"/>
      <point x="163" y="-67.6667" type="curve" smooth="yes"/>
      <point x="125.333" y="-110.333"/>
      <point x="96.6667" y="-133"/>
      <point x="30.6667" y="-171" type="curve"/>
    </contour>
  </outline>
</glyph>
<glyph name="asterisk" format="2">
  <advance width="500"/>
  <unicode hex="002A"/>
  <outline>
    <contour>
      <point x="60.3333" y="496.403" type="curve" smooth="yes"/>
      <point x="60.3333" y="527.333"/>
      <point x="78.6667" y="544.667"/>
      <point x="115.103" y="547.333" type="curve" smooth="yes"/>
      <point x="146.333" y="550.333"/>
      <point x="161.667" y="544"/>
      <point x="189.333" y="529.667" type="curve"/>
      <point x="206" y="503.322"/>
      <point x="210" y="500.037"/>
      <point x="235.333" y="486.333" type="curve"/>
      <point x="229.5" y="490.881"/>
      <point x="219.11" y="497.618"/>
      <point x="206.582" y="500.526" type="curve"/>
      <point x="191.667" y="531.333"/>
      <point x="182.333" y="543.333"/>
      <point x="169.745" y="574.351" type="curve" smooth="yes"/>
      <point x="159" y="600.667"/>
      <point x="161.333" y="612.667"/>
      <point x="168.067" y="621.635" type="curve"/>
      <point x="173" y="642.667"/>
      <point x="191.439" y="654.471"/>
      <point x="218.333" y="646.667" type="curve"/>
      <point x="247.777" y="634.466"/>
      <point x="267.333" y="613.333"/>
      <point x="280" y="583.267" type="curve"/>
      <point x="280.09" y="574.423"/>
      <point x="278.78" y="567.988"/>
      <point x="270" y="553" type="curve"/>
      <point x="255.964" y="538.235"/>
      <point x="253.333" y="543.255"/>
      <point x="249.572" y="529.36" type="curve"/>
      <point x="248.967" y="534.304"/>
      <point x="251.365" y="538.905"/>
      <point x="252" y="542.299" type="curve"/>
      <point x="276.667" y="568.667"/>
      <point x="287.441" y="580.029"/>
      <point x="311" y="605" type="curve"/>
      <point x="331.447" y="625.371"/>
      <point x="344.333" y="625.667"/>
      <point x="356.29" y="618.667" type="curve"/>
      <point x="377" y="615"/>
      <point x="392.487" y="593.616"/>
      <point x="389.752" y="566.225" type="curve" smooth="yes"/>
      <point x="385.41" y="526.908"/>
      <point x="353.24" y="511.241"/>
      <point x="330.667" y="496.333" type="curve"/>
      <point x="302.132" y="496.18"/>
      <point x="294.528" y="491.806"/>
      <point x="272.667" y="477.667" type="curve"/>
      <point x="280" y="481.028"/>
      <point x="290" y="486.662"/>
      <point x="298.333" y="495.667" type="curve"/>
      <point x="330.333" y="493.667"/>
      <point x="346" y="495.333"/>
      <point x="381.689" y="492.667" type="curve" smooth="yes"/>
      <point x="424" y="490"/>
      <point x="441.667" y="475.333"/>
      <point x="441.667" y="447.223" type="curve" smooth="yes"/>
      <point x="441.667" y="418.667"/>
      <point x="423.333" y="400.333"/>
      <point x="389.936" y="398.333" type="curve" smooth="yes"/>
      <point x="359.333" y="396"/>
      <point x="342.835" y="403.333"/>
      <point x="307.696" y="421.848" type="curve"/>
      <point x="291.828" y="445.01"/>
      <point x="286" y="448.59"/>
      <point x="266.667" y="458.333" type="curve"/>
      <point x="274.712" y="452.556"/>
      <point x="284.857" y="445.279"/>
      <point x="297.867" y="442.495" type="curve"/>
      <point x="315" y="410.333"/>
      <point x="322.667" y="396.667"/>
      <point x="335.123" y="364.017" type="curve"/>
      <point x="343.333" y="340"/>
      <point x="340.667" y="329"/>
      <point x="333.667" y="321" type="curve"/>
      <point x="327.667" y="301.667"/>
      <point x="307.333" y="290.333"/>
      <point x="279.667" y="300.667" type="curve" smooth="yes"/>
      <point x="251.333" y="311.667"/>
      <point x="230" y="334"/>
      <point x="222.667" y="360.855" type="curve"/>
      <point x="222.584" y="370.251"/>
      <point x="223.91" y="376.027"/>
      <point x="235.009" y="395.599" type="curve"/>
      <point x="245.047" y="399.486"/>
      <point x="249.22" y="393.535"/>
      <point x="253.594" y="412.53" type="curve"/>
      <point x="254.599" y="407.763"/>
      <point x="252.472" y="405.663"/>
      <point x="252" y="403.391" type="curve"/>
      <point x="226.667" y="378.333"/>
      <point x="214.961" y="366.921"/>
      <point x="190.333" y="340.667" type="curve" smooth="yes"/>
      <point x="170.29" y="320.248"/>
      <point x="156.667" y="319.667"/>
      <point x="143.924" y="326.333" type="curve"/>
      <point x="124" y="330"/>
      <point x="110.667" y="350.333"/>
      <point x="112.566" y="375.571" type="curve"/>
      <point x="116.603" y="409.494"/>
      <point x="138.008" y="436.936"/>
      <point x="180.777" y="447.403" type="curve"/>
      <point x="203.222" y="447.804"/>
      <point x="209.491" y="451.509"/>
      <point x="230.667" y="466.333" type="curve"/>
      <point x="214.403" y="457.195"/>
      <point x="212.244" y="457.237"/>
      <point x="199.667" y="444" type="curve"/>
      <point x="167.333" y="449.667"/>
      <point x="153.667" y="450.667"/>
      <point x="118.151" y="453.333" type="curve" smooth="yes"/>
      <point x="75.6667" y="456"/>
      <point x="60.3333" y="468.333"/>
    </contour>
  </outline>
</glyph>
<glyph name="plus" format="2">
  <advance width="568"/>
  <unicode hex="002B"/>
  <outline>
    <contour>
      <point x="32" y="212.667" type="line"/>
      <point x="32" y="293.333" type="line"/>
      <point x="243.667" y="293.333" type="line"/>
      <point x="243.667" y="506" type="line"/>
      <point x="324.333" y="506" type="line"/>
      <point x="324.333" y="293.333" type="line"/>
      <point x="536" y="293.333" type="line"/>
      <point x="536" y="212.667" type="line"/>
      <point x="324.333" y="212.667" type="line"/>
      <point x="324.333" y="0" type="line"/>
      <point x="243.667" y="0" type="line"/>
      <point x="243.667" y="212.667" type="line"/>
    </contour>
  </outline>
</glyph>
<glyph name="comma" format="2">
  <advance width="240"/>
  <unicode hex="002C"/>
  <outline>
    <contour>
      <point x="36" y="63" type="curve" smooth="yes"/>
      <point x="36" y="107.667"/>
      <point x="66" y="137.333"/>
      <point x="111" y="137.333" type="curve" smooth="yes"/>
      <point x="166" y="137.333"/>
      <point x="205" y="93"/>
      <point x="205" y="26.7116" type="curve" smooth="yes"/>
      <point x="205" y="-47"/>
      <point x="156.667" y="-111.333"/>
      <point x="57" y="-167" type="curve"/>
      <point x="46.6667" y="-146" type="line"/>
      <point x="114.667" y="-99"/>
      <point x="146.667" y="-58.6667"/>
      <point x="146.667" y="-26.6579" type="curve" smooth="yes"/>
      <point x="146.667" y="-11.3333"/>
      <point x="139.333" y="-2.66667"/>
      <point x="128.208" y="-2.66667" type="curve" smooth="yes"/>
      <point x="125.797" y="-2.66667"/>
      <point x="122.764" y="-3.21377"/>
      <point x="119.561" y="-3.84793" type="curve" smooth="yes"/>
      <point x="115.199" y="-4.70947"/>
      <point x="110.127" y="-5.73447"/>
      <point x="102.694" y="-5.77187" type="curve" smooth="yes"/>
      <point x="63.6667" y="-6"/>
      <point x="36" y="21.6667"/>
    </contour>
  </outline>
</glyph>
<glyph name="period" format="2">
  <advance width="250"/>
  <unicode hex="002E"/>
  <outline>
    <contour>
      <point x="50.6667" y="62.3333" type="curve" smooth="yes"/>
      <point x="50.6667" y="102.667"/>
      <point x="84.3333" y="137.333"/>
      <point x="125" y="137.333" type="curve" smooth="yes"/>
      <point x="166.333" y="137.333"/>
      <point x="200.333" y="102.667"/>
      <point x="200.333" y="61" type="curve" smooth="yes"/>
      <point x="200.333" y="20.6667"/>
      <point x="166.333" y="-12.3333"/>
      <point x="124" y="-12.3333" type="curve" smooth="yes"/>
      <point x="83" y="-12.3333"/>
      <point x="50.6667" y="20.6667"/>
    </contour>
  </outline>
</glyph>
<glyph name="slash" format="2">
  <advance width="278"/>
  <unicode hex="002F"/>
  <outline>
    <contour>
      <point x="-19" y="-17.3333" type="line"/>
      <point x="214.667" y="686" type="line"/>
      <point x="297" y="686" type="line"/>
      <point x="63.6667" y="-17.3333" type="line"/>
    </contour>
  </outline>
</glyph>
<glyph name="zero" format="2">
  <advance width="500"/>
  <unicode hex="0030"/>
  <outline>
    <contour>
      <point x="24" y="331.167" type="curve" smooth="yes"/>
      <point x="24" y="539"/>
      <point x="122" y="684"/>
      <point x="250.667" y="684" type="curve" smooth="yes"/>
      <point x="382" y="684"/>
      <point x="476" y="531"/>
      <point x="476" y="331.167" type="curve" smooth="yes"/>
      <point x="476" y="171.333"/>
      <point x="404.667" y="-13.3333"/>
      <point x="250.961" y="-13.3333" type="curve" smooth="yes"/>
      <point x="103.333" y="-13.3333"/>
      <point x="24" y="157.333"/>
    </contour>
    <contour>
      <point x="161.333" y="331.925" type="curve" smooth="yes"/>
      <point x="161.333" y="171.221"/>
      <point x="164.114" y="14"/>
      <point x="250.667" y="14" type="curve" smooth="yes"/>
      <point x="336.097" y="14"/>
      <point x="338.667" y="171.744"/>
      <point x="338.667" y="327.232" type="curve" smooth="yes"/>
      <point x="338.667" y="487.894"/>
      <point x="335.944" y="656.667"/>
      <point x="249.333" y="656.667" type="curve" smooth="yes"/>
      <point x="163.961" y="656.667"/>
      <point x="161.333" y="487.626"/>
    </contour>
  </outline>
</glyph>
<glyph name="two" format="2">
  <advance width="500"/>
  <unicode hex="0032"/>
  <outline>
    <contour>
      <point x="21.3333" y="0" type="line"/>
      <point x="21.3333" y="19.3333" type="line"/>
      <point x="120.254" y="124.692" type="line" smooth="yes"/>
      <point x="258.295" y="272.532"/>
      <point x="312.667" y="366.664"/>
      <point x="312.667" y="444.945" type="curve" smooth="yes"/>
      <point x="312.667" y="523.981"/>
      <point x="257.678" y="582.667"/>
      <point x="187.766" y="582.667" type="curve" smooth="yes"/>
      <point x="132.045" y="582.667"/>
      <point x="84.8769" y="545.639"/>
      <point x="56.6667" y="479.498" type="curve"/>
      <point x="31" y="481.158" type="line"/>
      <point x="68.5606" y="606.314"/>
      <point x="149.841" y="684"/>
      <point x="243.195" y="684" type="curve" smooth="yes"/>
      <point x="352.089" y="684"/>
      <point x="432" y="605.801"/>
      <point x="432" y="503.599" type="curve" smooth="yes"/>
      <point x="432" y="430.544"/>
      <point x="390.671" y="351.299"/>
      <point x="313.333" y="275.11" type="curve" smooth="yes"/>
      <point x="149.333" y="114" type="line"/>
      <point x="329.667" y="114" type="line" smooth="yes"/>
      <point x="412.003" y="114"/>
      <point x="425.945" y="122.446"/>
      <point x="456.667" y="187.916" type="curve"/>
      <point x="477" y="186.256" type="line"/>
      <point x="428.667" y="0" type="line"/>
    </contour>
  </outline>
</glyph>
<glyph name="four" format="2">
  <advance width="500"/>
  <unicode hex="0034"/>
  <outline>
    <contour>
      <point x="16.6667" y="151.667" type="line"/>
      <point x="16.6667" y="248.333" type="line"/>
      <point x="330" y="684" type="line"/>
      <point x="398" y="684" type="line"/>
      <point x="398" y="247" type="line"/>
      <point x="474" y="247" type="line"/>
      <point x="474" y="151.667" type="line"/>
      <point x="398" y="151.667" type="line"/>
      <point x="398" y="0" type="line"/>
      <point x="275.667" y="0" type="line"/>
      <point x="275.667" y="151.667" type="line"/>
    </contour>
    <contour>
      <point x="57.3333" y="247" type="line"/>
      <point x="275.667" y="247" type="line"/>
      <point x="275.667" y="549.333" type="line"/>
    </contour>
  </outline>
</glyph>
<glyph name="less" format="2">
  <advance width="568"/>
  <unicode hex="003C"/>
  <outline>
    <contour>
      <point x="30" y="214" type="line"/>
      <point x="30" y="292" type="line"/>
      <point x="538" y="517.333" type="line"/>
      <point x="538" y="429.333" type="line"/>
      <point x="141.333" y="253" type="line"/>
      <point x="538" y="76.6667" type="line"/>
      <point x="538" y="-11.3333" type="line"/>
    </contour>
  </outline>
</glyph>
<glyph name="question" format="2">
  <advance width="481"/>
  <unicode hex="003F"/>
  <outline>
    <contour>
      <point x="60.6667" y="540.333" type="curve" smooth="yes"/>
      <point x="60.6667" y="624"/>
      <point x="136" y="684.667"/>
      <point x="240" y="684.667" type="curve" smooth="yes"/>
      <point x="352.333" y="684.667"/>
      <point x="434.667" y="621.333"/>
      <point x="434.667" y="522.333" type="curve" smooth="yes"/>
      <point x="434.667" y="451"/>
      <point x="398.333" y="404"/>
      <point x="319" y="344" type="curve" smooth="yes"/>
      <point x="264.667" y="302.333"/>
      <point x="253.667" y="279.667"/>
      <point x="250" y="208.667" type="curve"/>
      <point x="224.333" y="208.667" type="line"/>
      <point x="223.333" y="243.333"/>
      <point x="226" y="263.333"/>
      <point x="233" y="286.667" type="curve"/>
      <point x="234.266" y="308.228"/>
      <point x="245.32" y="336.637"/>
      <point x="263.667" y="372.667" type="curve" smooth="yes"/>
      <point x="293.667" y="432.333"/>
      <point x="304.667" y="474"/>
      <point x="304.667" y="524" type="curve" smooth="yes"/>
      <point x="304.667" y="601"/>
      <point x="268" y="650.667"/>
      <point x="212.667" y="650.667" type="curve" smooth="yes"/>
      <point x="172.333" y="650.667"/>
      <point x="140.333" y="630"/>
      <point x="140.333" y="603.333" type="curve" smooth="yes"/>
      <point x="140.333" y="594"/>
      <point x="144" y="587"/>
      <point x="156" y="573.667" type="curve" smooth="yes"/>
      <point x="172.333" y="555.333"/>
      <point x="177.667" y="543.333"/>
      <point x="177.667" y="525.333" type="curve" smooth="yes"/>
      <point x="177.667" y="492"/>
      <point x="155.333" y="469"/>
      <point x="122" y="469" type="curve" smooth="yes"/>
      <point x="85.6667" y="469"/>
      <point x="60.6667" y="497.667"/>
    </contour>
    <contour>
      <point x="164" y="62.3333" type="curve" smooth="yes"/>
      <point x="164" y="103"/>
      <point x="197.667" y="137"/>
      <point x="238.333" y="137" type="curve" smooth="yes"/>
      <point x="278.667" y="137"/>
      <point x="312.333" y="102.667"/>
      <point x="312.333" y="62" type="curve" smooth="yes"/>
      <point x="312.333" y="20.6667"/>
      <point x="280" y="-11.3333"/>
      <point x="238" y="-11.3333" type="curve" smooth="yes"/>
      <point x="196" y="-11.3333"/>
      <point x="164" y="20.6667"/>
    </contour>
  </outline>
</glyph>
<glyph name="at" format="2">
  <advance width="927"/>
  <unicode hex="0040"/>
  <outline>
    <contour>
      <point x="110.667" y="330.733" type="curve" smooth="yes"/>
      <point x="110.667" y="527.603"/>
      <point x="276" y="686"/>
      <point x="483.667" y="686" type="curve" smooth="yes"/>
      <point x="672" y="686"/>
      <point x="817.667" y="555.805"/>
      <point x="817.667" y="387.143" type="curve" smooth="yes"/>
      <point x="817.667" y="257.869"/>
      <point x="731.333" y="143"/>
      <point x="631.955" y="143" type="curve" smooth="yes"/>
      <point x="581" y="143"/>
      <point x="544" y="172.667"/>
      <point x="537.333" y="219.663" type="curve"/>
      <point x="502.667" y="171.667"/>
      <point x="455" y="144"/>
      <point x="414.396" y="144" type="curve" smooth="yes"/>
      <point x="360" y="144"/>
      <point x="319.667" y="196.279"/>
      <point x="319.667" y="268.335" type="curve" smooth="yes"/>
      <point x="319.667" y="367.529"/>
      <point x="396.108" y="515.333"/>
      <point x="516.795" y="515.333" type="curve" smooth="yes"/>
      <point x="558.493" y="515.333"/>
      <point x="583.949" y="497.673"/>
      <point x="593" y="462.071" type="curve"/>
      <point x="603.667" y="501.778" type="line"/>
      <point x="674" y="501.778" type="line"/>
      <point x="608.333" y="246.007" type="line" smooth="yes"/>
      <point x="607.123" y="241.291"/>
      <point x="606.333" y="233.92"/>
      <point x="606.333" y="226.47" type="curve" smooth="yes"/>
      <point x="606.333" y="197.588"/>
      <point x="619.333" y="178.667"/>
      <point x="646.655" y="178.667" type="curve" smooth="yes"/>
      <point x="710.667" y="178.667"/>
      <point x="773" y="278.615"/>
      <point x="773" y="379.398" type="curve" smooth="yes"/>
      <point x="773" y="526.599"/>
      <point x="641" y="649"/>
      <point x="484.667" y="649" type="curve" smooth="yes"/>
      <point x="314.47" y="649"/>
      <point x="200" y="506.496"/>
      <point x="200" y="332.078" type="curve" smooth="yes"/>
      <point x="200" y="150.333"/>
      <point x="323.333" y="26.3333"/>
      <point x="506.064" y="26.3333" type="curve" smooth="yes"/>
      <point x="563.667" y="26.3333"/>
      <point x="614" y="38.6667"/>
      <point x="694.667" y="75" type="curve"/>
      <point x="707.333" y="41.6667" type="line"/>
      <point x="610.333" y="-3.66667"/>
      <point x="558.333" y="-17.3333"/>
      <point x="492.788" y="-17.3333" type="curve" smooth="yes"/>
      <point x="274.667" y="-17.3333"/>
      <point x="110.667" y="134"/>
    </contour>
    <contour>
      <point x="394.667" y="272.067" type="curve" smooth="yes"/>
      <point x="394.667" y="225.261"/>
      <point x="417.667" y="190"/>
      <point x="454.404" y="190" type="curve" smooth="yes"/>
      <point x="531.55" y="190"/>
      <point x="574.288" y="345.352"/>
      <point x="575.333" y="404.107" type="curve" smooth="yes"/>
      <point x="575.451" y="410.536" type="line" smooth="yes"/>
      <point x="576.061" y="445.073"/>
      <point x="557.223" y="468.764"/>
      <point x="524.446" y="468.757" type="curve" smooth="yes"/>
      <point x="449.207" y="468.741"/>
      <point x="394.667" y="344.144"/>
    </contour>
  </outline>
</glyph>
<glyph name="A" format="2">
  <advance width="722"/>
  <unicode hex="0041"/>
  <outline>
    <contour>
      <point x="11" y="0" type="line"/>
      <point x="11" y="23" type="line"/>
      <point x="59" y="29.6667"/>
      <point x="71.6667" y="44.6667"/>
      <point x="117.667" y="155.667" type="curve" smooth="yes"/>
      <point x="335" y="684.667" type="line"/>
      <point x="360.333" y="684.667" type="line"/>
      <point x="592" y="144.667" type="line" smooth="yes"/>
      <point x="637.076" y="39.248"/>
      <point x="650.047" y="24"/>
      <point x="694.667" y="23" type="curve"/>
      <point x="694.667" y="0" type="line"/>
      <point x="393.667" y="0" type="line"/>
      <point x="393.667" y="23" type="line"/>
      <point x="444.696" y="23.3333"/>
      <point x="466.553" y="41.1435"/>
      <point x="466.553" y="71.6667" type="curve" smooth="yes"/>
      <point x="466.553" y="83.8516"/>
      <point x="462.437" y="100.845"/>
      <point x="454.836" y="118.667" type="curve" smooth="yes"/>
      <point x="419.667" y="203.333" type="line"/>
      <point x="182.333" y="203.333" type="line"/>
      <point x="157" y="138.333" type="line" smooth="yes"/>
      <point x="141.333" y="98"/>
      <point x="135" y="76.6667"/>
      <point x="135" y="64" type="curve" smooth="yes"/>
      <point x="135" y="37.3333"/>
      <point x="157" y="25.6667"/>
      <point x="212.333" y="23" type="curve"/>
      <point x="212.333" y="0" type="line"/>
    </contour>
    <contour>
      <point x="198" y="243" type="line"/>
      <point x="405" y="243" type="line"/>
      <point x="299" y="496.667" type="line"/>
    </contour>
  </outline>
</glyph>
<glyph name="B" format="2">
  <advance width="652"/>
  <unicode hex="0042"/>
  <outline>
    <contour>
      <point x="14.6667" y="0" type="line"/>
      <point x="14.6667" y="23" type="line"/>
      <point x="88.6667" y="28.3333"/>
      <point x="105.333" y="40.6667"/>
      <point x="105.333" y="100.333" type="curve" smooth="yes"/>
      <point x="105.333" y="571" type="line" smooth="yes"/>
      <point x="105.333" y="631"/>
      <point x="86" y="644.667"/>
      <point x="14.6667" y="648.333" type="curve"/>
      <point x="14.6667" y="671.333" type="line"/>
      <point x="314" y="671.333" type="line" smooth="yes"/>
      <point x="463" y="671.333"/>
      <point x="574.667" y="624.667"/>
      <point x="574.667" y="508.333" type="curve" smooth="yes"/>
      <point x="574.667" y="428.482"/>
      <point x="528.477" y="389.662"/>
      <point x="424.333" y="361" type="curve"/>
      <point x="424.333" y="357.667" type="line"/>
      <point x="524.805" y="336.473"/>
      <point x="608.667" y="289.613"/>
      <point x="608.667" y="184" type="curve" smooth="yes"/>
      <point x="608.667" y="65"/>
      <point x="490.333" y="0"/>
      <point x="340.667" y="0" type="curve" smooth="yes"/>
    </contour>
    <contour>
      <point x="246.333" y="88" type="line" smooth="yes"/>
      <point x="246.333" y="47.0378"/>
      <point x="270.249" y="33.6667"/>
      <point x="312" y="33.6667" type="curve" smooth="yes"/>
      <point x="398.986" y="33.6667"/>
      <point x="456" y="77"/>
      <point x="456" y="179.333" type="curve" smooth="yes"/>
      <point x="456" y="301"/>
      <point x="372" y="337.333"/>
      <point x="268" y="337.333" type="curve" smooth="yes"/>
      <point x="246.333" y="337.333" type="line"/>
    </contour>
    <contour>
      <point x="246.333" y="370.333" type="line"/>
      <point x="253.333" y="370.333" type="line" smooth="yes"/>
      <point x="367.797" y="370.333"/>
      <point x="430.667" y="395.543"/>
      <point x="430.667" y="501.667" type="curve" smooth="yes"/>
      <point x="430.667" y="599.667"/>
      <point x="381.667" y="639"/>
      <point x="304.333" y="639" type="curve" smooth="yes"/>
      <point x="265.307" y="639"/>
      <point x="246.333" y="626.907"/>
      <point x="246.333" y="589.667" type="curve" smooth="yes"/>
    </contour>
  </outline>
</glyph>
<glyph name="D" format="2">
  <advance width="722"/>
  <unicode hex="0044"/>
  <outline>
    <contour>
      <point x="16" y="0" type="line"/>
      <point x="16" y="23" type="line"/>
      <point x="78.6667" y="24.3333"/>
      <point x="100.667" y="44"/>
      <point x="100.667" y="97" type="curve" smooth="yes"/>
      <point x="100.667" y="573.667" type="line" smooth="yes"/>
      <point x="100.667" y="629"/>
      <point x="83.3333" y="643"/>
      <point x="16" y="648.333" type="curve"/>
      <point x="16" y="671.333" type="line"/>
      <point x="309.333" y="671.333" type="line" smooth="yes"/>
      <point x="536" y="671.333"/>
      <point x="689.667" y="557.333"/>
      <point x="689.667" y="342.067" type="curve" smooth="yes"/>
      <point x="689.667" y="127"/>
      <point x="534.667" y="0"/>
      <point x="321.333" y="0" type="curve" smooth="yes"/>
    </contour>
    <contour>
      <point x="242" y="88" type="line" smooth="yes"/>
      <point x="242" y="44.6667"/>
      <point x="258.333" y="35.6667"/>
      <point x="299.333" y="35.6667" type="curve" smooth="yes"/>
      <point x="474.533" y="35.6667"/>
      <point x="536.667" y="169.603"/>
      <point x="536.667" y="327.175" type="curve" smooth="yes"/>
      <point x="536.667" y="482.717"/>
      <point x="469.645" y="636.333"/>
      <point x="297" y="636.333" type="curve" smooth="yes"/>
      <point x="260" y="636.333"/>
      <point x="242" y="626.333"/>
      <point x="242" y="600" type="curve" smooth="yes"/>
    </contour>
  </outline>
</glyph>
<glyph name="J" format="2">
  <advance width="450"/>
  <unicode hex="004A"/>
  <outline>
    <contour>
      <point x="8" y="38.6996" type="curve" smooth="yes"/>
      <point x="8" y="79.7976"/>
      <point x="36.1738" y="108"/>
      <point x="75.4345" y="108" type="curve" smooth="yes"/>
      <point x="105.667" y="108"/>
      <point x="138.333" y="87.1335"/>
      <point x="138.333" y="46.6782" type="curve" smooth="yes"/>
      <point x="138.333" y="23.9346"/>
      <point x="126.76" y="11.672"/>
      <point x="123.819" y="8.48195" type="curve" smooth="yes"/>
      <point x="115.071" y="-0.914185"/>
      <point x="111.319" y="-6.27525"/>
      <point x="111.325" y="-12.3302" type="curve" smooth="yes"/>
      <point x="111.332" y="-25.2379"/>
      <point x="123.715" y="-34"/>
      <point x="144.778" y="-34" type="curve" smooth="yes"/>
      <point x="181.333" y="-34"/>
      <point x="198" y="-10.3333"/>
      <point x="198" y="46" type="curve" smooth="yes"/>
      <point x="198" y="571" type="line" smooth="yes"/>
      <point x="198" y="631.333"/>
      <point x="181" y="644.333"/>
      <point x="99.6667" y="648.333" type="curve"/>
      <point x="99.6667" y="671.333" type="line"/>
      <point x="430" y="671.333" type="line"/>
      <point x="430" y="648.333" type="line"/>
      <point x="353" y="643"/>
      <point x="340" y="629.333"/>
      <point x="340" y="557" type="curve" smooth="yes"/>
      <point x="340" y="143" type="line" smooth="yes"/>
      <point x="340" y="6"/>
      <point x="277" y="-68.6667"/>
      <point x="156.26" y="-68.6667" type="curve" smooth="yes"/>
      <point x="75.4918" y="-68.6667"/>
      <point x="8" y="-35.3758"/>
    </contour>
  </outline>
</glyph>
<glyph name="K" format="2">
  <advance width="743"/>
  <unicode hex="004B"/>
  <outline>
    <contour>
      <point x="14.6667" y="0" type="line"/>
      <point x="14.6667" y="23" type="line"/>
      <point x="89" y="30"/>
      <point x="102.667" y="42.3333"/>
      <point x="102.667" y="104" type="curve" smooth="yes"/>
      <point x="102.667" y="571" type="line" smooth="yes"/>
      <point x="102.667" y="629.333"/>
      <point x="86.6667" y="643.667"/>
      <point x="14.6667" y="648.333" type="curve"/>
      <point x="14.6667" y="671.333" type="line"/>
      <point x="334.667" y="671.333" type="line"/>
      <point x="334.667" y="648.333" type="line"/>
      <point x="258.333" y="643"/>
      <point x="244.667" y="628.667"/>
      <point x="244.667" y="557" type="curve" smooth="yes"/>
      <point x="244.667" y="346" type="line"/>
      <point x="448.333" y="545" type="line" smooth="yes"/>
      <point x="487.333" y="582.667"/>
      <point x="498.333" y="598"/>
      <point x="498.333" y="616" type="curve" smooth="yes"/>
      <point x="498.333" y="636"/>
      <point x="485.726" y="648.333"/>
      <point x="451.667" y="648.333" type="curve" smooth="yes"/>
      <point x="419" y="648.333" type="line"/>
      <point x="419" y="671.333" type="line"/>
      <point x="699" y="671.333" type="line"/>
      <point x="699" y="648.333" type="line"/>
      <point x="620.462" y="642.059"/>
      <point x="589.281" y="626.657"/>
      <point x="480.208" y="517.775" type="curve" smooth="yes"/>
      <point x="371" y="408.333" type="line"/>
      <point x="652" y="73" type="line"/>
      <point x="690.643" y="30.3681"/>
      <point x="703" y="24.3333"/>
      <point x="737" y="23" type="curve"/>
      <point x="737" y="0" type="line"/>
      <point x="411.333" y="0" type="line"/>
      <point x="411.333" y="23" type="line"/>
      <point x="442" y="23" type="line" smooth="yes"/>
      <point x="473.38" y="23"/>
      <point x="487.333" y="31.3333"/>
      <point x="487.333" y="44.6667" type="curve" smooth="yes"/>
      <point x="487.333" y="60"/>
      <point x="466" y="89.6667"/>
      <point x="428" y="130.667" type="curve"/>
      <point x="271.333" y="317" type="line"/>
      <point x="244.667" y="293.333" type="line"/>
      <point x="244.667" y="100.333" type="line" smooth="yes"/>
      <point x="244.667" y="43.3333"/>
      <point x="259.333" y="30.6667"/>
      <point x="333.333" y="23" type="curve"/>
      <point x="333.333" y="0" type="line"/>
    </contour>
  </outline>
</glyph>
<glyph name="L" format="2">
  <advance width="646"/>
  <unicode hex="004C"/>
  <outline>
    <contour>
      <point x="14.6667" y="0" type="line"/>
      <point x="14.6667" y="23" type="line"/>
      <point x="87.6667" y="30.6667"/>
      <point x="101" y="43"/>
      <point x="101" y="100.333" type="curve" smooth="yes"/>
      <point x="101" y="571" type="line" smooth="yes"/>
      <point x="101" y="628.333"/>
      <point x="84.6667" y="643.667"/>
      <point x="14.6667" y="648.333" type="curve"/>
      <point x="14.6667" y="671.333" type="line"/>
      <point x="341.333" y="671.333" type="line"/>
      <point x="341.333" y="648.333" type="line"/>
      <point x="257" y="644"/>
      <point x="243" y="630.667"/>
      <point x="243" y="557" type="curve" smooth="yes"/>
      <point x="243" y="84.6667" type="line" smooth="yes"/>
      <point x="243" y="44.3333"/>
      <point x="259.333" y="33.6667"/>
      <point x="324.333" y="33.6667" type="curve" smooth="yes"/>
      <point x="358.928" y="33.6667" type="line" smooth="yes"/>
      <point x="485.816" y="33.6667"/>
      <point x="535.059" y="69.6667"/>
      <point x="595" y="209.333" type="curve"/>
      <point x="622.667" y="209.333" type="line"/>
      <point x="579.333" y="0" type="line"/>
    </contour>
  </outline>
</glyph>
<glyph name="O" format="2">
  <advance width="759"/>
  <unicode hex="004F"/>
  <outline>
    <contour>
      <point x="34.6667" y="333.333" type="curve" smooth="yes"/>
      <point x="34.6667" y="536.667"/>
      <point x="176.667" y="686"/>
      <point x="382.333" y="686" type="curve" smooth="yes"/>
      <point x="582.667" y="686"/>
      <point x="724.667" y="534.667"/>
      <point x="724.667" y="334" type="curve" smooth="yes"/>
      <point x="724.667" y="131.333"/>
      <point x="584" y="-17.3333"/>
      <point x="379.667" y="-17.3333" type="curve" smooth="yes"/>
      <point x="175.333" y="-17.3333"/>
      <point x="34.6667" y="130.667"/>
    </contour>
    <contour>
      <point x="190.667" y="327.667" type="curve" smooth="yes"/>
      <point x="190.667" y="147.667"/>
      <point x="247.667" y="16.6667"/>
      <point x="379.667" y="16.6667" type="curve" smooth="yes"/>
      <point x="511.667" y="16.6667"/>
      <point x="568.667" y="147.667"/>
      <point x="568.667" y="329.667" type="curve" smooth="yes"/>
      <point x="568.667" y="513"/>
      <point x="509.667" y="652"/>
      <point x="381.667" y="652" type="curve" smooth="yes"/>
      <point x="249" y="652"/>
      <point x="190.667" y="516.333"/>
    </contour>
  </outline>
</glyph>
<glyph name="Q" format="2">
  <advance width="759"/>
  <unicode hex="0051"/>
  <outline>
    <component base="O"/>
    <contour>
      <point x="263.661" y="9.75779" type="curve"/>
      <point x="458.876" y="9.96721" type="line"/>
      <point x="507.099" y="-70.4089"/>
      <point x="562.104" y="-137.015"/>
      <point x="662.824" y="-137.022" type="curve" smooth="yes"/>
      <point x="681.783" y="-137.022"/>
      <point x="695.915" y="-134.599"/>
      <point x="720.333" y="-127.667" type="curve"/>
      <point x="724.333" y="-149.667" type="line"/>
      <point x="670.477" y="-169.595"/>
      <point x="631.667" y="-176.667"/>
      <point x="591.934" y="-176.667" type="curve" smooth="yes"/>
      <point x="430.128" y="-176.667"/>
      <point x="330.136" y="-121.636"/>
    </contour>
  </outline>
</glyph>
<glyph name="R" format="2">
  <advance width="695"/>
  <unicode hex="0052"/>
  <outline>
    <contour>
      <point x="14.6667" y="0" type="line"/>
      <point x="14.6667" y="23" type="line"/>
      <point x="91.6667" y="31"/>
      <point x="101.667" y="41.6667"/>
      <point x="101.667" y="118" type="curve" smooth="yes"/>
      <point x="101.667" y="557" type="line" smooth="yes"/>
      <point x="101.667" y="628.667"/>
      <point x="89" y="642.333"/>
      <point x="14.6667" y="648.333" type="curve"/>
      <point x="14.6667" y="671.333" type="line"/>
      <point x="321.333" y="671.333" type="line" smooth="yes"/>
      <point x="474.397" y="671.333"/>
      <point x="594" y="621.504"/>
      <point x="594" y="494" type="curve" smooth="yes"/>
      <point x="594" y="393.826"/>
      <point x="520.045" y="345.123"/>
      <point x="429" y="325.667" type="curve"/>
      <point x="631.667" y="51.3333" type="line"/>
      <point x="648" y="31.3333"/>
      <point x="663.333" y="24"/>
      <point x="688" y="23" type="curve"/>
      <point x="688" y="0" type="line"/>
      <point x="497.667" y="0" type="line"/>
      <point x="280.333" y="311.333" type="line"/>
      <point x="243.667" y="310.667" type="line"/>
      <point x="243.667" y="114.333" type="line" smooth="yes"/>
      <point x="243.667" y="43"/>
      <point x="254.667" y="31.3333"/>
      <point x="332.333" y="23" type="curve"/>
      <point x="332.333" y="0" type="line"/>
    </contour>
    <contour>
      <point x="243.667" y="344.333" type="line"/>
      <point x="268.303" y="344.46" type="line" smooth="yes"/>
      <point x="381.657" y="344.474"/>
      <point x="443.667" y="400.537"/>
      <point x="443.667" y="492" type="curve" smooth="yes"/>
      <point x="443.667" y="593.333"/>
      <point x="399.667" y="636.333"/>
      <point x="296.667" y="636.333" type="curve" smooth="yes"/>
      <point x="262.492" y="636.333"/>
      <point x="243.667" y="628.968"/>
      <point x="243.667" y="596.333" type="curve" smooth="yes"/>
    </contour>
  </outline>
</glyph>
<glyph name="S" format="2">
  <advance width="556"/>
  <unicode hex="0053"/>
  <outline>
    <contour>
      <point x="37.3333" y="-17" type="line"/>
      <point x="37.3333" y="218.333" type="line"/>
      <point x="64.3333" y="218.333" type="line"/>
      <point x="93.93" y="116.582"/>
      <point x="146.515" y="16.6667"/>
      <point x="263.648" y="16.6667" type="curve" smooth="yes"/>
      <point x="341.667" y="16.6667"/>
      <point x="392.667" y="61"/>
      <point x="392.667" y="131.848" type="curve" smooth="yes"/>
      <point x="392.667" y="189.65"/>
      <point x="356.408" y="220.741"/>
      <point x="274.909" y="261.945" type="curve" smooth="yes"/>
      <point x="223.625" y="287.068" type="line" smooth="yes"/>
      <point x="116.607" y="340.845"/>
      <point x="53" y="401.003"/>
      <point x="53" y="499.409" type="curve" smooth="yes"/>
      <point x="53" y="613"/>
      <point x="135" y="686"/>
      <point x="255.904" y="686" type="curve" smooth="yes"/>
      <point x="310.775" y="686"/>
      <point x="343.56" y="675.034"/>
      <point x="369.23" y="664.981" type="curve" smooth="yes"/>
      <point x="388.331" y="657.549"/>
      <point x="403.776" y="652.667"/>
      <point x="417.553" y="652.667" type="curve" smooth="yes"/>
      <point x="437" y="652.667"/>
      <point x="447" y="663"/>
      <point x="452" y="686.667" type="curve"/>
      <point x="479" y="686.667" type="line"/>
      <point x="479" y="471" type="line"/>
      <point x="452" y="471" type="line"/>
      <point x="426.91" y="562.291"/>
      <point x="364.816" y="651.667"/>
      <point x="263.104" y="651.667" type="curve" smooth="yes"/>
      <point x="197.667" y="651.667"/>
      <point x="154.333" y="614.667"/>
      <point x="154.333" y="553.153" type="curve" smooth="yes"/>
      <point x="154.333" y="498.753"/>
      <point x="192.749" y="468.225"/>
      <point x="272.309" y="426.64" type="curve"/>
      <point x="375.509" y="374.932" type="line"/>
      <point x="446.39" y="337.015"/>
      <point x="505.667" y="268.307"/>
      <point x="505.667" y="179.513" type="curve" smooth="yes"/>
      <point x="505.667" y="61.3333"/>
      <point x="404.333" y="-17"/>
      <point x="271.688" y="-17" type="curve" smooth="yes"/>
      <point x="221.084" y="-17"/>
      <point x="185.707" y="-8.64029"/>
      <point x="141.041" y="6.35027" type="curve" smooth="yes"/>
      <point x="121.584" y="12.9126"/>
      <point x="108.183" y="17"/>
      <point x="96.3412" y="17" type="curve" smooth="yes"/>
      <point x="75.9103" y="17"/>
      <point x="68" y="6.30165"/>
      <point x="64" y="-17" type="curve"/>
    </contour>
  </outline>
</glyph>
<glyph name="T" format="2">
  <advance width="648"/>
  <unicode hex="0054"/>
  <outline>
    <contour>
      <point x="26.3333" y="480.667" type="line"/>
      <point x="26.3333" y="671.333" type="line"/>
      <point x="621.667" y="671.333" type="line"/>
      <point x="621.667" y="480.667" type="line"/>
      <point x="594.333" y="480.667" type="line"/>
      <point x="575.333" y="596.667"/>
      <point x="546.652" y="636.887"/>
      <point x="426.667" y="636" type="curve" smooth="yes"/>
      <point x="395.333" y="635.856" type="line"/>
      <point x="395.333" y="114.333" type="line" smooth="yes"/>
      <point x="395.333" y="39.3333"/>
      <point x="407.333" y="28.3333"/>
      <point x="492.667" y="23" type="curve"/>
      <point x="492.667" y="0" type="line"/>
      <point x="157.333" y="0" type="line"/>
      <point x="157.333" y="23" type="line"/>
      <point x="242.333" y="29.3333"/>
      <point x="253.333" y="40.3333"/>
      <point x="253.333" y="118" type="curve" smooth="yes"/>
      <point x="253.333" y="635.856" type="line"/>
      <point x="222" y="636" type="line" smooth="yes"/>
      <point x="102.014" y="636.89"/>
      <point x="73" y="596.333"/>
      <point x="53.6667" y="480.667" type="curve"/>
    </contour>
  </outline>
</glyph>
<glyph name="V" format="2">
  <advance width="722"/>
  <unicode hex="0056"/>
  <outline>
    <contour>
      <point x="16" y="648.333" type="curve"/>
      <point x="16" y="671.333" type="line"/>
      <point x="328.667" y="671.333" type="line"/>
      <point x="328.667" y="648.333" type="line"/>
      <point x="314" y="647.333"/>
      <point x="301.667" y="646.333"/>
      <point x="297" y="646.333" type="curve"/>
      <point x="261" y="644.333"/>
      <point x="246.333" y="633.667"/>
      <point x="246.333" y="612" type="curve" smooth="yes"/>
      <point x="246.333" y="597"/>
      <point x="251.667" y="581.333"/>
      <point x="275.333" y="527" type="curve" smooth="yes"/>
      <point x="417.667" y="191.667" type="line"/>
      <point x="551.333" y="533.333" type="line" smooth="yes"/>
      <point x="566.667" y="572"/>
      <point x="571" y="589"/>
      <point x="571" y="605" type="curve" smooth="yes"/>
      <point x="571" y="635.667"/>
      <point x="555" y="644"/>
      <point x="489.333" y="648.333" type="curve"/>
      <point x="489.333" y="671.333" type="line"/>
      <point x="699.667" y="671.333" type="line"/>
      <point x="699.667" y="648.333" type="line"/>
      <point x="649" y="642.667"/>
      <point x="635.667" y="630.667"/>
      <point x="609" y="562.667" type="curve" smooth="yes"/>
      <point x="383" y="-15.6667" type="line"/>
      <point x="360" y="-15.6667" type="line"/>
      <point x="107.333" y="566.667" type="line"/>
      <point x="77.3333" y="633.333"/>
      <point x="65.6667" y="643"/>
    </contour>
  </outline>
</glyph>
<glyph name="W" format="2">
  <advance width="981"/>
  <unicode hex="0057"/>
  <outline>
    <contour>
      <point x="14.3333" y="648.333" type="curve"/>
      <point x="14.3333" y="671.333" type="line"/>
      <point x="292" y="671.333" type="line"/>
      <point x="292" y="648.333" type="line"/>
      <point x="249.333" y="645.333"/>
      <point x="227.594" y="636.015"/>
      <point x="227.67" y="609.968" type="curve" smooth="yes"/>
      <point x="227.698" y="599.626"/>
      <point x="231" y="587.667"/>
      <point x="236" y="572.333" type="curve" smooth="yes"/>
      <point x="364" y="204.333" type="line"/>
      <point x="478.333" y="503.667" type="line"/>
      <point x="444" y="595" type="line" smooth="yes"/>
      <point x="429.971" y="631.202"/>
      <point x="410.165" y="645.931"/>
      <point x="362.333" y="648.333" type="curve"/>
      <point x="362.333" y="671.333" type="line"/>
      <point x="659.333" y="671.333" type="line"/>
      <point x="659.333" y="648.333" type="line"/>
      <point x="616.89" y="645.546"/>
      <point x="585.667" y="637.664"/>
      <point x="585.667" y="611.189" type="curve" smooth="yes"/>
      <point x="585.667" y="602.333"/>
      <point x="588.936" y="589.067"/>
      <point x="597.951" y="561.739" type="curve" smooth="yes"/>
      <point x="720" y="210" type="line"/>
      <point x="836.333" y="551.667" type="line" smooth="yes"/>
      <point x="842.076" y="568.421"/>
      <point x="846.333" y="587.333"/>
      <point x="846.333" y="602.605" type="curve" smooth="yes"/>
      <point x="846.333" y="637.667"/>
      <point x="823.667" y="645.667"/>
      <point x="777.333" y="648.333" type="curve"/>
      <point x="777.333" y="671.333" type="line"/>
      <point x="964.667" y="671.333" type="line"/>
      <point x="964.667" y="648.333" type="line"/>
      <point x="927.667" y="644"/>
      <point x="905.999" y="626.252"/>
      <point x="892.333" y="585.333" type="curve" smooth="yes"/>
      <point x="689.667" y="-13.6667" type="line"/>
      <point x="666.667" y="-13.6667" type="line"/>
      <point x="499.333" y="445.333" type="line"/>
      <point x="324" y="-13.6667" type="line"/>
      <point x="300.333" y="-13.6667" type="line"/>
      <point x="94.6667" y="566.667" type="line" smooth="yes"/>
      <point x="73.2048" y="627.515"/>
      <point x="62.5322" y="640.667"/>
    </contour>
  </outline>
</glyph>
<glyph name="X" format="2">
  <advance width="722"/>
  <unicode hex="0058"/>
  <outline>
    <contour>
      <point x="14" y="0" type="line"/>
      <point x="14" y="23" type="line"/>
      <point x="64.3333" y="28.3333"/>
      <point x="82.6667" y="38"/>
      <point x="131.667" y="98.3333" type="curve" smooth="yes"/>
      <point x="300.667" y="310" type="line"/>
      <point x="114.714" y="582.244" type="line" smooth="yes"/>
      <point x="82.0335" y="629.667"/>
      <point x="64.3333" y="645.333"/>
      <point x="18.6667" y="648.333" type="curve"/>
      <point x="18.6667" y="671.333" type="line"/>
      <point x="350" y="671.333" type="line"/>
      <point x="350" y="648.333" type="line"/>
      <point x="313.691" y="645.912"/>
      <point x="272" y="641.27"/>
      <point x="272" y="612.335" type="curve" smooth="yes"/>
      <point x="272" y="603.362"/>
      <point x="275.751" y="593.672"/>
      <point x="289.345" y="573.137" type="curve" smooth="yes"/>
      <point x="389" y="422" type="line"/>
      <point x="471.85" y="529.287" type="line"/>
      <point x="506.283" y="575.764"/>
      <point x="516" y="594"/>
      <point x="516" y="610.215" type="curve" smooth="yes"/>
      <point x="516" y="640.291"/>
      <point x="481.385" y="645.587"/>
      <point x="444.667" y="648.333" type="curve"/>
      <point x="444.667" y="671.333" type="line"/>
      <point x="690.667" y="671.333" type="line"/>
      <point x="690.667" y="648.333" type="line"/>
      <point x="621.27" y="642.105"/>
      <point x="593.363" y="622.186"/>
      <point x="528.259" y="534.275" type="curve"/>
      <point x="413.667" y="385" type="line"/>
      <point x="599" y="105" type="line" smooth="yes"/>
      <point x="644.667" y="37.3333"/>
      <point x="659.725" y="28.5865"/>
      <point x="700.667" y="23" type="curve"/>
      <point x="700.667" y="0" type="line"/>
      <point x="375" y="0" type="line"/>
      <point x="375" y="23" type="line"/>
      <point x="405.786" y="25.1119"/>
      <point x="454" y="33.3942"/>
      <point x="454" y="54.952" type="curve" smooth="yes"/>
      <point x="454" y="65.6667"/>
      <point x="442" y="93"/>
      <point x="423" y="122" type="curve" smooth="yes"/>
      <point x="324" y="276.667" type="line"/>
      <point x="259" y="193.333" type="line"/>
      <point x="197.333" y="111.333"/>
      <point x="179" y="81.6667"/>
      <point x="179" y="59.9551" type="curve" smooth="yes"/>
      <point x="179" y="37.6667"/>
      <point x="198.333" y="28.3333"/>
      <point x="258.333" y="23" type="curve"/>
      <point x="258.333" y="0" type="line"/>
    </contour>
  </outline>
</glyph>
<glyph name="bracketleft" format="2">
  <advance width="333"/>
  <unicode hex="005B"/>
  <outline>
    <contour>
      <point x="74" y="-151.333" type="line"/>
      <point x="74" y="672.667" type="line"/>
      <point x="300.333" y="672.667" type="line"/>
      <point x="300.333" y="642.333" type="line"/>
      <point x="228.333" y="642.333" type="line" smooth="yes"/>
      <point x="180.333" y="642.333"/>
      <point x="168.667" y="630"/>
      <point x="168.667" y="581" type="curve" smooth="yes"/>
      <point x="168.667" y="-68.3333" type="line" smooth="yes"/>
      <point x="168.667" y="-108.667"/>
      <point x="180" y="-121"/>
      <point x="218.333" y="-121" type="curve" smooth="yes"/>
      <point x="300.333" y="-121" type="line"/>
      <point x="300.333" y="-151.333" type="line"/>
    </contour>
  </outline>
</glyph>
<glyph name="bracketright" format="2">
  <advance width="333"/>
  <unicode hex="005D"/>
  <outline>
    <contour>
      <point x="32.6667" y="-121" type="line"/>
      <point x="116" y="-121" type="line" smooth="yes"/>
      <point x="154.333" y="-121"/>
      <point x="164.333" y="-110.667"/>
      <point x="164.333" y="-71" type="curve" smooth="yes"/>
      <point x="164.333" y="578.333" type="line" smooth="yes"/>
      <point x="164.333" y="628.667"/>
      <point x="151.667" y="642.333"/>
      <point x="103.333" y="642.333" type="curve" smooth="yes"/>
      <point x="32.6667" y="642.333" type="line"/>
      <point x="32.6667" y="672.667" type="line"/>
      <point x="259" y="672.667" type="line"/>
      <point x="259" y="-151.333" type="line"/>
      <point x="32.6667" y="-151.333" type="line"/>
    </contour>
  </outline>
</glyph>
<glyph name="c" format="2">
  <advance width="444"/>
  <unicode hex="0063"/>
  <outline>
    <contour>
      <point x="24.3333" y="219" type="curve" smooth="yes"/>
      <point x="24.3333" y="366.333"/>
      <point x="127" y="468"/>
      <point x="254.667" y="468" type="curve" smooth="yes"/>
      <point x="341.333" y="468"/>
      <point x="409.333" y="420.333"/>
      <point x="409.333" y="360.333" type="curve" smooth="yes"/>
      <point x="409.333" y="330.667"/>
      <point x="391.333" y="305"/>
      <point x="354.667" y="305" type="curve" smooth="yes"/>
      <point x="323" y="305"/>
      <point x="297.667" y="329.667"/>
      <point x="295" y="368.333" type="curve"/>
      <point x="294.226" y="399.17"/>
      <point x="291.856" y="404.305"/>
      <point x="288.333" y="411" type="curve"/>
      <point x="281" y="430.667"/>
      <point x="268.667" y="438.333"/>
      <point x="246" y="438.333" type="curve" smooth="yes"/>
      <point x="184.333" y="438.333"/>
      <point x="144.667" y="372.667"/>
      <point x="144.667" y="269.667" type="curve" smooth="yes"/>
      <point x="144.667" y="140.667"/>
      <point x="202.667" y="56"/>
      <point x="291" y="56" type="curve" smooth="yes"/>
      <point x="337.333" y="56"/>
      <point x="366.667" y="73.3333"/>
      <point x="407.333" y="124.667" type="curve"/>
      <point x="423.333" y="109" type="line"/>
      <point x="377.667" y="46"/>
      <point x="322.667" y="-13.3333"/>
      <point x="230.333" y="-13.3333" type="curve" smooth="yes"/>
      <point x="110.667" y="-13.3333"/>
      <point x="24.3333" y="83.6667"/>
    </contour>
  </outline>
</glyph>
<glyph name="d" format="2">
  <advance width="537"/>
  <unicode hex="0064"/>
  <outline>
    <contour>
      <point x="25.6667" y="216.888" type="curve" smooth="yes"/>
      <point x="25.6667" y="359.667"/>
      <point x="110.687" y="468.667"/>
      <point x="225.413" y="468.667" type="curve" smooth="yes"/>
      <point x="266.809" y="468.667"/>
      <point x="295.888" y="454.333"/>
      <point x="337.333" y="413" type="curve"/>
      <point x="337.333" y="601.667" type="line" smooth="yes"/>
      <point x="337.333" y="642.237"/>
      <point x="320.924" y="652.169"/>
      <point x="263.8" y="657" type="curve"/>
      <point x="263.8" y="678.333" type="line"/>
      <point x="458" y="678.333" type="line"/>
      <point x="458" y="102" type="line" smooth="yes"/>
      <point x="458" y="61.9374"/>
      <point x="472.966" y="48.1092"/>
      <point x="519.667" y="44.6667" type="curve"/>
      <point x="519.667" y="24" type="line"/>
      <point x="471.375" y="17.1804" type="line" smooth="yes"/>
      <point x="415.731" y="9.4568"/>
      <point x="389.13" y="1.88037"/>
      <point x="344.667" y="-12" type="curve"/>
      <point x="339.333" y="-8.21686" type="line"/>
      <point x="339.333" y="53.6667" type="line"/>
      <point x="296.567" y="4.66667"/>
      <point x="261.789" y="-12.6667"/>
      <point x="213.533" y="-12.6667" type="curve" smooth="yes"/>
      <point x="100.752" y="-12.6667"/>
      <point x="25.6667" y="82.3333"/>
    </contour>
    <contour>
      <point x="152.333" y="232.827" type="curve" smooth="yes"/>
      <point x="152.333" y="108.667"/>
      <point x="187.495" y="42"/>
      <point x="246.436" y="42" type="curve" smooth="yes"/>
      <point x="281.085" y="42"/>
      <point x="322.407" y="78.8681"/>
      <point x="337.333" y="108.667" type="curve"/>
      <point x="337.333" y="347.333" type="line"/>
      <point x="328" y="390.333"/>
      <point x="290.856" y="422"/>
      <point x="247.993" y="422" type="curve" smooth="yes"/>
      <point x="186.811" y="422"/>
      <point x="152.333" y="358"/>
    </contour>
  </outline>
</glyph>
<glyph name="f" format="2">
  <advance width="306"/>
  <unicode hex="0066"/>
  <outline>
    <contour>
      <point x="16" y="0" type="line"/>
      <point x="16" y="21" type="line"/>
      <point x="70.6667" y="25.6667"/>
      <point x="81.6667" y="37.6667"/>
      <point x="81.6667" y="90.6667" type="curve" smooth="yes"/>
      <point x="81.6667" y="417.333" type="line"/>
      <point x="16.3333" y="417.333" type="line"/>
      <point x="16.3333" y="457.333" type="line"/>
      <point x="81.6667" y="457.333" type="line"/>
      <point x="81.8259" y="581.38"/>
      <point x="104.032" y="688.333"/>
      <point x="239.52" y="688.333" type="curve" smooth="yes"/>
      <point x="313.446" y="688.333"/>
      <point x="365.311" y="652.333"/>
      <point x="365.311" y="601" type="curve" smooth="yes"/>
      <point x="365.311" y="568.667"/>
      <point x="343.319" y="546"/>
      <point x="310.247" y="546" type="curve" smooth="yes"/>
      <point x="281.242" y="546"/>
      <point x="255.389" y="563.44"/>
      <point x="255.389" y="597.297" type="curve" smooth="yes"/>
      <point x="255.389" y="616.118"/>
      <point x="265.657" y="630.863"/>
      <point x="277.791" y="642.754" type="curve"/>
      <point x="277" y="652.159"/>
      <point x="267.282" y="658.333"/>
      <point x="250.776" y="658.333" type="curve" smooth="yes"/>
      <point x="218.333" y="658.333"/>
      <point x="202.333" y="633.333"/>
      <point x="202.333" y="577.333" type="curve" smooth="yes"/>
      <point x="202.333" y="457.333" type="line"/>
      <point x="293.667" y="457.333" type="line"/>
      <point x="293.667" y="417.333" type="line"/>
      <point x="202.333" y="417.346" type="line"/>
      <point x="202.333" y="103.333" type="line" smooth="yes"/>
      <point x="202.333" y="35"/>
      <point x="214" y="22"/>
      <point x="288" y="21" type="curve"/>
      <point x="288" y="0" type="line"/>
    </contour>
  </outline>
</glyph>
<glyph name="h" format="2">
  <advance width="546"/>
  <unicode hex="0068"/>
  <outline>
    <component base="l" xOffset="-1"/>
    <contour>
      <point x="169" y="347.337" type="line"/>
      <point x="198.667" y="383.667" type="line" smooth="yes"/>
      <point x="246.9" y="443.608"/>
      <point x="287" y="468.667"/>
      <point x="341.501" y="468.667" type="curve" smooth="yes"/>
      <point x="421.667" y="468.667"/>
      <point x="471.667" y="413.333"/>
      <point x="471.667" y="324.667" type="curve" smooth="yes"/>
      <point x="471.667" y="83.3333" type="line" smooth="yes"/>
      <point x="471.667" y="36.6667"/>
      <point x="482.333" y="25"/>
      <point x="525.667" y="21" type="curve"/>
      <point x="525.667" y="0" type="line"/>
      <point x="298.333" y="0" type="line"/>
      <point x="298.333" y="21" type="line"/>
      <point x="338.333" y="25.6667"/>
      <point x="351" y="40"/>
      <point x="351" y="83.3333" type="curve" smooth="yes"/>
      <point x="351" y="318" type="line" smooth="yes"/>
      <point x="351" y="377.333"/>
      <point x="331.667" y="405.667"/>
      <point x="290.545" y="405.667" type="curve" smooth="yes"/>
      <point x="257.885" y="405.667"/>
      <point x="226.956" y="383.272"/>
      <point x="200.333" y="348" type="curve" smooth="yes"/>
      <point x="169.091" y="305.64" type="line"/>
    </contour>
  </outline>
</glyph>
<glyph name="k" format="2">
  <advance width="537"/>
  <unicode hex="006B"/>
  <outline>
    <component base="l" xOffset="-3.33333"/>
    <contour>
      <point x="159.998" y="179.094" type="line"/>
      <point x="160.061" y="216.328" type="line"/>
      <point x="325.667" y="376.667" type="line" smooth="yes"/>
      <point x="337.568" y="388.11"/>
      <point x="347.333" y="404.667"/>
      <point x="347.333" y="413.333" type="curve" smooth="yes"/>
      <point x="347.333" y="427.071"/>
      <point x="328.323" y="434.626"/>
      <point x="291.333" y="437.667" type="curve"/>
      <point x="291.333" y="457.667" type="line"/>
      <point x="502" y="457.667" type="line"/>
      <point x="502" y="437.333" type="line"/>
      <point x="439.627" y="430.308"/>
      <point x="416.291" y="417.846"/>
      <point x="343.317" y="345.918" type="curve" smooth="yes"/>
      <point x="294.333" y="299" type="line"/>
      <point x="474.667" y="55.6667" type="line"/>
      <point x="494.667" y="30.6667"/>
      <point x="508.333" y="22.3333"/>
      <point x="530.333" y="21.3333" type="curve"/>
      <point x="530.333" y="0.333333" type="line"/>
      <point x="301.667" y="0.333333" type="line"/>
      <point x="301.667" y="21.0122" type="line"/>
      <point x="311.333" y="21.3333" type="line"/>
      <point x="332.98" y="21.3333"/>
      <point x="343" y="26.9383"/>
      <point x="343" y="37.0168" type="curve" smooth="yes"/>
      <point x="343" y="46"/>
      <point x="334.214" y="59.4849"/>
      <point x="320" y="80" type="curve" smooth="yes"/>
      <point x="210" y="231.667" type="line"/>
    </contour>
  </outline>
</glyph>
<glyph name="o" format="2">
  <advance width="500"/>
  <unicode hex="006F"/>
  <outline>
    <contour>
      <point x="26.3333" y="228.333" type="curve" smooth="yes"/>
      <point x="26.3333" y="368.467"/>
      <point x="118.457" y="468.667"/>
      <point x="248.333" y="468.667" type="curve" smooth="yes"/>
      <point x="378.21" y="468.667"/>
      <point x="470.333" y="368.467"/>
      <point x="470.333" y="228.333" type="curve" smooth="yes"/>
      <point x="470.333" y="88.3333"/>
      <point x="378.333" y="-12.6667"/>
      <point x="248.333" y="-12.6667" type="curve" smooth="yes"/>
      <point x="118.333" y="-12.6667"/>
      <point x="26.3333" y="88.3333"/>
    </contour>
    <contour>
      <point x="154.333" y="228.333" type="curve" smooth="yes"/>
      <point x="154.333" y="80.3846"/>
      <point x="182.136" y="17.3333"/>
      <point x="248.333" y="17.3333" type="curve" smooth="yes"/>
      <point x="314.531" y="17.3333"/>
      <point x="342.333" y="80.3846"/>
      <point x="342.333" y="228.333" type="curve" smooth="yes"/>
      <point x="342.333" y="376.026"/>
      <point x="314.623" y="438.667"/>
      <point x="248.333" y="438.667" type="curve" smooth="yes"/>
      <point x="182.044" y="438.667"/>
      <point x="154.333" y="376.026"/>
    </contour>
  </outline>
</glyph>
<glyph name="p" format="2">
  <advance width="537"/>
  <unicode hex="0070"/>
  <outline>
    <contour>
      <point x="14.3333" y="-187.333" type="line"/>
      <point x="66" y="-180"/>
      <point x="75" y="-170.333"/>
      <point x="75" y="-125.667" type="curve" smooth="yes"/>
      <point x="75" y="381.469" type="line" smooth="yes"/>
      <point x="75" y="419.905"/>
      <point x="61.4602" y="432.533"/>
      <point x="17" y="439.333" type="curve"/>
      <point x="17" y="460.667" type="line"/>
      <point x="194.333" y="460.667" type="line"/>
      <point x="194.333" y="388.419" type="line"/>
      <point x="229.797" y="445"/>
      <point x="268.594" y="468.667"/>
      <point x="323.76" y="468.667" type="curve" smooth="yes"/>
      <point x="433.209" y="468.667"/>
      <point x="506" y="375.802"/>
      <point x="506" y="240.431" type="curve" smooth="yes"/>
      <point x="506" y="95.8253"/>
      <point x="422.649" y="-12"/>
      <point x="304.22" y="-12" type="curve" smooth="yes"/>
      <point x="264.841" y="-12"/>
      <point x="239.437" y="0"/>
      <point x="195.667" y="43.6488" type="curve"/>
      <point x="195.667" y="-104" type="line" smooth="yes"/>
      <point x="195.667" y="-169.667"/>
      <point x="211.372" y="-187"/>
      <point x="277.261" y="-189" type="curve"/>
      <point x="277.261" y="-209" type="line"/>
      <point x="14.3333" y="-209" type="line"/>
    </contour>
    <contour>
      <point x="195.667" y="99.1159" type="line"/>
      <point x="205.667" y="63.918"/>
      <point x="244.169" y="35.3333"/>
      <point x="283.968" y="35.3333" type="curve" smooth="yes"/>
      <point x="344.188" y="35.3333"/>
      <point x="379.333" y="100.79"/>
      <point x="379.333" y="226.425" type="curve" smooth="yes"/>
      <point x="379.333" y="345.547"/>
      <point x="346.855" y="410.667"/>
      <point x="287.094" y="410.667" type="curve" smooth="yes"/>
      <point x="241.63" y="410.667"/>
      <point x="195.667" y="372.62"/>
      <point x="195.667" y="342.25" type="curve" smooth="yes"/>
    </contour>
  </outline>
</glyph>
<glyph name="t" format="2">
  <advance width="315"/>
  <unicode hex="0074"/>
  <outline>
    <contour>
      <point x="17.6667" y="417.333" type="line"/>
      <point x="17.6667" y="437.667" type="line"/>
      <point x="78.0472" y="489.333"/>
      <point x="118.609" y="537.608"/>
      <point x="173" y="613" type="curve"/>
      <point x="192" y="613" type="line"/>
      <point x="192" y="457.333" type="line"/>
      <point x="288.333" y="457.333" type="line"/>
      <point x="288.333" y="417.333" type="line"/>
      <point x="192" y="417.333" type="line"/>
      <point x="192" y="121.333" type="line" smooth="yes"/>
      <point x="192" y="73.6667"/>
      <point x="204.333" y="53.3333"/>
      <point x="235.333" y="53.3333" type="curve" smooth="yes"/>
      <point x="256.667" y="53.3333"/>
      <point x="273" y="66"/>
      <point x="293.333" y="99.6667" type="curve"/>
      <point x="314.333" y="88.6667" type="line"/>
      <point x="276" y="16.6667"/>
      <point x="236.667" y="-11.3333"/>
      <point x="175.667" y="-11.3333" type="curve" smooth="yes"/>
      <point x="110" y="-11.3333"/>
      <point x="71.3333" y="29.6667"/>
      <point x="71.3333" y="101" type="curve" smooth="yes"/>
      <point x="71.3333" y="417.333" type="line"/>
    </contour>
  </outline>
</glyph>
<glyph name="u" format="2">
  <advance width="537"/>
  <unicode hex="0075"/>
  <outline>
    <contour>
      <point x="13.6667" y="436.667" type="curve"/>
      <point x="13.6667" y="457.333" type="line"/>
      <point x="187.667" y="457.333" type="line"/>
      <point x="187.667" y="122.667" type="line" smooth="yes"/>
      <point x="187.667" y="74.6667"/>
      <point x="208.333" y="50"/>
      <point x="250.825" y="50" type="curve" smooth="yes"/>
      <point x="285.99" y="50"/>
      <point x="317" y="67.9704"/>
      <point x="339" y="108.333" type="curve"/>
      <point x="339" y="375.333" type="line" smooth="yes"/>
      <point x="339" y="420.667"/>
      <point x="327" y="432"/>
      <point x="273" y="435.667" type="curve"/>
      <point x="273" y="457.333" type="line"/>
      <point x="459.667" y="457.333" type="line"/>
      <point x="459.667" y="103" type="line" smooth="yes"/>
      <point x="459.667" y="57.5411"/>
      <point x="472.323" y="47.1667"/>
      <point x="517.667" y="46" type="curve"/>
      <point x="517.667" y="25.3333" type="line"/>
      <point x="457.983" y="17.1809"/>
      <point x="406.627" y="9.17224"/>
      <point x="349.333" y="-11.6667" type="curve"/>
      <point x="341.333" y="-6.81557" type="line"/>
      <point x="341.333" y="60" type="line"/>
      <point x="320.191" y="39.9013" type="line"/>
      <point x="276.441" y="1.47924"/>
      <point x="240.917" y="-12.6667"/>
      <point x="198.43" y="-12.6667" type="curve" smooth="yes"/>
      <point x="116.333" y="-12.6667"/>
      <point x="67" y="39.5217"/>
      <point x="67" y="124" type="curve" smooth="yes"/>
      <point x="67" y="376" type="line" smooth="yes"/>
      <point x="67" y="419.333"/>
      <point x="57" y="430.333"/>
    </contour>
  </outline>
</glyph>
<glyph name="v" format="2">
  <advance width="500"/>
  <unicode hex="0076"/>
  <outline>
    <contour>
      <point x="20.3333" y="436.333" type="curve"/>
      <point x="20.3333" y="457.333" type="line"/>
      <point x="252.333" y="457.333" type="line"/>
      <point x="252.333" y="436.333" type="line"/>
      <point x="225.893" y="434.445"/>
      <point x="201.667" y="431.305"/>
      <point x="201.667" y="409" type="curve" smooth="yes"/>
      <point x="201.667" y="402.712"/>
      <point x="204.074" y="392.871"/>
      <point x="211.945" y="372.956" type="curve" smooth="yes"/>
      <point x="301.205" y="147.182" type="line"/>
      <point x="293.897" y="147.182" type="line"/>
      <point x="377.175" y="359.951" type="line" smooth="yes"/>
      <point x="384.223" y="377.923"/>
      <point x="387.667" y="393.493"/>
      <point x="387.667" y="403.333" type="curve" smooth="yes"/>
      <point x="387.667" y="427.667"/>
      <point x="370.667" y="434.667"/>
      <point x="335.333" y="436.333" type="curve"/>
      <point x="335.333" y="457.333" type="line"/>
      <point x="482.333" y="457.333" type="line"/>
      <point x="482.333" y="436.333" type="line"/>
      <point x="450.225" y="433.516"/>
      <point x="439.173" y="414.266"/>
      <point x="422" y="373.667" type="curve"/>
      <point x="266.424" y="-12.6204" type="line"/>
      <point x="241.667" y="-12.6667" type="line"/>
      <point x="81.8504" y="378.417" type="line" smooth="yes"/>
      <point x="68.3308" y="411.5"/>
      <point x="57.0367" y="431.174"/>
    </contour>
  </outline>
</glyph>
<glyph name="w" format="2">
  <advance width="722"/>
  <unicode hex="0077"/>
  <outline>
    <contour>
      <point x="22.3333" y="436.333" type="curve"/>
      <point x="22.3333" y="457.333" type="line"/>
      <point x="230.333" y="457.333" type="line"/>
      <point x="230.333" y="436.333" type="line"/>
      <point x="200.333" y="432.333"/>
      <point x="189.667" y="424.333"/>
      <point x="189.667" y="405.328" type="curve" smooth="yes"/>
      <point x="189.667" y="394.667"/>
      <point x="193.211" y="384.309"/>
      <point x="197.113" y="374.225" type="curve" smooth="yes"/>
      <point x="280.667" y="154.333" type="line"/>
      <point x="356.333" y="334.667" type="line"/>
      <point x="337.398" y="392.78" type="line" smooth="yes"/>
      <point x="327.651" y="420.685"/>
      <point x="317.419" y="431.965"/>
      <point x="283.333" y="436.333" type="curve"/>
      <point x="283.333" y="457.333" type="line"/>
      <point x="507" y="457.333" type="line"/>
      <point x="507" y="436.333" type="line"/>
      <point x="466" y="432"/>
      <point x="455.667" y="426.333"/>
      <point x="455.667" y="413.013" type="curve" smooth="yes"/>
      <point x="455.667" y="403.089"/>
      <point x="462.749" y="381.122"/>
      <point x="466.727" y="367.198" type="curve" smooth="yes"/>
      <point x="530" y="158.667" type="line"/>
      <point x="606.213" y="353.078" type="line" smooth="yes"/>
      <point x="613.77" y="372.217"/>
      <point x="618.333" y="389.667"/>
      <point x="618.333" y="402.992" type="curve" smooth="yes"/>
      <point x="618.333" y="423.667"/>
      <point x="607.667" y="431.333"/>
      <point x="571.667" y="436.333" type="curve"/>
      <point x="571.667" y="457.333" type="line"/>
      <point x="702.667" y="457.333" type="line"/>
      <point x="702.667" y="436.333" type="line"/>
      <point x="678.667" y="430.667"/>
      <point x="671.002" y="424.213"/>
      <point x="655.667" y="385" type="curve" smooth="yes"/>
      <point x="500.279" y="-12.7616" type="line"/>
      <point x="478.333" y="-12.6667" type="line"/>
      <point x="375.333" y="285.667" type="line"/>
      <point x="249.471" y="-12.8232" type="line"/>
      <point x="226.667" y="-12.6667" type="line"/>
      <point x="69.1248" y="385.177" type="line" smooth="yes"/>
      <point x="56.3464" y="417.532"/>
      <point x="47.3333" y="432.333"/>
    </contour>
  </outline>
</glyph>
<glyph name="x" format="2">
  <advance width="500"/>
  <unicode hex="0078"/>
  <outline>
    <contour>
      <point x="15" y="0" type="line"/>
      <point x="15" y="21" type="line"/>
      <point x="52.6667" y="23.6667"/>
      <point x="70" y="40"/>
      <point x="114.667" y="100" type="curve" smooth="yes"/>
      <point x="196" y="211" type="line"/>
      <point x="79.3333" y="390.333" type="line" smooth="yes"/>
      <point x="57.2547" y="423.276"/>
      <point x="50.5788" y="433.667"/>
      <point x="16" y="436.333" type="curve"/>
      <point x="16" y="457.333" type="line"/>
      <point x="251.667" y="457.333" type="line"/>
      <point x="251.667" y="436.333" type="line"/>
      <point x="224.333" y="435.667"/>
      <point x="206" y="431.333"/>
      <point x="206" y="416" type="curve" smooth="yes"/>
      <point x="206" y="408.641"/>
      <point x="211.959" y="393.644"/>
      <point x="222.366" y="378.221" type="curve" smooth="yes"/>
      <point x="273.333" y="303.333" type="line"/>
      <point x="327.228" y="374.631" type="line" smooth="yes"/>
      <point x="338.384" y="389.438"/>
      <point x="345" y="404.197"/>
      <point x="345" y="412.667" type="curve" smooth="yes"/>
      <point x="345" y="431.279"/>
      <point x="315.342" y="434.629"/>
      <point x="297.667" y="436.333" type="curve"/>
      <point x="297.667" y="457.333" type="line"/>
      <point x="462.333" y="457.333" type="line"/>
      <point x="462.333" y="436.333" type="line"/>
      <point x="431.333" y="432.667"/>
      <point x="407.333" y="419.333"/>
      <point x="388.667" y="395.667" type="curve" smooth="yes"/>
      <point x="293.667" y="271.667" type="line"/>
      <point x="435" y="54.3333" type="line" smooth="yes"/>
      <point x="446.667" y="36.3333"/>
      <point x="458.667" y="25"/>
      <point x="482.333" y="21" type="curve"/>
      <point x="482.333" y="0" type="line"/>
      <point x="254.667" y="0" type="line"/>
      <point x="254.667" y="21" type="line"/>
      <point x="282.333" y="22.6667"/>
      <point x="298" y="27"/>
      <point x="298" y="43" type="curve" smooth="yes"/>
      <point x="298" y="52.7894"/>
      <point x="289.259" y="70.1817"/>
      <point x="270.23" y="97.7359" type="curve" smooth="yes"/>
      <point x="215.667" y="179.667" type="line"/>
      <point x="150.544" y="87.5511" type="line" smooth="yes"/>
      <point x="137.279" y="68.8675"/>
      <point x="129.333" y="51.1086"/>
      <point x="129.333" y="43" type="curve" smooth="yes"/>
      <point x="129.333" y="27"/>
      <point x="148" y="22.3333"/>
      <point x="176" y="21" type="curve"/>
      <point x="176" y="0" type="line"/>
    </contour>
  </outline>
</glyph>
<glyph name="y" format="2">
  <advance width="500"/>
  <unicode hex="0079"/>
  <outline>
    <contour>
      <point x="20.3333" y="-130.925" type="curve" smooth="yes"/>
      <point x="20.3333" y="-95.9137"/>
      <point x="43.5592" y="-68.0421"/>
      <point x="81.5981" y="-68.0421" type="curve" smooth="yes"/>
      <point x="116.321" y="-68.0421"/>
      <point x="135.16" y="-89.9418"/>
      <point x="135.155" y="-114.723" type="curve" smooth="yes"/>
      <point x="135.152" y="-120.869"/>
      <point x="133.256" y="-125.954"/>
      <point x="131.53" y="-130.426" type="curve"/>
      <point x="129.722" y="-134.145"/>
      <point x="128.047" y="-139.857"/>
      <point x="128.038" y="-142.942" type="curve" smooth="yes"/>
      <point x="128.025" y="-151.559"/>
      <point x="135.773" y="-155.919"/>
      <point x="145.765" y="-155.919" type="curve" smooth="yes"/>
      <point x="167.84" y="-155.919"/>
      <point x="193.06" y="-129.755"/>
      <point x="213.187" y="-74.8373" type="curve" smooth="yes"/>
      <point x="239.917" y="-3.35023" type="line"/>
      <point x="82.0726" y="382.775" type="line" smooth="yes"/>
      <point x="67.3745" y="420.336"/>
      <point x="47.9542" y="431.926"/>
      <point x="15" y="436.667" type="curve"/>
      <point x="15" y="457.333" type="line"/>
      <point x="250.333" y="457.333" type="line"/>
      <point x="250.333" y="436.333" type="line"/>
      <point x="224.501" y="434.948"/>
      <point x="196.333" y="430.289"/>
      <point x="196.333" y="409.625" type="curve" smooth="yes"/>
      <point x="196.333" y="401"/>
      <point x="204.942" y="376.52"/>
      <point x="212.333" y="358" type="curve" smooth="yes"/>
      <point x="298.667" y="150.333" type="line"/>
      <point x="376.333" y="370.333" type="line" smooth="yes"/>
      <point x="383.175" y="389.395"/>
      <point x="385" y="397.333"/>
      <point x="385" y="406" type="curve" smooth="yes"/>
      <point x="385" y="427.333"/>
      <point x="371.667" y="435"/>
      <point x="332.333" y="436.333" type="curve"/>
      <point x="332.333" y="457.333" type="line"/>
      <point x="478" y="457.333" type="line"/>
      <point x="478" y="436.333" type="line"/>
      <point x="449.333" y="433.333"/>
      <point x="438.281" y="423.614"/>
      <point x="423.333" y="384.667" type="curve" smooth="yes"/>
      <point x="260.629" y="-48.0745" type="line" smooth="yes"/>
      <point x="222.879" y="-148.695"/>
      <point x="188.584" y="-210"/>
      <point x="113.87" y="-210" type="curve" smooth="yes"/>
      <point x="60.2481" y="-210"/>
      <point x="20.3333" y="-177"/>
    </contour>
  </outline>
</glyph>
<glyph name="asciitilde" format="2">
  <advance width="527"/>
  <unicode hex="007E"/>
  <outline>
    <contour>
      <point x="32.6667" y="243" type="line"/>
      <point x="70.6667" y="303.667"/>
      <point x="105" y="327.333"/>
      <point x="156.333" y="327.333" type="curve" smooth="yes"/>
      <point x="193.333" y="327.333"/>
      <point x="216.667" y="319.667"/>
      <point x="296.333" y="281.333" type="curve"/>
      <point x="332.667" y="265"/>
      <point x="351.667" y="259.333"/>
      <point x="370" y="259.333" type="curve" smooth="yes"/>
      <point x="395.667" y="259.333"/>
      <point x="414.667" y="272"/>
      <point x="440" y="306.333" type="curve"/>
      <point x="494.667" y="263.667" type="line"/>
      <point x="449.333" y="200.333"/>
      <point x="417.667" y="178.667"/>
      <point x="371.667" y="178.667" type="curve" smooth="yes"/>
      <point x="334.667" y="178.667"/>
      <point x="311.333" y="186.333"/>
      <point x="251" y="218.667" type="curve" smooth="yes"/>
      <point x="214.667" y="238.333"/>
      <point x="187" y="246.667"/>
      <point x="156.667" y="246.667" type="curve" smooth="yes"/>
      <point x="127" y="246.667"/>
      <point x="110" y="236"/>
      <point x="86" y="201.667" type="curve"/>
    </contour>
  </outline>
</glyph>
<glyph name="exclamdown" format="2">
  <advance width="333"/>
  <unicode hex="00A1"/>
  <outline>
    <contour>
      <point x="87.6667" y="417.752" type="curve" smooth="yes"/>
      <point x="87.6667" y="458.333"/>
      <point x="119.736" y="490.333"/>
      <point x="161.5" y="490.333" type="curve" smooth="yes"/>
      <point x="203.931" y="490.333"/>
      <point x="237" y="458.333"/>
      <point x="237" y="417.667" type="curve" smooth="yes"/>
      <point x="237" y="376.333"/>
      <point x="203.594" y="342"/>
      <point x="162.167" y="342" type="curve" smooth="yes"/>
      <point x="121.406" y="342"/>
      <point x="87.6667" y="376"/>
    </contour>
    <contour>
      <point x="85.3333" y="-116.704" type="curve" smooth="yes"/>
      <point x="85.3333" y="-78.7321"/>
      <point x="90.7705" y="-42.1195"/>
      <point x="105.287" y="13.9465" type="curve" smooth="yes"/>
      <point x="127.86" y="98.6784"/>
      <point x="137.073" y="156.64"/>
      <point x="145.811" y="264" type="curve"/>
      <point x="177.519" y="264" type="line"/>
      <point x="186.241" y="156.745"/>
      <point x="194.753" y="99.773"/>
      <point x="217.235" y="18.3413" type="curve" smooth="yes"/>
      <point x="232.625" y="-41.0107"/>
      <point x="238" y="-78.8321"/>
      <point x="238" y="-117.333" type="curve" smooth="yes"/>
      <point x="238" y="-177.273"/>
      <point x="208.432" y="-207.333"/>
      <point x="161.868" y="-207.333" type="curve" smooth="yes"/>
      <point x="114.028" y="-207.333"/>
      <point x="85.3333" y="-176.287"/>
    </contour>
  </outline>
</glyph>
<glyph name="dieresis" format="2">
  <advance width="333"/>
  <unicode hex="00A8"/>
  <outline>
    <contour>
      <point x="4.66667" y="592.333" type="curve" smooth="yes"/>
      <point x="4.66667" y="623.667"/>
      <point x="32.3333" y="651.333"/>
      <point x="63.3333" y="651.333" type="curve" smooth="yes"/>
      <point x="96" y="651.333"/>
      <point x="123.667" y="623.667"/>
      <point x="123.667" y="590.667" type="curve" smooth="yes"/>
      <point x="123.667" y="558.333"/>
      <point x="96.6667" y="532.333"/>
      <point x="63.3333" y="532.333" type="curve" smooth="yes"/>
      <point x="31" y="532.333"/>
      <point x="4.66667" y="559.667"/>
    </contour>
    <contour>
      <point x="211" y="593" type="curve" smooth="yes"/>
      <point x="211" y="623.667"/>
      <point x="238.667" y="651.333"/>
      <point x="269" y="651.333" type="curve" smooth="yes"/>
      <point x="302.333" y="651.333"/>
      <point x="330" y="623.667"/>
      <point x="330" y="590.667" type="curve" smooth="yes"/>
      <point x="330" y="558.333"/>
      <point x="303" y="532.333"/>
      <point x="269" y="532.333" type="curve" smooth="yes"/>
      <point x="236.667" y="532.333"/>
      <point x="211" y="559"/>
    </contour>
  </outline>
</glyph>
<glyph name="copyright" format="2">
  <advance width="751"/>
  <unicode hex="00A9"/>
  <outline>
    <contour>
      <point x="30" y="334.833" type="curve" smooth="yes"/>
      <point x="30" y="531.667"/>
      <point x="182" y="686"/>
      <point x="375.752" y="686" type="curve" smooth="yes"/>
      <point x="569.667" y="686"/>
      <point x="721.333" y="531"/>
      <point x="721.333" y="332.555" type="curve" smooth="yes"/>
      <point x="721.333" y="134.667"/>
      <point x="571.333" y="-17.3333"/>
      <point x="377.727" y="-17.3333" type="curve" smooth="yes"/>
      <point x="182" y="-17.3333"/>
      <point x="30" y="138"/>
    </contour>
    <contour>
      <point x="95.6667" y="335" type="curve" smooth="yes"/>
      <point x="95.6667" y="168"/>
      <point x="221.333" y="31.3333"/>
      <point x="376.906" y="31.3333" type="curve" smooth="yes"/>
      <point x="531" y="31.3333"/>
      <point x="655.667" y="166"/>
      <point x="655.667" y="333.437" type="curve" smooth="yes"/>
      <point x="655.667" y="500.667"/>
      <point x="530.333" y="637.333"/>
      <point x="375.789" y="637.333" type="curve" smooth="yes"/>
      <point x="221.333" y="637.333"/>
      <point x="95.6667" y="502"/>
    </contour>
    <contour>
      <point x="180.667" y="338.13" type="curve" smooth="yes"/>
      <point x="180.667" y="459.667"/>
      <point x="269" y="540"/>
      <point x="404.182" y="540" type="curve" smooth="yes"/>
      <point x="456.605" y="540"/>
      <point x="506.221" y="522.356"/>
      <point x="528.333" y="500.333" type="curve"/>
      <point x="528.333" y="429" type="line"/>
      <point x="510" y="429" type="line"/>
      <point x="495" y="489.333"/>
      <point x="461" y="518"/>
      <point x="404" y="518" type="curve" smooth="yes"/>
      <point x="320.333" y="518"/>
      <point x="274.333" y="455"/>
      <point x="274.333" y="342.198" type="curve" smooth="yes"/>
      <point x="274.333" y="228.667"/>
      <point x="321.667" y="163.667"/>
      <point x="407.077" y="163.667" type="curve" smooth="yes"/>
      <point x="460.333" y="163.667"/>
      <point x="495.667" y="189"/>
      <point x="527" y="253" type="curve"/>
      <point x="545" y="253" type="line"/>
      <point x="528.667" y="178.333" type="line"/>
      <point x="509.296" y="156.78"/>
      <point x="456.87" y="141.667"/>
      <point x="393.731" y="141.667" type="curve" smooth="yes"/>
      <point x="266.064" y="141.667"/>
      <point x="180.667" y="217.667"/>
    </contour>
  </outline>
</glyph>
<glyph name="logicalnot" format="2">
  <advance width="568"/>
  <unicode hex="00AC"/>
  <outline>
    <contour>
      <point x="32" y="314" type="line"/>
      <point x="32" y="394.667" type="line"/>
      <point x="536" y="394.667" type="line"/>
      <point x="536" y="108" type="line"/>
      <point x="455.333" y="108" type="line"/>
      <point x="455.333" y="314" type="line"/>
    </contour>
  </outline>
</glyph>
<glyph name="uni00AD" format="2">
  <advance width="333"/>
  <unicode hex="00AD"/>
  <outline>
    <contour>
      <point x="42.3333" y="178.667" type="line"/>
      <point x="42.3333" y="277" type="line"/>
      <point x="286.333" y="277" type="line"/>
      <point x="286.333" y="178.667" type="line"/>
    </contour>
  </outline>
</glyph>
<glyph name="registered" format="2">
  <advance width="751"/>
  <unicode hex="00AE"/>
  <outline>
    <contour>
      <point x="30" y="333.333" type="curve" smooth="yes"/>
      <point x="30" y="531"/>
      <point x="182" y="686"/>
      <point x="376.333" y="686" type="curve" smooth="yes"/>
      <point x="570.333" y="686"/>
      <point x="721.333" y="531.667"/>
      <point x="721.333" y="333" type="curve" smooth="yes"/>
      <point x="721.333" y="134.667"/>
      <point x="570.333" y="-17.3333"/>
      <point x="373" y="-17.3333" type="curve" smooth="yes"/>
      <point x="182" y="-17.3333"/>
      <point x="30" y="138"/>
    </contour>
    <contour>
      <point x="95.6667" y="333.333" type="curve" smooth="yes"/>
      <point x="95.6667" y="168"/>
      <point x="221.333" y="31.3333"/>
      <point x="373.667" y="31.3333" type="curve" smooth="yes"/>
      <point x="530.333" y="31.3333"/>
      <point x="655.667" y="166"/>
      <point x="655.667" y="332.667" type="curve" smooth="yes"/>
      <point x="655.667" y="501.667"/>
      <point x="531" y="637.333"/>
      <point x="376.333" y="637.333" type="curve" smooth="yes"/>
      <point x="221.333" y="637.333"/>
      <point x="95.6667" y="501.333"/>
    </contour>
    <contour>
      <point x="211" y="152.667" type="line"/>
      <point x="211" y="169.667" type="line"/>
      <point x="257.333" y="173.333"/>
      <point x="258" y="174"/>
      <point x="258" y="215" type="curve" smooth="yes"/>
      <point x="258" y="465.333" type="line" smooth="yes"/>
      <point x="258" y="507.333"/>
      <point x="258" y="507.333"/>
      <point x="211" y="511" type="curve"/>
      <point x="211" y="528" type="line"/>
      <point x="398.667" y="528" type="line" smooth="yes"/>
      <point x="469.333" y="528"/>
      <point x="513.667" y="491.333"/>
      <point x="513.667" y="433.333" type="curve" smooth="yes"/>
      <point x="513.667" y="385.333"/>
      <point x="486.667" y="349.667"/>
      <point x="434" y="328.667" type="curve"/>
      <point x="491.667" y="247.667" type="line" smooth="yes"/>
      <point x="520.333" y="208"/>
      <point x="541.667" y="182.667"/>
      <point x="563.667" y="162.667" type="curve"/>
      <point x="563.667" y="152.667" type="line"/>
      <point x="488.333" y="152.667" type="line" smooth="yes"/>
      <point x="472" y="152.667"/>
      <point x="453.333" y="176"/>
      <point x="423.333" y="233" type="curve" smooth="yes"/>
      <point x="407.667" y="263.667"/>
      <point x="399.667" y="276.667"/>
      <point x="373.333" y="318" type="curve"/>
      <point x="332.667" y="318" type="line"/>
      <point x="332.667" y="215" type="line" smooth="yes"/>
      <point x="332.667" y="174"/>
      <point x="333.333" y="173.333"/>
      <point x="379.667" y="169.667" type="curve"/>
      <point x="379.667" y="152.667" type="line"/>
    </contour>
    <contour>
      <point x="332.667" y="339" type="line"/>
      <point x="370.333" y="339" type="line" smooth="yes"/>
      <point x="411" y="339"/>
      <point x="434.667" y="371"/>
      <point x="434.667" y="427.333" type="curve" smooth="yes"/>
      <point x="434.667" y="480.667"/>
      <point x="413.333" y="507"/>
      <point x="370.333" y="507" type="curve" smooth="yes"/>
      <point x="332.667" y="507" type="line"/>
    </contour>
  </outline>
</glyph>
<glyph name="macron" format="2">
  <advance width="464"/>
  <unicode hex="00AF"/>
  <outline>
    <contour>
      <point x="70" y="554" type="line"/>
      <point x="70" y="620" type="line"/>
      <point x="393.667" y="620" type="line"/>
      <point x="393.667" y="554" type="line"/>
    </contour>
  </outline>
</glyph>
<glyph name="degree" format="2">
  <advance width="400"/>
  <unicode hex="00B0"/>
  <outline>
    <contour>
      <point x="57" y="541" type="curve" smooth="yes"/>
      <point x="57" y="621"/>
      <point x="120" y="684"/>
      <point x="200" y="684" type="curve" smooth="yes"/>
      <point x="280" y="684"/>
      <point x="343" y="621"/>
      <point x="343" y="540.667" type="curve" smooth="yes"/>
      <point x="343" y="460"/>
      <point x="279.667" y="398"/>
      <point x="198" y="398" type="curve" smooth="yes"/>
      <point x="120" y="398"/>
      <point x="57" y="462"/>
    </contour>
    <contour>
      <point x="97.3333" y="541" type="curve" smooth="yes"/>
      <point x="97.3333" y="482.667"/>
      <point x="143.667" y="433.333"/>
      <point x="199" y="433.333" type="curve" smooth="yes"/>
      <point x="256.333" y="433.333"/>
      <point x="302.667" y="481.667"/>
      <point x="302.667" y="541" type="curve" smooth="yes"/>
      <point x="302.667" y="599.333"/>
      <point x="255.333" y="648.667"/>
      <point x="200" y="648.667" type="curve" smooth="yes"/>
      <point x="143.667" y="648.667"/>
      <point x="97.3333" y="599.333"/>
    </contour>
  </outline>
</glyph>
<glyph name="periodcentered" format="2">
  <advance width="250"/>
  <unicode hex="00B7"/>
  <outline>
    <contour>
      <point x="50.6667" y="306.333" type="curve" smooth="yes"/>
      <point x="50.6667" y="346.667"/>
      <point x="84.3333" y="381.333"/>
      <point x="125" y="381.333" type="curve" smooth="yes"/>
      <point x="166.333" y="381.333"/>
      <point x="200.333" y="346.667"/>
      <point x="200.333" y="305.667" type="curve" smooth="yes"/>
      <point x="200.333" y="264.667"/>
      <point x="166.333" y="231.667"/>
      <point x="124" y="231.667" type="curve" smooth="yes"/>
      <point x="83" y="231.667"/>
      <point x="50.6667" y="264.667"/>
    </contour>
  </outline>
</glyph>
<glyph name="cedilla" format="2">
  <advance width="333"/>
  <unicode hex="00B8"/>
  <outline>
    <contour>
      <point x="62.6667" y="-199.667" type="curve"/>
      <point x="78" y="-164.667" type="line"/>
      <point x="101.986" y="-174.913"/>
      <point x="117.001" y="-178"/>
      <point x="134.863" y="-178" type="curve" smooth="yes"/>
      <point x="175" y="-178"/>
      <point x="196" y="-162.333"/>
      <point x="196" y="-135.425" type="curve" smooth="yes"/>
      <point x="196" y="-112.667"/>
      <point x="179.667" y="-100"/>
      <point x="147.667" y="-100" type="curve" smooth="yes"/>
      <point x="138" y="-100"/>
      <point x="129.667" y="-101"/>
      <point x="119.667" y="-104" type="curve"/>
      <point x="110" y="-97" type="line"/>
      <point x="152.333" y="0" type="line"/>
      <point x="192" y="0" type="line"/>
      <point x="165" y="-64.3333" type="line"/>
      <point x="176.333" y="-61"/>
      <point x="183.667" y="-60"/>
      <point x="194.433" y="-60" type="curve" smooth="yes"/>
      <point x="250.333" y="-60"/>
      <point x="283" y="-86"/>
      <point x="283" y="-129.667" type="curve" smooth="yes"/>
      <point x="283" y="-183.667"/>
      <point x="233.667" y="-217"/>
      <point x="152.372" y="-217" type="curve" smooth="yes"/>
      <point x="122" y="-217"/>
      <point x="96.3333" y="-212.333"/>
    </contour>
  </outline>
</glyph>
<glyph name="Eth" format="2">
  <advance width="722"/>
  <unicode hex="00D0"/>
  <outline>
    <component base="D" xOffset="-1.33333"/>
    <contour>
      <point x="11" y="322.333" type="line"/>
      <point x="11" y="368.333" type="line"/>
      <point x="365.333" y="368.333" type="line"/>
      <point x="365.333" y="322.333" type="line"/>
    </contour>
  </outline>
</glyph>
<glyph name="multiply" format="2">
  <advance width="568"/>
  <unicode hex="00D7"/>
  <outline>
    <contour>
      <point x="44.6667" y="70.6667" type="line"/>
      <point x="226.667" y="253" type="line"/>
      <point x="44.6667" y="435" type="line"/>
      <point x="102" y="492.333" type="line"/>
      <point x="284" y="309.333" type="line"/>
      <point x="466.333" y="492.333" type="line"/>
      <point x="523.667" y="435" type="line"/>
      <point x="340.667" y="253" type="line"/>
      <point x="523.667" y="70.6667" type="line"/>
      <point x="466.333" y="13.3333" type="line"/>
      <point x="284" y="196.333" type="line"/>
      <point x="102" y="13.3333" type="line"/>
    </contour>
  </outline>
</glyph>
<glyph name="Oslash" format="2">
  <advance width="759"/>
  <unicode hex="00D8"/>
  <outline>
    <component base="O"/>
    <contour>
      <point x="547.94" y="620" type="line"/>
      <point x="626.333" y="736" type="line"/>
      <point x="676" y="736" type="line"/>
      <point x="582.273" y="597.667" type="line"/>
    </contour>
    <contour>
      <point x="202.238" y="114.686" type="line"/>
      <point x="528.516" y="592.437" type="line"/>
      <point x="550.183" y="550.771" type="line"/>
      <point x="223.238" y="71.6864" type="line"/>
    </contour>
    <contour>
      <point x="72.6667" y="-76" type="line"/>
      <point x="174.173" y="72.5722" type="line"/>
      <point x="208.506" y="50.2389" type="line"/>
      <point x="122.333" y="-76" type="line"/>
    </contour>
  </outline>
</glyph>
<glyph name="Thorn" format="2">
  <advance width="593"/>
  <unicode hex="00DE"/>
  <outline>
    <component base="I"/>
    <contour>
      <point x="231" y="170" type="line"/>
      <point x="260.364" y="165.514"/>
      <point x="290.862" y="163.617"/>
      <point x="318.077" y="163.617" type="curve" smooth="yes"/>
      <point x="507.246" y="163.617"/>
      <point x="589.667" y="255.789"/>
      <point x="589.667" y="361.003" type="curve" smooth="yes"/>
      <point x="589.667" y="475.855"/>
      <point x="494.333" y="541.279"/>
      <point x="321.667" y="541.333" type="curve" smooth="yes"/>
      <point x="230.333" y="541.349" type="line"/>
      <point x="230.333" y="470.297" type="line"/>
      <point x="251" y="470.513" type="line"/>
      <point x="251" y="494.631"/>
      <point x="264.667" y="505.333"/>
      <point x="299.531" y="505.333" type="curve" smooth="yes"/>
      <point x="396.333" y="505.333"/>
      <point x="438.667" y="460.459"/>
      <point x="438.667" y="356.388" type="curve" smooth="yes"/>
      <point x="438.667" y="249.94"/>
      <point x="395.114" y="202.698"/>
      <point x="287.815" y="202.698" type="curve" smooth="yes"/>
      <point x="268.778" y="202.698"/>
      <point x="248.304" y="204.314"/>
      <point x="231" y="207.016" type="curve"/>
    </contour>
  </outline>
</glyph>
<glyph name="germandbls" format="2">
  <advance width="537"/>
  <unicode hex="00DF"/>
  <outline>
    <contour>
      <point x="16.6667" y="0" type="line"/>
      <point x="16.6667" y="21" type="line"/>
      <point x="62" y="27"/>
      <point x="71" y="37.6667"/>
      <point x="71" y="86" type="curve" smooth="yes"/>
      <point x="71" y="488.914" type="line" smooth="yes"/>
      <point x="71" y="600.262"/>
      <point x="140.026" y="688.333"/>
      <point x="268.429" y="688.333" type="curve" smooth="yes"/>
      <point x="379" y="688.333"/>
      <point x="457.667" y="623.707"/>
      <point x="457.667" y="533.685" type="curve" smooth="yes"/>
      <point x="457.667" y="461.158"/>
      <point x="407.158" y="412.143"/>
      <point x="306.862" y="387.342" type="curve"/>
      <point x="424.563" y="367.927"/>
      <point x="500.667" y="302.558"/>
      <point x="500.667" y="189.844" type="curve" smooth="yes"/>
      <point x="500.667" y="79"/>
      <point x="425.77" y="-11"/>
      <point x="322.766" y="-11" type="curve" smooth="yes"/>
      <point x="290.717" y="-11"/>
      <point x="268.941" y="-0.678454"/>
      <point x="242.877" y="14.9874" type="curve"/>
      <point x="265.338" y="47.5368" type="line"/>
      <point x="277.152" y="30.3227"/>
      <point x="290.086" y="22"/>
      <point x="308.927" y="22" type="curve" smooth="yes"/>
      <point x="354.75" y="22"/>
      <point x="372" y="63.6667"/>
      <point x="372" y="181.561" type="curve" smooth="yes"/>
      <point x="372" y="287.646"/>
      <point x="331.963" y="351.4"/>
      <point x="258.718" y="367.366" type="curve"/>
      <point x="258.718" y="400.661" type="line"/>
      <point x="317.034" y="408.518"/>
      <point x="336" y="438.73"/>
      <point x="336" y="520.558" type="curve" smooth="yes"/>
      <point x="336" y="616.73"/>
      <point x="310.882" y="660"/>
      <point x="260.352" y="660" type="curve" smooth="yes"/>
      <point x="216.785" y="660"/>
      <point x="191.667" y="628.051"/>
      <point x="191.667" y="573.131" type="curve" smooth="yes"/>
      <point x="191.667" y="0" type="line"/>
    </contour>
  </outline>
</glyph>
<glyph name="eth" format="2">
  <advance width="500"/>
  <unicode hex="00F0"/>
  <outline>
    <contour>
      <point x="26.3333" y="226" type="curve" smooth="yes"/>
      <point x="26.3333" y="361.333"/>
      <point x="118" y="468.667"/>
      <point x="247.667" y="468.667" type="curve" smooth="yes"/>
      <point x="292" y="468.667"/>
      <point x="319.333" y="453.333"/>
      <point x="348" y="422.333" type="curve"/>
      <point x="350" y="425" type="line"/>
      <point x="333.667" y="484.667"/>
      <point x="303.667" y="532"/>
      <point x="260.667" y="574.333" type="curve"/>
      <point x="146.333" y="515.333" type="line"/>
      <point x="103.333" y="546" type="line"/>
      <point x="221.667" y="606.667" type="line"/>
      <point x="180" y="637"/>
      <point x="138" y="655.667"/>
      <point x="88.6667" y="664" type="curve"/>
      <point x="133.333" y="688.333" type="line"/>
      <point x="191.667" y="683"/>
      <point x="242.333" y="669"/>
      <point x="290.667" y="642" type="curve"/>
      <point x="382.333" y="689.333" type="line"/>
      <point x="426" y="659.333" type="line"/>
      <point x="334.333" y="612" type="line"/>
      <point x="435.85" y="528.2"/>
      <point x="474.333" y="419.633"/>
      <point x="474.333" y="293.458" type="curve" smooth="yes"/>
      <point x="474.333" y="116.333"/>
      <point x="396.333" y="-12.6667"/>
      <point x="252.233" y="-12.6667" type="curve" smooth="yes"/>
      <point x="120.667" y="-12.6667"/>
      <point x="26.3333" y="90.6667"/>
    </contour>
    <contour>
      <point x="154.333" y="240.667" type="curve" smooth="yes"/>
      <point x="154.333" y="112.866"/>
      <point x="178.001" y="17.3333"/>
      <point x="256.443" y="17.3333" type="curve" smooth="yes"/>
      <point x="325.667" y="17.3333"/>
      <point x="346.333" y="87.3333"/>
      <point x="346.333" y="216.974" type="curve" smooth="yes"/>
      <point x="346.333" y="353"/>
      <point x="322.333" y="438.667"/>
      <point x="245.82" y="438.667" type="curve" smooth="yes"/>
      <point x="178.667" y="438.667"/>
      <point x="154.333" y="375.667"/>
    </contour>
  </outline>
</glyph>
<glyph name="divide" format="2">
  <advance width="568"/>
  <unicode hex="00F7"/>
  <outline>
    <contour>
      <point x="32" y="212.667" type="line"/>
      <point x="32" y="293.333" type="line"/>
      <point x="536" y="293.333" type="line"/>
      <point x="536" y="212.667" type="line"/>
    </contour>
    <contour>
      <point x="215" y="46" type="curve" smooth="yes"/>
      <point x="215" y="83"/>
      <point x="246.667" y="115"/>
      <point x="284" y="115" type="curve" smooth="yes"/>
      <point x="321.333" y="115"/>
      <point x="354" y="83"/>
      <point x="354" y="46" type="curve" smooth="yes"/>
      <point x="354" y="9.66667"/>
      <point x="320.667" y="-24"/>
      <point x="284.333" y="-24" type="curve" smooth="yes"/>
      <point x="246.667" y="-24"/>
      <point x="215" y="8.33333"/>
    </contour>
    <contour>
      <point x="215" y="460.333" type="curve" smooth="yes"/>
      <point x="215" y="497.333"/>
      <point x="247.333" y="530"/>
      <point x="284" y="530" type="curve" smooth="yes"/>
      <point x="321.333" y="530"/>
      <point x="354" y="497.333"/>
      <point x="354" y="460.333" type="curve" smooth="yes"/>
      <point x="354" y="424"/>
      <point x="321.333" y="391"/>
      <point x="284.333" y="391" type="curve" smooth="yes"/>
      <point x="246.667" y="391"/>
      <point x="215" y="422.667"/>
    </contour>
  </outline>
</glyph>
<glyph name="Dcroat" format="2">
  <advance width="722"/>
  <unicode hex="0110"/>
  <outline>
    <contour>
      <point x="9.33333" y="217.333" type="line"/>
      <point x="9.33333" y="255" type="line"/>
      <point x="48.2854" y="255.667"/>
      <point x="84.5946" y="261.333"/>
      <point x="99.3333" y="285" type="curve"/>
      <point x="99.3333" y="494.333" type="line"/>
      <point x="94.056" y="525"/>
      <point x="66.3746" y="535"/>
      <point x="16.3333" y="539" type="curve"/>
      <point x="16.3333" y="570.333" type="line"/>
      <point x="247.333" y="570.333" type="line"/>
      <point x="401.333" y="583.649"/>
      <point x="494.667" y="539.793"/>
      <point x="494.667" y="414.333" type="curve" smooth="yes"/>
      <point x="494.667" y="301"/>
      <point x="394" y="213"/>
      <point x="225.333" y="214.333" type="curve"/>
      <point x="14.6667" y="220.667" type="line"/>
      <point x="104.667" y="237.333" type="line"/>
      <point x="216" y="238.667"/>
      <point x="293" y="221.333"/>
      <point x="293" y="170.333" type="curve" smooth="yes"/>
      <point x="293" y="126.337"/>
      <point x="234" y="188.854"/>
      <point x="164.667" y="217.333" type="curve"/>
    </contour>
    <contour>
      <point x="240.667" y="88" type="line" smooth="yes"/>
      <point x="240.667" y="44.6667"/>
      <point x="257" y="35.6667"/>
      <point x="298" y="35.6667" type="curve" smooth="yes"/>
      <point x="341.718" y="35.6667"/>
      <point x="374.995" y="51"/>
      <point x="398" y="81.6667" type="curve"/>
      <point x="482.667" y="111.667"/>
      <point x="536" y="197.667"/>
      <point x="536" y="329.333" type="curve"/>
      <point x="535.87" y="385.333"/>
      <point x="526.092" y="434"/>
      <point x="508" y="469.333" type="curve"/>
      <point x="485.333" y="545"/>
      <point x="442.667" y="592.667"/>
      <point x="373" y="613" type="curve"/>
      <point x="332.333" y="633"/>
      <point x="293.667" y="632.333"/>
      <point x="259.667" y="625" type="curve"/>
      <point x="246" y="621.667"/>
      <point x="240.667" y="614.333"/>
      <point x="240.667" y="592" type="curve" smooth="yes"/>
      <point x="240.667" y="368.333" type="line"/>
      <point x="365.333" y="368.333" type="line"/>
      <point x="365.333" y="322.333" type="line"/>
      <point x="240.667" y="322.333" type="line"/>
    </contour>
  </outline>
</glyph>
<glyph name="dcroat" format="2">
  <advance width="537"/>
  <unicode hex="0111"/>
  <outline>
    <component base="d"/>
    <contour>
      <point x="235.667" y="539" type="line"/>
      <point x="235.667" y="579.667" type="line"/>
      <point x="522.667" y="579.667" type="line"/>
      <point x="522.667" y="539" type="line"/>
    </contour>
  </outline>
</glyph>
<glyph name="dotlessi" format="2">
  <advance width="278"/>
  <unicode hex="0131"/>
  <outline>
    <contour>
      <point x="16" y="0" type="line"/>
      <point x="16" y="21" type="line"/>
      <point x="69.6667" y="29.6667"/>
      <point x="77.6667" y="38.6667"/>
      <point x="77.6667" y="90" type="curve" smooth="yes"/>
      <point x="77.6667" y="381.667" type="line" smooth="yes"/>
      <point x="77.6667" y="420.194"/>
      <point x="64.1306" y="431.821"/>
      <point x="17.3333" y="439.667" type="curve"/>
      <point x="17.3333" y="460.667" type="line"/>
      <point x="198.333" y="460.667" type="line"/>
      <point x="198.333" y="88" type="line" smooth="yes"/>
      <point x="198.333" y="38.6667"/>
      <point x="209" y="26"/>
      <point x="254.333" y="21" type="curve"/>
      <point x="254.333" y="0" type="line"/>
    </contour>
  </outline>
</glyph>
<glyph name="kgreenlandic" format="2">
  <advance width="540"/>
  <unicode hex="0138"/>
  <outline>
    <contour>
      <point x="19.6667" y="0" type="line"/>
      <point x="19.6667" y="21" type="line"/>
      <point x="60.6667" y="24.5"/>
      <point x="76.6667" y="40"/>
      <point x="76.6667" y="79.3333" type="curve" smooth="yes"/>
      <point x="76.6667" y="379.333" type="line" smooth="yes"/>
      <point x="76.6667" y="417.333"/>
      <point x="64.6667" y="431"/>
      <point x="20.3333" y="436.667" type="curve"/>
      <point x="20.3333" y="457.667" type="line"/>
      <point x="257" y="457.667" type="line"/>
      <point x="257" y="436.667" type="line"/>
      <point x="207.899" y="429.738"/>
      <point x="197.333" y="422.592"/>
      <point x="197.333" y="378" type="curve" smooth="yes"/>
      <point x="197.333" y="250.667" type="line"/>
      <point x="328.333" y="376.667" type="line" smooth="yes"/>
      <point x="340.333" y="388"/>
      <point x="350" y="404.667"/>
      <point x="350" y="414.319" type="curve" smooth="yes"/>
      <point x="350" y="428.45"/>
      <point x="330.392" y="434.651"/>
      <point x="294" y="437.667" type="curve"/>
      <point x="294" y="457.667" type="line"/>
      <point x="504.667" y="457.667" type="line"/>
      <point x="504.667" y="437.47" type="line"/>
      <point x="498.585" y="437.47" type="line" smooth="yes"/>
      <point x="446.087" y="437.47"/>
      <point x="405.731" y="407.365"/>
      <point x="340.191" y="341.301" type="curve" smooth="yes"/>
      <point x="297" y="299" type="line"/>
      <point x="477.333" y="55.6667" type="line"/>
      <point x="497.333" y="30.6667"/>
      <point x="511" y="22.3333"/>
      <point x="533" y="21.3333" type="curve"/>
      <point x="533" y="0.333333" type="line"/>
      <point x="304.333" y="0.333333" type="line"/>
      <point x="304.333" y="21.3333" type="line"/>
      <point x="326.402" y="22"/>
      <point x="345.667" y="27.1414"/>
      <point x="345.667" y="38.2995" type="curve" smooth="yes"/>
      <point x="345.667" y="45.6667"/>
      <point x="336.99" y="59.5686"/>
      <point x="322.667" y="80" type="curve"/>
      <point x="214.241" y="226.118" type="line"/>
      <point x="197.333" y="208.667" type="line"/>
      <point x="197.333" y="79.3333" type="line" smooth="yes"/>
      <point x="197.333" y="34.592"/>
      <point x="209.156" y="27.2025"/>
      <point x="257" y="21" type="curve"/>
      <point x="257" y="0" type="line"/>
    </contour>
  </outline>
</glyph>
<glyph name="eng" format="2">
  <advance width="537"/>
  <unicode hex="014B"/>
  <outline>
    <contour>
      <point x="20" y="0" type="line"/>
      <point x="20" y="21" type="line"/>
      <point x="67" y="28.3333"/>
      <point x="76" y="38"/>
      <point x="76" y="79.3333" type="curve" smooth="yes"/>
      <point x="76" y="379.667" type="line" smooth="yes"/>
      <point x="76" y="419.436"/>
      <point x="61.6667" y="432.719"/>
      <point x="19.3333" y="439" type="curve"/>
      <point x="19.3333" y="460.667" type="line"/>
      <point x="195.667" y="460.667" type="line"/>
      <point x="195.667" y="383.667" type="line"/>
      <point x="242.333" y="444.333"/>
      <point x="283.333" y="468.667"/>
      <point x="337.543" y="468.667" type="curve" smooth="yes"/>
      <point x="418" y="468.667"/>
      <point x="468" y="413.333"/>
      <point x="468" y="324.667" type="curve" smooth="yes"/>
      <point x="468" y="1.33333" type="line" smooth="yes"/>
      <point x="468" y="-124.131"/>
      <point x="425.45" y="-208"/>
      <point x="303.677" y="-208" type="curve" smooth="yes"/>
      <point x="234.994" y="-208"/>
      <point x="187.069" y="-175.245"/>
      <point x="187.069" y="-126.538" type="curve" smooth="yes"/>
      <point x="187.069" y="-91.292"/>
      <point x="212.013" y="-69.3333"/>
      <point x="242.153" y="-69.3333" type="curve" smooth="yes"/>
      <point x="270.586" y="-69.3333"/>
      <point x="295.636" y="-88.9413"/>
      <point x="295.636" y="-115.63" type="curve" smooth="yes"/>
      <point x="295.636" y="-126.771"/>
      <point x="291.195" y="-137.211"/>
      <point x="283.328" y="-149.973" type="curve" smooth="yes"/>
      <point x="278.712" y="-157.715"/>
      <point x="276.247" y="-163.19"/>
      <point x="276.25" y="-167.064" type="curve" smooth="yes"/>
      <point x="276.253" y="-174.275"/>
      <point x="285.395" y="-179.214"/>
      <point x="299.333" y="-179.214" type="curve" smooth="yes"/>
      <point x="334.426" y="-179.214"/>
      <point x="347.333" y="-125.816"/>
      <point x="347.333" y="-79" type="curve" smooth="yes"/>
      <point x="347.333" y="318" type="line" smooth="yes"/>
      <point x="347.333" y="377.333"/>
      <point x="328" y="405.667"/>
      <point x="286.828" y="405.667" type="curve" smooth="yes"/>
      <point x="254.016" y="405.667"/>
      <point x="224.189" y="386.497"/>
      <point x="196.667" y="348" type="curve"/>
      <point x="196.667" y="77.3333" type="line" smooth="yes"/>
      <point x="196.667" y="39.3333"/>
      <point x="209.667" y="25.6667"/>
      <point x="251.333" y="21" type="curve"/>
      <point x="251.333" y="0" type="line"/>
    </contour>
  </outline>
</glyph>
<glyph name="OE" format="2">
  <advance width="963"/>
  <unicode hex="0152"/>
  <outline>
    <contour>
      <point x="25" y="324.715" type="curve" smooth="yes"/>
      <point x="25" y="536.52"/>
      <point x="151.333" y="678.333"/>
      <point x="360" y="678.333" type="curve"/>
      <point x="523" y="671" type="line"/>
      <point x="906.333" y="671" type="line"/>
      <point x="906.333" y="490.528" type="line"/>
      <point x="881.333" y="490.528" type="line"/>
      <point x="860.834" y="620.203"/>
      <point x="801.899" y="636.589"/>
      <point x="679.46" y="636.984" type="curve"/>
      <point x="653.667" y="637" type="line"/>
      <point x="618.892" y="637"/>
      <point x="595" y="635.645"/>
      <point x="595" y="611.874" type="curve" smooth="yes"/>
      <point x="595" y="365.904" type="line"/>
      <point x="634.667" y="366" type="line"/>
      <point x="734.347" y="367.024"/>
      <point x="753" y="382.435"/>
      <point x="772.667" y="497.718" type="curve"/>
      <point x="795" y="497.718" type="line"/>
      <point x="795" y="192.964" type="line"/>
      <point x="772.667" y="192.964" type="line"/>
      <point x="760.333" y="295.497"/>
      <point x="742.368" y="328.308"/>
      <point x="646" y="331.667" type="curve"/>
      <point x="595" y="331.981" type="line"/>
      <point x="595.333" y="81.8814" type="line"/>
      <point x="595.333" y="43.0403"/>
      <point x="609.333" y="34.3333"/>
      <point x="660.333" y="34.3333" type="curve"/>
      <point x="708.315" y="35.0276" type="line" smooth="yes"/>
      <point x="824.501" y="35.9379"/>
      <point x="874.862" y="95.9124"/>
      <point x="923.333" y="195.787" type="curve"/>
      <point x="949.333" y="195.787" type="line"/>
      <point x="906.667" y="-0.333333" type="line"/>
      <point x="503.333" y="-0.333333" type="line"/>
      <point x="338.762" y="-5" type="line"/>
      <point x="145.071" y="-5"/>
      <point x="25" y="130.513"/>
    </contour>
    <contour>
      <point x="175.333" y="321.609" type="curve" smooth="yes"/>
      <point x="175.333" y="172.9"/>
      <point x="205.05" y="28.3333"/>
      <point x="354.333" y="28.3333" type="curve" smooth="yes"/>
      <point x="445.845" y="28.3333"/>
      <point x="458.333" y="97.2732"/>
      <point x="458.333" y="184.459" type="curve" smooth="yes"/>
      <point x="458.333" y="511.664" type="line" smooth="yes"/>
      <point x="458.333" y="589.102"/>
      <point x="439.115" y="645.333"/>
      <point x="356.332" y="645.333" type="curve" smooth="yes"/>
      <point x="240.333" y="645.333"/>
      <point x="175.333" y="534.51"/>
    </contour>
  </outline>
</glyph>
<glyph name="oe" format="2">
  <advance width="722"/>
  <unicode hex="0153"/>
  <outline>
    <contour>
      <point x="24.6667" y="232.129" type="curve" smooth="yes"/>
      <point x="24.6667" y="375.259"/>
      <point x="107.411" y="468.667"/>
      <point x="239.275" y="468.667" type="curve" smooth="yes"/>
      <point x="299.674" y="468.667"/>
      <point x="344.81" y="448.318"/>
      <point x="376.667" y="409.875" type="curve"/>
      <point x="407.848" y="446.881"/>
      <point x="455.215" y="468.667"/>
      <point x="513.189" y="468.667" type="curve" smooth="yes"/>
      <point x="635.577" y="468.667"/>
      <point x="681.944" y="373.523"/>
      <point x="686.667" y="255.667" type="curve"/>
      <point x="435.851" y="255.667" type="line"/>
      <point x="435.851" y="234.339" type="line" smooth="yes"/>
      <point x="435.851" y="120.328"/>
      <point x="475.384" y="57.6667"/>
      <point x="554.286" y="57.6667" type="curve" smooth="yes"/>
      <point x="598.739" y="57.6667"/>
      <point x="634.386" y="78.9202"/>
      <point x="677" y="131.667" type="curve"/>
      <point x="694" y="119" type="line"/>
      <point x="633.894" y="21.0595"/>
      <point x="585.843" y="-12.6667"/>
      <point x="508.465" y="-12.6667" type="curve" smooth="yes"/>
      <point x="449.763" y="-12.6667"/>
      <point x="411.16" y="7.93301"/>
      <point x="383" y="51" type="curve"/>
      <point x="346.029" y="7.72426"/>
      <point x="298.718" y="-12.6667"/>
      <point x="241.208" y="-12.6667" type="curve" smooth="yes"/>
      <point x="110.833" y="-12.6667"/>
      <point x="24.6667" y="85.619"/>
    </contour>
    <contour>
      <point x="151.333" y="236.693" type="curve" smooth="yes"/>
      <point x="151.333" y="91.6667"/>
      <point x="171.333" y="16"/>
      <point x="234.554" y="16" type="curve" smooth="yes"/>
      <point x="306.469" y="16"/>
      <point x="319.667" y="111.671"/>
      <point x="319.667" y="231.666" type="curve" smooth="yes"/>
      <point x="319.667" y="331.086"/>
      <point x="304.854" y="438.667"/>
      <point x="227.995" y="438.667" type="curve" smooth="yes"/>
      <point x="169.333" y="438.667"/>
      <point x="151.333" y="374.494"/>
    </contour>
    <contour>
      <point x="435.851" y="290.333" type="line"/>
      <point x="573.667" y="290.333" type="line"/>
      <point x="573.667" y="336.364" type="line" smooth="yes"/>
      <point x="573.667" y="403.278"/>
      <point x="548.667" y="438.667"/>
      <point x="506.347" y="438.667" type="curve" smooth="yes"/>
      <point x="462.978" y="438.667"/>
      <point x="435.851" y="399.8"/>
      <point x="435.851" y="330.211" type="curve" smooth="yes"/>
    </contour>
  </outline>
</glyph>
<glyph name="longs" format="2">
  <advance width="333"/>
  <unicode hex="017F"/>
  <outline>
    <contour>
      <point x="16" y="0" type="line"/>
      <point x="16" y="21" type="line"/>
      <point x="70.6667" y="25.6667"/>
      <point x="81.6667" y="37.6667"/>
      <point x="81.6667" y="90.6667" type="curve" smooth="yes"/>
      <point x="81.6667" y="417.333" type="line"/>
      <point x="16.3333" y="417.333" type="line"/>
      <point x="16.3333" y="457.333" type="line"/>
      <point x="81.6667" y="457.333" type="line"/>
      <point x="81.8259" y="581.38"/>
      <point x="104.032" y="688.333"/>
      <point x="239.52" y="688.333" type="curve" smooth="yes"/>
      <point x="313.446" y="688.333"/>
      <point x="365.311" y="652.333"/>
      <point x="365.311" y="601" type="curve" smooth="yes"/>
      <point x="365.311" y="568.667"/>
      <point x="343.319" y="546"/>
      <point x="311.146" y="546" type="curve" smooth="yes"/>
      <point x="281.242" y="546"/>
      <point x="260.131" y="565.686"/>
      <point x="260.131" y="592.223" type="curve" smooth="yes"/>
      <point x="260.131" y="616.608"/>
      <point x="277.51" y="629.117"/>
      <point x="277.791" y="642.754" type="curve"/>
      <point x="277.791" y="652.137"/>
      <point x="268.842" y="658.333"/>
      <point x="251.883" y="658.333" type="curve" smooth="yes"/>
      <point x="218.333" y="658.333"/>
      <point x="202.333" y="633.333"/>
      <point x="202.333" y="577.333" type="curve" smooth="yes"/>
      <point x="202.333" y="103.333" type="line" smooth="yes"/>
      <point x="202.333" y="35"/>
      <point x="214" y="22"/>
      <point x="288" y="21" type="curve"/>
      <point x="288" y="0" type="line"/>
    </contour>
  </outline>
</glyph>
<glyph name="uni018F" format="2">
  <advance width="759"/>
  <unicode hex="018F"/>
  <outline>
    <contour>
      <point x="35.6667" y="306" type="curve"/>
      <point x="568" y="306" type="line"/>
      <point x="568.333" y="313.638"/>
      <point x="568.667" y="326.698"/>
      <point x="568.667" y="334.333" type="curve" smooth="yes"/>
      <point x="568.667" y="472"/>
      <point x="525" y="639"/>
      <point x="356.333" y="639" type="curve" smooth="yes"/>
      <point x="259.667" y="639"/>
      <point x="187.667" y="591.667"/>
      <point x="123.667" y="523.333" type="curve"/>
      <point x="97.6667" y="546" type="line"/>
      <point x="168.667" y="632.333"/>
      <point x="262.333" y="686"/>
      <point x="376.333" y="686" type="curve" smooth="yes"/>
      <point x="584" y="686"/>
      <point x="724.667" y="540.667"/>
      <point x="724.667" y="334" type="curve" smooth="yes"/>
      <point x="724.667" y="131.333"/>
      <point x="584.333" y="-17.3333"/>
      <point x="379.667" y="-17.3333" type="curve" smooth="yes"/>
      <point x="188.333" y="-17.3333"/>
      <point x="48.3333" y="115.333"/>
    </contour>
    <contour>
      <point x="176.667" y="270.667" type="line"/>
      <point x="190.333" y="156.667"/>
      <point x="244.333" y="16.6667"/>
      <point x="379.667" y="16.6667" type="curve" smooth="yes"/>
      <point x="514.333" y="16.6667"/>
      <point x="556.667" y="160.667"/>
      <point x="566.333" y="270.667" type="curve"/>
    </contour>
  </outline>
</glyph>
<glyph name="florin" format="2">
  <advance width="500"/>
  <unicode hex="0192"/>
  <outline>
    <contour>
      <point x="2.33333" y="-93.4764" type="curve" smooth="yes"/>
      <point x="2.33333" y="-60"/>
      <point x="23.3333" y="-38.3333"/>
      <point x="53.5495" y="-38.3333" type="curve" smooth="yes"/>
      <point x="82.3333" y="-38.3333"/>
      <point x="101.667" y="-57.8482"/>
      <point x="101.667" y="-83.3454" type="curve" smooth="yes"/>
      <point x="101.667" y="-99.669"/>
      <point x="93.6883" y="-113.875"/>
      <point x="84.6667" y="-123.333" type="curve"/>
      <point x="85.3208" y="-131.225"/>
      <point x="95" y="-138.333"/>
      <point x="107.18" y="-138.333" type="curve" smooth="yes"/>
      <point x="139.333" y="-138.333"/>
      <point x="162.97" y="-91.2286"/>
      <point x="170.333" y="-5" type="curve"/>
      <point x="200" y="388" type="line"/>
      <point x="84.6667" y="388" type="line"/>
      <point x="88" y="429" type="line"/>
      <point x="204" y="429" type="line"/>
      <point x="228.808" y="580.572"/>
      <point x="285.538" y="696"/>
      <point x="394.519" y="696" type="curve" smooth="yes"/>
      <point x="453.976" y="696"/>
      <point x="495.333" y="663.397"/>
      <point x="495.333" y="618.564" type="curve" smooth="yes"/>
      <point x="495.333" y="587.358"/>
      <point x="475.108" y="565.333"/>
      <point x="442.907" y="565.333" type="curve" smooth="yes"/>
      <point x="414.115" y="565.333"/>
      <point x="396" y="582.704"/>
      <point x="396" y="608.051" type="curve" smooth="yes"/>
      <point x="396" y="622.776"/>
      <point x="402.171" y="640.23"/>
      <point x="412.333" y="651.714" type="curve"/>
      <point x="410.537" y="659.278"/>
      <point x="401.887" y="665.667"/>
      <point x="389.2" y="665.667" type="curve" smooth="yes"/>
      <point x="345.949" y="665.667"/>
      <point x="327.667" y="592.778"/>
      <point x="322.667" y="514.171" type="curve" smooth="yes"/>
      <point x="316.667" y="429" type="line"/>
      <point x="440" y="429" type="line"/>
      <point x="436.667" y="388" type="line"/>
      <point x="315.333" y="388" type="line"/>
      <point x="302.324" y="222.77" type="line" smooth="yes"/>
      <point x="292.61" y="95.0081"/>
      <point x="257.695" y="-166.333"/>
      <point x="93.303" y="-166.333" type="curve" smooth="yes"/>
      <point x="37.3333" y="-166.333"/>
      <point x="2.33333" y="-136.667"/>
    </contour>
  </outline>
</glyph>
<glyph name="Ohorn" format="2">
  <advance width="789"/>
  <unicode hex="01A0"/>
  <outline>
    <component base="O"/>
    <contour>
      <point x="570.667" y="630.333" type="line" smooth="yes"/>
      <point x="607.389" y="630.433"/>
      <point x="656.667" y="637.679"/>
      <point x="656.667" y="668.229" type="curve" smooth="yes"/>
      <point x="656.667" y="679.966"/>
      <point x="649.297" y="688.398"/>
      <point x="641.054" y="697.82" type="curve" smooth="yes"/>
      <point x="628.635" y="712.135"/>
      <point x="618.667" y="725.091"/>
      <point x="618.667" y="747.092" type="curve" smooth="yes"/>
      <point x="618.667" y="786"/>
      <point x="650.333" y="805.667"/>
      <point x="680.517" y="805.667" type="curve" smooth="yes"/>
      <point x="721.333" y="805.667"/>
      <point x="744" y="770.333"/>
      <point x="744" y="728.656" type="curve" smooth="yes"/>
      <point x="744" y="657"/>
      <point x="676.995" y="610.884"/>
      <point x="596.667" y="610.333" type="curve" smooth="yes"/>
      <point x="550.161" y="610.017" type="line"/>
      <point x="549.756" y="630.437" type="line"/>
    </contour>
  </outline>
</glyph>
<glyph name="Uhorn" format="2">
  <advance width="773"/>
  <unicode hex="01AF"/>
  <outline>
    <contour>
      <point x="15.3333" y="648.333" type="curve"/>
      <point x="15.3333" y="671.333" type="line"/>
      <point x="335" y="671.333" type="line"/>
      <point x="335" y="648.333" type="line"/>
      <point x="258.587" y="643.927"/>
      <point x="240" y="635.262"/>
      <point x="240" y="557" type="curve" smooth="yes"/>
      <point x="240" y="227.667" type="line" smooth="yes"/>
      <point x="240" y="97.1318"/>
      <point x="281.44" y="30"/>
      <point x="398.118" y="30" type="curve" smooth="yes"/>
      <point x="524.938" y="30"/>
      <point x="575" y="104.247"/>
      <point x="575" y="246.333" type="curve" smooth="yes"/>
      <point x="575" y="539.667" type="line" smooth="yes"/>
      <point x="575" y="621.667"/>
      <point x="556.333" y="642.333"/>
      <point x="478.333" y="648.333" type="curve"/>
      <point x="478.333" y="671.333" type="line"/>
      <point x="631" y="671.333" type="line" smooth="yes"/>
      <point x="662.333" y="671.333"/>
      <point x="696.333" y="674.667"/>
      <point x="696.333" y="699" type="curve" smooth="yes"/>
      <point x="696.333" y="710.333"/>
      <point x="691.999" y="716.666"/>
      <point x="685.171" y="722.495" type="curve" smooth="yes"/>
      <point x="676.128" y="730.185"/>
      <point x="658.667" y="749"/>
      <point x="658.667" y="776.927" type="curve" smooth="yes"/>
      <point x="658.667" y="810.359"/>
      <point x="683.995" y="834.333"/>
      <point x="719.682" y="834.333" type="curve" smooth="yes"/>
      <point x="758.604" y="834.333"/>
      <point x="785.333" y="801.929"/>
      <point x="785.333" y="756.012" type="curve" smooth="yes"/>
      <point x="785.333" y="695.161"/>
      <point x="745.951" y="660.53"/>
      <point x="697.112" y="653.076" type="curve" smooth="yes"/>
      <point x="647.16" y="645.278"/>
      <point x="619" y="607.628"/>
      <point x="619" y="539.667" type="curve" smooth="yes"/>
      <point x="619" y="249.333" type="line" smooth="yes"/>
      <point x="619" y="75.9743"/>
      <point x="541.655" y="-17.3333"/>
      <point x="360.631" y="-17.3333" type="curve" smooth="yes"/>
      <point x="197.504" y="-17.3333"/>
      <point x="100" y="59.987"/>
      <point x="100" y="230.333" type="curve" smooth="yes"/>
      <point x="100" y="557" type="line" smooth="yes"/>
      <point x="100" y="629.333"/>
      <point x="88.3333" y="641.667"/>
    </contour>
  </outline>
</glyph>
<glyph name="uni01C3" format="2">
  <advance width="333"/>
  <unicode hex="01C3"/>
  <outline>
    <contour>
      <point x="130" y="43" type="curve" smooth="yes"/>
      <point x="130" y="74"/>
      <point x="153" y="98"/>
      <point x="183" y="98" type="curve" smooth="yes"/>
      <point x="213" y="98"/>
      <point x="237" y="73"/>
      <point x="237" y="43" type="curve" smooth="yes"/>
      <point x="237" y="13"/>
      <point x="214" y="-9"/>
      <point x="182" y="-9" type="curve" smooth="yes"/>
      <point x="152" y="-9"/>
      <point x="130" y="13"/>
    </contour>
    <contour>
      <point x="130" y="599" type="curve" smooth="yes"/>
      <point x="130" y="646"/>
      <point x="150" y="676"/>
      <point x="183" y="676" type="curve" smooth="yes"/>
      <point x="217" y="676"/>
      <point x="236" y="648"/>
      <point x="236" y="596" type="curve" smooth="yes"/>
      <point x="236" y="582"/>
      <point x="235" y="571"/>
      <point x="234" y="559" type="curve"/>
      <point x="189" y="176" type="line"/>
      <point x="176" y="176" type="line"/>
      <point x="167" y="284" type="line" smooth="yes"/>
      <point x="165" y="309"/>
      <point x="159" y="362"/>
      <point x="150" y="422" type="curve" smooth="yes"/>
      <point x="139" y="494"/>
      <point x="130" y="576"/>
    </contour>
  </outline>
</glyph>
<glyph name="uni020A" format="2">
  <advance width="367"/>
  <unicode hex="020A"/>
  <outline>
    <contour>
      <point x="14.6667" y="0" type="line"/>
      <point x="14.6667" y="23" type="line"/>
      <point x="92.6667" y="28.6667"/>
      <point x="109" y="42"/>
      <point x="109" y="100.333" type="curve" smooth="yes"/>
      <point x="109" y="571" type="line" smooth="yes"/>
      <point x="109" y="629.667"/>
      <point x="91" y="643.333"/>
      <point x="14.6667" y="648.333" type="curve"/>
      <point x="14.6667" y="671.333" type="line"/>
      <point x="347" y="671.333" type="line"/>
      <point x="347" y="648.333" type="line"/>
      <point x="269.667" y="645"/>
      <point x="251" y="630"/>
      <point x="251" y="571" type="curve" smooth="yes"/>
      <point x="251" y="100.333" type="line" smooth="yes"/>
      <point x="251" y="41.3333"/>
      <point x="269" y="27.3333"/>
      <point x="347" y="23" type="curve"/>
      <point x="347" y="0" type="line"/>
    </contour>
    <contour>
      <point x="34.6667" y="731.667" type="line"/>
      <point x="35.3333" y="835.667"/>
      <point x="95" y="890.667"/>
      <point x="180.333" y="890.667" type="curve" smooth="yes"/>
      <point x="265.667" y="890.667"/>
      <point x="322.333" y="833.667"/>
      <point x="326.333" y="731.667" type="curve"/>
      <point x="287.667" y="731.667" type="line"/>
      <point x="275" y="790.667"/>
      <point x="241.667" y="820.667"/>
      <point x="181" y="820.667" type="curve" smooth="yes"/>
      <point x="121" y="820.667"/>
      <point x="83.3333" y="792"/>
      <point x="73.3333" y="731.667" type="curve"/>
    </contour>
  </outline>
</glyph>
<glyph name="uni020C" format="2">
  <advance width="759"/>
  <unicode hex="020C"/>
  <outline>
    <contour>
      <point x="34.6667" y="333.333" type="curve" smooth="yes"/>
      <point x="34.6667" y="536.667"/>
      <point x="176.667" y="686"/>
      <point x="382.333" y="686" type="curve" smooth="yes"/>
      <point x="582.667" y="686"/>
      <point x="724.667" y="534.667"/>
      <point x="724.667" y="334" type="curve" smooth="yes"/>
      <point x="724.667" y="131.333"/>
      <point x="584" y="-17.3333"/>
      <point x="379.667" y="-17.3333" type="curve" smooth="yes"/>
      <point x="175.333" y="-17.3333"/>
      <point x="34.6667" y="130.667"/>
    </contour>
    <contour>
      <point x="123" y="872" type="curve" smooth="yes"/>
      <point x="123" y="896"/>
      <point x="140" y="912"/>
      <point x="166.667" y="912" type="curve" smooth="yes"/>
      <point x="184.333" y="912"/>
      <point x="198.667" y="904.333"/>
      <point x="216" y="885.667" type="curve" smooth="yes"/>
      <point x="356.333" y="731.667" type="line"/>
      <point x="305.667" y="731.667" type="line"/>
      <point x="159.667" y="822.667" type="line" smooth="yes"/>
      <point x="131.333" y="840.333"/>
      <point x="123" y="851.333"/>
    </contour>
    <contour>
      <point x="190.667" y="327.667" type="curve" smooth="yes"/>
      <point x="190.667" y="147.667"/>
      <point x="247.667" y="16.6667"/>
      <point x="379.667" y="16.6667" type="curve" smooth="yes"/>
      <point x="511.667" y="16.6667"/>
      <point x="568.667" y="147.667"/>
      <point x="568.667" y="329.667" type="curve" smooth="yes"/>
      <point x="568.667" y="513"/>
      <point x="509.667" y="652"/>
      <point x="381.667" y="652" type="curve" smooth="yes"/>
      <point x="249" y="652"/>
      <point x="190.667" y="516.333"/>
    </contour>
    <contour>
      <point x="308.333" y="872" type="curve" smooth="yes"/>
      <point x="308.333" y="896"/>
      <point x="325.333" y="912"/>
      <point x="352" y="912" type="curve" smooth="yes"/>
      <point x="369.667" y="912"/>
      <point x="384" y="904.333"/>
      <point x="401.333" y="885.667" type="curve" smooth="yes"/>
      <point x="541.667" y="731.667" type="line"/>
      <point x="491" y="731.667" type="line"/>
      <point x="345" y="822.667" type="line" smooth="yes"/>
      <point x="316.667" y="840.333"/>
      <point x="308.333" y="851.333"/>
    </contour>
  </outline>
</glyph>
<glyph name="uni020F" format="2">
  <advance width="500"/>
  <unicode hex="020F"/>
  <outline>
    <contour>
      <point x="26.3333" y="230.667" type="curve" smooth="yes"/>
      <point x="26.3333" y="363.333"/>
      <point x="120.667" y="468.667"/>
      <point x="249" y="468.667" type="curve" smooth="yes"/>
      <point x="381.333" y="468.667"/>
      <point x="474" y="367.667"/>
      <point x="474" y="228.667" type="curve" smooth="yes"/>
      <point x="474" y="94.3333"/>
      <point x="379.333" y="-12.6667"/>
      <point x="250" y="-12.6667" type="curve" smooth="yes"/>
      <point x="117.667" y="-12.6667"/>
      <point x="26.3333" y="92.3333"/>
    </contour>
    <contour>
      <point x="104.667" y="521" type="line"/>
      <point x="105.333" y="625"/>
      <point x="165" y="680"/>
      <point x="250.333" y="680" type="curve" smooth="yes"/>
      <point x="335.667" y="680"/>
      <point x="392.333" y="623"/>
      <point x="396.333" y="521" type="curve"/>
      <point x="357.667" y="521" type="line"/>
      <point x="345" y="580"/>
      <point x="311.667" y="610"/>
      <point x="251" y="610" type="curve" smooth="yes"/>
      <point x="191" y="610"/>
      <point x="153.333" y="581.333"/>
      <point x="143.333" y="521" type="curve"/>
    </contour>
    <contour>
      <point x="154.333" y="234.667" type="curve" smooth="yes"/>
      <point x="154.333" y="108"/>
      <point x="177" y="17.3333"/>
      <point x="254.667" y="17.3333" type="curve" smooth="yes"/>
      <point x="324.667" y="17.3333"/>
      <point x="346" y="87.3333"/>
      <point x="346" y="215" type="curve" smooth="yes"/>
      <point x="346" y="353"/>
      <point x="322.667" y="438.667"/>
      <point x="247" y="438.667" type="curve" smooth="yes"/>
      <point x="177.333" y="438.667"/>
      <point x="154.333" y="376.333"/>
    </contour>
  </outline>
</glyph>
<glyph name="uni0214" format="2">
  <advance width="722"/>
  <unicode hex="0214"/>
  <outline>
    <contour>
      <point x="15.3333" y="648.333" type="curve"/>
      <point x="15.3333" y="671.333" type="line"/>
      <point x="335" y="671.333" type="line"/>
      <point x="335" y="648.333" type="line"/>
      <point x="276.333" y="644.667"/>
      <point x="262" y="638.333"/>
      <point x="254" y="607.667" type="curve"/>
      <point x="244" y="584.837"/>
      <point x="240" y="503.31"/>
      <point x="240" y="450.333" type="curve" smooth="yes"/>
      <point x="240" y="377.706"/>
      <point x="242.333" y="224.421"/>
      <point x="248.333" y="183.667" type="curve"/>
      <point x="257.333" y="77.3333"/>
      <point x="303.667" y="30"/>
      <point x="395.333" y="30" type="curve" smooth="yes"/>
      <point x="499.667" y="30"/>
      <point x="558.333" y="86.3333"/>
      <point x="567.333" y="201" type="curve"/>
      <point x="572.667" y="235.817"/>
      <point x="575" y="377.366"/>
      <point x="575" y="449.667" type="curve" smooth="yes"/>
      <point x="575" y="518.941"/>
      <point x="561.667" y="579.583"/>
      <point x="509.667" y="605.667" type="curve"/>
      <point x="509.667" y="643.576"/>
      <point x="504.333" y="659.42"/>
      <point x="478.333" y="665" type="curve"/>
      <point x="625" y="671.333" type="line"/>
      <point x="702.333" y="654.667" type="line"/>
      <point x="659.667" y="646.425"/>
      <point x="650.333" y="632.435"/>
      <point x="650.333" y="591.667" type="curve"/>
      <point x="623" y="539.992"/>
      <point x="619" y="430.023"/>
      <point x="619" y="336.333" type="curve" smooth="yes"/>
      <point x="619" y="256.396"/>
      <point x="601.667" y="148.027"/>
      <point x="571.667" y="111.333" type="curve"/>
      <point x="543" y="61"/>
      <point x="493.333" y="31"/>
      <point x="436" y="17" type="curve"/>
      <point x="374.333" y="-5.66667"/>
      <point x="306.667" y="-5.33333"/>
      <point x="238.333" y="18" type="curve"/>
      <point x="141" y="47.3333"/>
      <point x="100" y="107.333"/>
      <point x="100" y="230.333" type="curve" smooth="yes"/>
      <point x="100" y="557" type="line" smooth="yes"/>
      <point x="100" y="629.333"/>
      <point x="88.3333" y="641.667"/>
    </contour>
    <contour>
      <point x="127.333" y="872" type="curve" smooth="yes"/>
      <point x="127.333" y="896"/>
      <point x="144.333" y="912"/>
      <point x="171" y="912" type="curve" smooth="yes"/>
      <point x="188.667" y="912"/>
      <point x="203" y="904.333"/>
      <point x="220.333" y="885.667" type="curve" smooth="yes"/>
      <point x="360.667" y="731.667" type="line"/>
      <point x="310" y="731.667" type="line"/>
      <point x="164" y="822.667" type="line" smooth="yes"/>
      <point x="135.667" y="840.333"/>
      <point x="127.333" y="851.333"/>
    </contour>
    <contour>
      <point x="312.667" y="872" type="curve" smooth="yes"/>
      <point x="312.667" y="896"/>
      <point x="329.667" y="912"/>
      <point x="356.333" y="912" type="curve" smooth="yes"/>
      <point x="374" y="912"/>
      <point x="388.333" y="904.333"/>
      <point x="405.667" y="885.667" type="curve" smooth="yes"/>
      <point x="546" y="731.667" type="line"/>
      <point x="495.333" y="731.667" type="line"/>
      <point x="349.333" y="822.667" type="line" smooth="yes"/>
      <point x="321" y="840.333"/>
      <point x="312.667" y="851.333"/>
    </contour>
  </outline>
</glyph>
<glyph name="uni025B" format="2">
  <advance width="441"/>
  <unicode hex="025B"/>
  <outline>
    <contour>
      <point x="37.6667" y="126.333" type="curve" smooth="yes"/>
      <point x="37.6667" y="199.667"/>
      <point x="100" y="236"/>
      <point x="165" y="245.667" type="curve"/>
      <point x="165" y="247" type="line"/>
      <point x="108.333" y="250"/>
      <point x="46.6667" y="284.333"/>
      <point x="46.6667" y="348" type="curve" smooth="yes"/>
      <point x="46.6667" y="438"/>
      <point x="148.333" y="469.667"/>
      <point x="223" y="469.667" type="curve" smooth="yes"/>
      <point x="274.333" y="469.667"/>
      <point x="397.667" y="456.667"/>
      <point x="397.667" y="386.667" type="curve" smooth="yes"/>
      <point x="397.667" y="364.333"/>
      <point x="382" y="342.333"/>
      <point x="358" y="342.333" type="curve" smooth="yes"/>
      <point x="286.667" y="342.333"/>
      <point x="310.667" y="438.333"/>
      <point x="240" y="438.333" type="curve" smooth="yes"/>
      <point x="185" y="438.333"/>
      <point x="173.333" y="390.667"/>
      <point x="173.333" y="345" type="curve" smooth="yes"/>
      <point x="173.333" y="311"/>
      <point x="183.333" y="263.333"/>
      <point x="226" y="263.333" type="curve" smooth="yes"/>
      <point x="255" y="263.333"/>
      <point x="275.667" y="280.667"/>
      <point x="300" y="280.667" type="curve" smooth="yes"/>
      <point x="321" y="280.667"/>
      <point x="336.333" y="268"/>
      <point x="336.333" y="246.333" type="curve" smooth="yes"/>
      <point x="336.333" y="223.667"/>
      <point x="320.333" y="213.333"/>
      <point x="299" y="213.333" type="curve" smooth="yes"/>
      <point x="273.333" y="213.333"/>
      <point x="251.667" y="229.333"/>
      <point x="226" y="229.333" type="curve" smooth="yes"/>
      <point x="180.667" y="229.333"/>
      <point x="166.333" y="169"/>
      <point x="166.333" y="133" type="curve" smooth="yes"/>
      <point x="166.333" y="67.6667"/>
      <point x="202.333" y="30.6667"/>
      <point x="268.667" y="30.6667" type="curve" smooth="yes"/>
      <point x="326.333" y="30.6667"/>
      <point x="370.667" y="67.6667"/>
      <point x="393.333" y="119" type="curve"/>
      <point x="420.333" y="104.667" type="line"/>
      <point x="374.333" y="14.6667"/>
      <point x="310" y="-12"/>
      <point x="212.333" y="-12" type="curve" smooth="yes"/>
      <point x="125.667" y="-12"/>
      <point x="37.6667" y="27.6667"/>
    </contour>
  </outline>
</glyph>
<glyph name="uni02BB" format="2">
  <advance width="333"/>
  <unicode hex="02BB"/>
  <outline>
    <contour>
      <point x="86" y="620.667" type="curve" smooth="yes"/>
      <point x="86" y="693.667"/>
      <point x="130" y="747.333"/>
      <point x="222.667" y="795" type="curve"/>
      <point x="232.333" y="776" type="line"/>
      <point x="168.667" y="736.667"/>
      <point x="139.667" y="697.667"/>
      <point x="139.667" y="663.667" type="curve" smooth="yes"/>
      <point x="139.667" y="654.333"/>
      <point x="145" y="649.667"/>
      <point x="153.667" y="649.667" type="curve"/>
      <point x="154.928" y="649.667"/>
      <point x="160.656" y="650.26"/>
      <point x="163.719" y="651.19" type="curve"/>
      <point x="166.907" y="652.923"/>
      <point x="174.238" y="653.667"/>
      <point x="177.667" y="653.667" type="curve" smooth="yes"/>
      <point x="216" y="653.667"/>
      <point x="242" y="628.667"/>
      <point x="242" y="589.333" type="curve" smooth="yes"/>
      <point x="242" y="548.333"/>
      <point x="213.333" y="521"/>
      <point x="172.333" y="521" type="curve" smooth="yes"/>
      <point x="121.333" y="521"/>
      <point x="86" y="562"/>
    </contour>
  </outline>
</glyph>
<glyph name="apostrophe" format="2">
  <advance width="333"/>
  <unicode hex="02BC"/>
  <outline>
    <contour>
      <point x="87.3333" y="716" type="curve" smooth="yes"/>
      <point x="87.3333" y="757"/>
      <point x="116" y="784.333"/>
      <point x="157" y="784.333" type="curve" smooth="yes"/>
      <point x="208" y="784.333"/>
      <point x="243.333" y="743.333"/>
      <point x="243.333" y="684.667" type="curve" smooth="yes"/>
      <point x="243.333" y="611.667"/>
      <point x="198" y="558"/>
      <point x="106.667" y="521" type="curve"/>
      <point x="97" y="540" type="line"/>
      <point x="159.333" y="566.667"/>
      <point x="189.667" y="603"/>
      <point x="189.667" y="637" type="curve" smooth="yes"/>
      <point x="189.667" y="646.333"/>
      <point x="182.333" y="654.333"/>
      <point x="173.667" y="654.333" type="curve"/>
      <point x="170.392" y="654.236"/>
      <point x="167.414" y="654.531"/>
      <point x="162.319" y="652.843" type="curve"/>
      <point x="159.375" y="652.287"/>
      <point x="154.51" y="651.667"/>
      <point x="151.667" y="651.667" type="curve" smooth="yes"/>
      <point x="113.333" y="651.667"/>
      <point x="87.3333" y="676.667"/>
    </contour>
  </outline>
</glyph>
<glyph name="uni02BD" format="2">
  <advance width="333"/>
  <unicode hex="02BD"/>
  <outline>
    <contour>
      <point x="86" y="695.333" type="curve" smooth="yes"/>
      <point x="86" y="754"/>
      <point x="121.333" y="795"/>
      <point x="172.333" y="795" type="curve" smooth="yes"/>
      <point x="213.333" y="795"/>
      <point x="242" y="767.667"/>
      <point x="242" y="726.667" type="curve" smooth="yes"/>
      <point x="242" y="687.333"/>
      <point x="216" y="662.333"/>
      <point x="177.667" y="662.333" type="curve" smooth="yes"/>
      <point x="174.408" y="662.333"/>
      <point x="170.469" y="662.959"/>
      <point x="167.034" y="663.611" type="curve" smooth="yes"/>
      <point x="161.368" y="664.71"/>
      <point x="157.789" y="665"/>
      <point x="155.667" y="665" type="curve" smooth="yes"/>
      <point x="147" y="665"/>
      <point x="139.667" y="657"/>
      <point x="139.667" y="647.667" type="curve" smooth="yes"/>
      <point x="139.667" y="613.667"/>
      <point x="168.667" y="579.333"/>
      <point x="232.333" y="540" type="curve"/>
      <point x="222.667" y="521" type="line"/>
      <point x="130" y="568.667"/>
      <point x="86" y="622.333"/>
    </contour>
  </outline>
</glyph>
<glyph name="uni02BF" format="2">
  <advance width="219"/>
  <unicode hex="02BF"/>
  <outline>
    <contour>
      <point x="56.6667" y="632.333" type="curve" smooth="yes"/>
      <point x="56.6667" y="689.333"/>
      <point x="105.333" y="737"/>
      <point x="162.333" y="737" type="curve"/>
      <point x="162.333" y="693.667" type="line"/>
      <point x="129.333" y="693.667"/>
      <point x="100" y="665"/>
      <point x="100" y="631.667" type="curve" smooth="yes"/>
      <point x="100" y="599"/>
      <point x="128" y="572"/>
      <point x="162.333" y="572" type="curve"/>
      <point x="162.333" y="528.667" type="line"/>
      <point x="104.667" y="528.667"/>
      <point x="56.6667" y="574.667"/>
    </contour>
  </outline>
</glyph>
<glyph name="uni02C0" format="2">
  <advance width="333"/>
  <unicode hex="02C0"/>
  <outline>
    <contour>
      <point x="57" y="670.441" type="curve" smooth="yes"/>
      <point x="57" y="709.333"/>
      <point x="101" y="736.333"/>
      <point x="166.25" y="736.333" type="curve" smooth="yes"/>
      <point x="245.667" y="736.333"/>
      <point x="270.667" y="696.333"/>
      <point x="270.667" y="659.476" type="curve" smooth="yes"/>
      <point x="270.667" y="624.158"/>
      <point x="248.051" y="610.839"/>
      <point x="224.291" y="596.728" type="curve" smooth="yes"/>
      <point x="198.893" y="581.625"/>
      <point x="170.333" y="560.908"/>
      <point x="170.333" y="521" type="curve"/>
      <point x="142.333" y="521" type="line"/>
      <point x="142.238" y="573.378"/>
      <point x="160.113" y="594.534"/>
      <point x="175.523" y="612.794" type="curve" smooth="yes"/>
      <point x="188.534" y="628.23"/>
      <point x="197.667" y="640.452"/>
      <point x="197.667" y="661.377" type="curve" smooth="yes"/>
      <point x="197.667" y="689"/>
      <point x="181.667" y="702"/>
      <point x="145.958" y="702" type="curve" smooth="yes"/>
      <point x="130.613" y="702"/>
      <point x="121.161" y="699.148"/>
      <point x="111" y="691.333" type="curve"/>
      <point x="119.038" y="684.872"/>
      <point x="127.667" y="671.667"/>
      <point x="127.667" y="657.372" type="curve" smooth="yes"/>
      <point x="127.667" y="642"/>
      <point x="117.667" y="631.667"/>
      <point x="97.9559" y="631.667" type="curve" smooth="yes"/>
      <point x="73" y="631.667"/>
      <point x="57" y="647"/>
    </contour>
  </outline>
</glyph>
<glyph name="circumflex" format="2">
  <advance width="333"/>
  <unicode hex="02C6"/>
  <outline>
    <contour>
      <point x="2.33333" y="521" type="line"/>
      <point x="125" y="694" type="line"/>
      <point x="207" y="694" type="line"/>
      <point x="330.667" y="521" type="line"/>
      <point x="281.333" y="521" type="line"/>
      <point x="166" y="620.667" type="line"/>
      <point x="51" y="521" type="line"/>
    </contour>
  </outline>
</glyph>
<glyph name="uni02C9" format="2">
  <advance width="333"/>
  <unicode hex="02C9"/>
  <outline>
    <contour>
      <point x="4.33333" y="559" type="line"/>
      <point x="4.33333" y="625" type="line"/>
      <point x="328" y="625" type="line"/>
      <point x="328" y="559" type="line"/>
    </contour>
  </outline>
</glyph>
<glyph name="uni02CA" format="2">
  <advance width="333"/>
  <unicode hex="02CA"/>
  <outline>
    <contour>
      <point x="88.3333" y="521" type="line"/>
      <point x="228.667" y="675" type="line" smooth="yes"/>
      <point x="246" y="693.667"/>
      <point x="260.333" y="701.333"/>
      <point x="278" y="701.333" type="curve" smooth="yes"/>
      <point x="304.667" y="701.333"/>
      <point x="321.667" y="685.333"/>
      <point x="321.667" y="661.333" type="curve" smooth="yes"/>
      <point x="321.667" y="640.667"/>
      <point x="313.333" y="629.667"/>
      <point x="285" y="612" type="curve" smooth="yes"/>
      <point x="139" y="521" type="line"/>
    </contour>
  </outline>
</glyph>
<glyph name="breve" format="2">
  <advance width="333"/>
  <unicode hex="02D8"/>
  <outline>
    <contour>
      <point x="18.3333" y="682" type="curve"/>
      <point x="57.3333" y="682" type="line"/>
      <point x="67.3333" y="621"/>
      <point x="105.667" y="591.667"/>
      <point x="166.333" y="591.667" type="curve" smooth="yes"/>
      <point x="230.333" y="591.667"/>
      <point x="258.333" y="623"/>
      <point x="275" y="682" type="curve"/>
      <point x="314" y="682" type="line"/>
      <point x="307.333" y="591.333"/>
      <point x="264.333" y="521"/>
      <point x="165" y="521" type="curve" smooth="yes"/>
      <point x="66.3333" y="521"/>
      <point x="19" y="589"/>
    </contour>
  </outline>
</glyph>
<glyph name="ogonek" format="2">
  <advance width="333"/>
  <unicode hex="02DB"/>
  <outline>
    <contour>
      <point x="81.3333" y="-89.3915" type="curve" smooth="yes"/>
      <point x="81.3333" y="-60.3333"/>
      <point x="96.1313" y="-30.9505"/>
      <point x="140.667" y="1.33333" type="curve" smooth="yes"/>
      <point x="162.951" y="17.3333" type="line"/>
      <point x="214.368" y="17.3333" type="line"/>
      <point x="193.333" y="0" type="line" smooth="yes"/>
      <point x="173.401" y="-16.2069"/>
      <point x="156" y="-40"/>
      <point x="156" y="-65.1681" type="curve" smooth="yes"/>
      <point x="156" y="-89.4286"/>
      <point x="172.89" y="-105.667"/>
      <point x="204.703" y="-105.667" type="curve" smooth="yes"/>
      <point x="225.668" y="-105.667"/>
      <point x="249.269" y="-98.8925"/>
      <point x="274.333" y="-80.3333" type="curve"/>
      <point x="295.667" y="-95" type="line"/>
      <point x="266.667" y="-143.333"/>
      <point x="223.333" y="-170.333"/>
      <point x="174.137" y="-170.333" type="curve" smooth="yes"/>
      <point x="122" y="-170.333"/>
      <point x="81.3333" y="-136.667"/>
    </contour>
  </outline>
</glyph>
<glyph name="tilde" format="2">
  <advance width="333"/>
  <unicode hex="02DC"/>
  <outline>
    <contour>
      <point x="-10.3333" y="543.333" type="line"/>
      <point x="6.66667" y="622.333"/>
      <point x="42.6667" y="660.333"/>
      <point x="100.667" y="660.333" type="curve" smooth="yes"/>
      <point x="122" y="660.333"/>
      <point x="146.333" y="654.333"/>
      <point x="172.667" y="641.667" type="curve" smooth="yes"/>
      <point x="207.333" y="625.667" type="line" smooth="yes"/>
      <point x="229.667" y="615.333"/>
      <point x="238.667" y="612.667"/>
      <point x="251" y="612.667" type="curve" smooth="yes"/>
      <point x="276.667" y="612.667"/>
      <point x="290.333" y="625.333"/>
      <point x="304.667" y="662" type="curve"/>
      <point x="343" y="662" type="line"/>
      <point x="320.667" y="578.667"/>
      <point x="286.333" y="542"/>
      <point x="230" y="542" type="curve" smooth="yes"/>
      <point x="208.333" y="542"/>
      <point x="186.667" y="547.333"/>
      <point x="160.333" y="559.333" type="curve" smooth="yes"/>
      <point x="133.333" y="571.667" type="line" smooth="yes"/>
      <point x="99.6667" y="586.667"/>
      <point x="89.6667" y="590"/>
      <point x="77" y="590" type="curve" smooth="yes"/>
      <point x="52" y="590"/>
      <point x="33.6667" y="572.333"/>
      <point x="27.3333" y="543.333" type="curve"/>
    </contour>
  </outline>
</glyph>
<glyph name="acutecomb" format="2">
  <unicode hex="0301"/>
  <outline>
    <contour>
      <point x="-345" y="521" type="line"/>
      <point x="-204.667" y="675" type="line" smooth="yes"/>
      <point x="-187.333" y="693.667"/>
      <point x="-172.667" y="701.333"/>
      <point x="-155" y="701.333" type="curve" smooth="yes"/>
      <point x="-128.333" y="701.333"/>
      <point x="-111.667" y="685.333"/>
      <point x="-111.667" y="658.855" type="curve" smooth="yes"/>
      <point x="-111.667" y="640.667"/>
      <point x="-120" y="629.667"/>
      <point x="-148.333" y="612" type="curve" smooth="yes"/>
      <point x="-294.333" y="521" type="line"/>
    </contour>
  </outline>
</glyph>
<glyph name="circumflexcomb" format="2">
  <unicode hex="0302"/>
  <outline>
    <contour>
      <point x="-431" y="521" type="line"/>
      <point x="-308.333" y="694" type="line"/>
      <point x="-226.333" y="694" type="line"/>
      <point x="-102.667" y="521" type="line"/>
      <point x="-152" y="521" type="line"/>
      <point x="-267.333" y="620.667" type="line"/>
      <point x="-382.333" y="521" type="line"/>
    </contour>
  </outline>
</glyph>
<glyph name="tildecomb" format="2">
  <unicode hex="0303"/>
  <outline>
    <contour>
      <point x="-443.667" y="543.333" type="line"/>
      <point x="-426.667" y="622.333"/>
      <point x="-390.667" y="660.333"/>
      <point x="-333.88" y="660.333" type="curve" smooth="yes"/>
      <point x="-311.333" y="660.333"/>
      <point x="-287" y="654.333"/>
      <point x="-260.667" y="641.667" type="curve" smooth="yes"/>
      <point x="-226" y="625.667" type="line" smooth="yes"/>
      <point x="-203.667" y="615.333"/>
      <point x="-194.667" y="612.667"/>
      <point x="-184.166" y="612.667" type="curve" smooth="yes"/>
      <point x="-156.667" y="612.667"/>
      <point x="-143" y="625.333"/>
      <point x="-128.667" y="662" type="curve"/>
      <point x="-90.3333" y="662" type="line"/>
      <point x="-112.667" y="578.667"/>
      <point x="-147" y="542"/>
      <point x="-203.536" y="542" type="curve" smooth="yes"/>
      <point x="-225" y="542"/>
      <point x="-246.667" y="547.333"/>
      <point x="-273" y="559.333" type="curve" smooth="yes"/>
      <point x="-300" y="571.667" type="line" smooth="yes"/>
      <point x="-333.667" y="586.667"/>
      <point x="-343.667" y="590"/>
      <point x="-355.06" y="590" type="curve" smooth="yes"/>
      <point x="-381.333" y="590"/>
      <point x="-399.667" y="572.333"/>
      <point x="-406" y="543.333" type="curve"/>
    </contour>
  </outline>
</glyph>
<glyph name="overlinecomb" format="2">
  <unicode hex="0305"/>
  <outline>
    <contour>
      <point x="-532.333" y="790.333" type="line"/>
      <point x="-532.333" y="856.333" type="line"/>
      <point x="-4.33333" y="856.333" type="line"/>
      <point x="-4.33333" y="790.333" type="line"/>
    </contour>
  </outline>
</glyph>
<glyph name="brevecomb" format="2">
  <unicode hex="0306"/>
  <outline>
    <contour>
      <point x="-415" y="682" type="curve"/>
      <point x="-376" y="682" type="line"/>
      <point x="-366" y="621"/>
      <point x="-327.667" y="591.667"/>
      <point x="-267" y="591.667" type="curve" smooth="yes"/>
      <point x="-203" y="591.667"/>
      <point x="-175" y="623"/>
      <point x="-158.333" y="682" type="curve"/>
      <point x="-119.333" y="682" type="line"/>
      <point x="-126" y="591.333"/>
      <point x="-169" y="521"/>
      <point x="-268.333" y="521" type="curve" smooth="yes"/>
      <point x="-367" y="521"/>
      <point x="-414.333" y="589"/>
    </contour>
  </outline>
</glyph>
<glyph name="diaeresiscomb" format="2">
  <unicode hex="0308"/>
  <outline>
    <contour>
      <point x="-428.667" y="592.333" type="curve" smooth="yes"/>
      <point x="-428.667" y="623.667"/>
      <point x="-401" y="651.333"/>
      <point x="-370" y="651.333" type="curve" smooth="yes"/>
      <point x="-337.333" y="651.333"/>
      <point x="-309.667" y="623.667"/>
      <point x="-309.667" y="590.667" type="curve" smooth="yes"/>
      <point x="-309.667" y="558.333"/>
      <point x="-336.667" y="532.333"/>
      <point x="-370" y="532.333" type="curve" smooth="yes"/>
      <point x="-402.333" y="532.333"/>
      <point x="-428.667" y="559.667"/>
    </contour>
    <contour>
      <point x="-222.333" y="593" type="curve" smooth="yes"/>
      <point x="-222.333" y="623.667"/>
      <point x="-194.667" y="651.333"/>
      <point x="-164.333" y="651.333" type="curve" smooth="yes"/>
      <point x="-131" y="651.333"/>
      <point x="-103.333" y="623.667"/>
      <point x="-103.333" y="590.667" type="curve" smooth="yes"/>
      <point x="-103.333" y="558.333"/>
      <point x="-130.333" y="532.333"/>
      <point x="-164.333" y="532.333" type="curve" smooth="yes"/>
      <point x="-196.667" y="532.333"/>
      <point x="-222.333" y="559"/>
    </contour>
  </outline>
</glyph>
<glyph name="ringcomb" format="2">
  <unicode hex="030A"/>
  <outline>
    <contour>
      <point x="-371" y="634" type="curve" smooth="yes"/>
      <point x="-371" y="689.333"/>
      <point x="-323.333" y="737"/>
      <point x="-266.667" y="737" type="curve" smooth="yes"/>
      <point x="-209.667" y="737"/>
      <point x="-162.667" y="689.333"/>
      <point x="-162.667" y="632.333" type="curve" smooth="yes"/>
      <point x="-162.667" y="574.667"/>
      <point x="-209.667" y="528.667"/>
      <point x="-267.333" y="528.667" type="curve" smooth="yes"/>
      <point x="-325.333" y="528.667"/>
      <point x="-371" y="575.333"/>
    </contour>
    <contour>
      <point x="-327.667" y="632.667" type="curve" smooth="yes"/>
      <point x="-327.667" y="599.333"/>
      <point x="-300.667" y="572"/>
      <point x="-268.333" y="572" type="curve" smooth="yes"/>
      <point x="-234" y="572"/>
      <point x="-206" y="599"/>
      <point x="-206" y="631.667" type="curve" smooth="yes"/>
      <point x="-206" y="665"/>
      <point x="-234" y="693.667"/>
      <point x="-267" y="693.667" type="curve" smooth="yes"/>
      <point x="-299.667" y="693.667"/>
      <point x="-327.667" y="665.333"/>
    </contour>
  </outline>
</glyph>
<glyph name="caroncomb" format="2">
  <unicode hex="030C"/>
  <outline>
    <contour>
      <point x="-431" y="694" type="line"/>
      <point x="-382.333" y="694" type="line"/>
      <point x="-267.333" y="593.667" type="line"/>
      <point x="-152" y="694" type="line"/>
      <point x="-102.667" y="694" type="line"/>
      <point x="-226.333" y="521" type="line"/>
      <point x="-308.333" y="521" type="line"/>
    </contour>
  </outline>
</glyph>
<glyph name="doublegravecomb" format="2">
  <unicode hex="030F"/>
  <outline>
    <contour>
      <point x="-524.667" y="661.333" type="curve" smooth="yes"/>
      <point x="-524.667" y="685.333"/>
      <point x="-507.667" y="701.333"/>
      <point x="-481" y="701.333" type="curve" smooth="yes"/>
      <point x="-463.333" y="701.333"/>
      <point x="-449" y="693.667"/>
      <point x="-431.667" y="675" type="curve" smooth="yes"/>
      <point x="-291.333" y="521" type="line"/>
      <point x="-342" y="521" type="line"/>
      <point x="-488" y="612" type="line" smooth="yes"/>
      <point x="-516.333" y="629.667"/>
      <point x="-524.667" y="640.667"/>
    </contour>
    <contour>
      <point x="-339.333" y="661.333" type="curve" smooth="yes"/>
      <point x="-339.333" y="685.333"/>
      <point x="-322.333" y="701.333"/>
      <point x="-295.667" y="701.333" type="curve" smooth="yes"/>
      <point x="-278" y="701.333"/>
      <point x="-263.667" y="693.667"/>
      <point x="-246.333" y="675" type="curve" smooth="yes"/>
      <point x="-106" y="521" type="line"/>
      <point x="-156.667" y="521" type="line"/>
      <point x="-302.667" y="612" type="line" smooth="yes"/>
      <point x="-331" y="629.667"/>
      <point x="-339.333" y="640.667"/>
    </contour>
  </outline>
</glyph>
<glyph name="uni0313" format="2">
  <unicode hex="0313"/>
  <outline>
    <contour>
      <point x="-346" y="716" type="curve" smooth="yes"/>
      <point x="-346" y="757"/>
      <point x="-317.333" y="784.333"/>
      <point x="-276.333" y="784.333" type="curve" smooth="yes"/>
      <point x="-225.333" y="784.333"/>
      <point x="-190" y="743.333"/>
      <point x="-190" y="684.667" type="curve" smooth="yes"/>
      <point x="-190" y="611.667"/>
      <point x="-235.333" y="558"/>
      <point x="-326.667" y="521" type="curve"/>
      <point x="-336.333" y="540" type="line"/>
      <point x="-274" y="566.667"/>
      <point x="-243.667" y="603"/>
      <point x="-243.667" y="637" type="curve" smooth="yes"/>
      <point x="-243.667" y="647.032"/>
      <point x="-251.924" y="654.333"/>
      <point x="-263" y="654.333" type="curve" smooth="yes"/>
      <point x="-265.028" y="654.333"/>
      <point x="-268.512" y="653.795"/>
      <point x="-272.565" y="652.05" type="curve"/>
      <point x="-274.687" y="651.343"/>
      <point x="-280.387" y="650.333"/>
      <point x="-284.333" y="650.333" type="curve" smooth="yes"/>
      <point x="-322.667" y="650.333"/>
      <point x="-346" y="676.667"/>
    </contour>
  </outline>
</glyph>
<glyph name="uni0314" format="2">
  <unicode hex="0314"/>
  <outline>
    <contour>
      <point x="-347.333" y="695.333" type="curve" smooth="yes"/>
      <point x="-347.333" y="754"/>
      <point x="-312" y="795"/>
      <point x="-261" y="795" type="curve" smooth="yes"/>
      <point x="-220" y="795"/>
      <point x="-191.333" y="767.667"/>
      <point x="-191.333" y="726.667" type="curve" smooth="yes"/>
      <point x="-191.333" y="687.333"/>
      <point x="-217.333" y="662.333"/>
      <point x="-255.667" y="662.333" type="curve" smooth="yes"/>
      <point x="-259.106" y="662.333"/>
      <point x="-261.929" y="662.604"/>
      <point x="-265.663" y="663.943" type="curve"/>
      <point x="-270.283" y="665.241"/>
      <point x="-276.022" y="665.667"/>
      <point x="-277.667" y="665.667" type="curve"/>
      <point x="-286.333" y="665.667"/>
      <point x="-293.667" y="657"/>
      <point x="-293.667" y="647.667" type="curve" smooth="yes"/>
      <point x="-293.667" y="613.667"/>
      <point x="-264.667" y="579.333"/>
      <point x="-201" y="540" type="curve"/>
      <point x="-210.667" y="521" type="line"/>
      <point x="-303.333" y="568.667"/>
      <point x="-347.333" y="622.333"/>
    </contour>
  </outline>
</glyph>
<glyph name="gravebelowcomb" format="2">
  <unicode hex="0316"/>
  <outline>
    <contour>
      <point x="-345" y="-226" type="line"/>
      <point x="-204.667" y="-72" type="line" smooth="yes"/>
      <point x="-187.333" y="-53.3333"/>
      <point x="-173" y="-45.6667"/>
      <point x="-155.333" y="-45.6667" type="curve" smooth="yes"/>
      <point x="-128.667" y="-45.6667"/>
      <point x="-111.667" y="-61.6667"/>
      <point x="-111.667" y="-85.6667" type="curve" smooth="yes"/>
      <point x="-111.667" y="-106.333"/>
      <point x="-120" y="-117.333"/>
      <point x="-148.333" y="-135" type="curve" smooth="yes"/>
      <point x="-294.333" y="-226" type="line"/>
    </contour>
  </outline>
</glyph>
<glyph name="acutebelowcomb" format="2">
  <unicode hex="0317"/>
  <outline>
    <contour>
      <point x="-421.667" y="-86" type="curve" smooth="yes"/>
      <point x="-421.667" y="-63"/>
      <point x="-403.333" y="-45.6667"/>
      <point x="-379" y="-45.6667" type="curve" smooth="yes"/>
      <point x="-361.333" y="-45.6667"/>
      <point x="-345.667" y="-54"/>
      <point x="-329" y="-72" type="curve" smooth="yes"/>
      <point x="-188.667" y="-226" type="line"/>
      <point x="-239.333" y="-226" type="line"/>
      <point x="-385.333" y="-135" type="line" smooth="yes"/>
      <point x="-410.667" y="-119"/>
      <point x="-421.667" y="-104.667"/>
    </contour>
  </outline>
</glyph>
<glyph name="uni031B" format="2">
  <unicode hex="031B"/>
  <outline>
    <contour>
      <point x="-154.605" y="398.659" type="line"/>
      <point x="-154.617" y="426.554" type="line"/>
      <point x="-128" y="426.667" type="line" smooth="yes"/>
      <point x="-100.668" y="426.754"/>
      <point x="-75.6667" y="436.667"/>
      <point x="-75.6667" y="456.667" type="curve" smooth="yes"/>
      <point x="-75.6667" y="466.333"/>
      <point x="-81.5855" y="474.789"/>
      <point x="-89" y="482" type="curve"/>
      <point x="-98.8758" y="490.574"/>
      <point x="-113.333" y="503"/>
      <point x="-113.333" y="532.667" type="curve" smooth="yes"/>
      <point x="-113.333" y="574"/>
      <point x="-79.6667" y="590.667"/>
      <point x="-53.6667" y="590.667" type="curve" smooth="yes"/>
      <point x="-17.6667" y="590.667"/>
      <point x="12" y="564"/>
      <point x="12" y="514" type="curve" smooth="yes"/>
      <point x="12" y="448"/>
      <point x="-48.3333" y="398.691"/>
      <point x="-128" y="398.667" type="curve" smooth="yes"/>
    </contour>
  </outline>
</glyph>
<glyph name="dotbelowcomb" format="2">
  <unicode hex="0323"/>
  <outline>
    <contour>
      <point x="-325.333" y="-121" type="curve" smooth="yes"/>
      <point x="-325.333" y="-90.3333"/>
      <point x="-297.667" y="-62.6667"/>
      <point x="-267.333" y="-62.6667" type="curve" smooth="yes"/>
      <point x="-234" y="-62.6667"/>
      <point x="-206.333" y="-90.3333"/>
      <point x="-206.333" y="-123.333" type="curve" smooth="yes"/>
      <point x="-206.333" y="-155.667"/>
      <point x="-233.333" y="-181.667"/>
      <point x="-267.333" y="-181.667" type="curve" smooth="yes"/>
      <point x="-299.667" y="-181.667"/>
      <point x="-325.333" y="-155"/>
    </contour>
  </outline>
</glyph>
<glyph name="uni032E" format="2">
  <unicode hex="032E"/>
  <outline>
    <contour>
      <point x="-415" y="-45.6667" type="curve"/>
      <point x="-376" y="-45.6667" type="line"/>
      <point x="-366" y="-106.667"/>
      <point x="-327.667" y="-136"/>
      <point x="-267" y="-136" type="curve" smooth="yes"/>
      <point x="-203" y="-136"/>
      <point x="-175" y="-104.667"/>
      <point x="-158.333" y="-45.6667" type="curve"/>
      <point x="-119.333" y="-45.6667" type="line"/>
      <point x="-126" y="-136.333"/>
      <point x="-169" y="-206.667"/>
      <point x="-268.333" y="-206.667" type="curve" smooth="yes"/>
      <point x="-367" y="-206.667"/>
      <point x="-414.333" y="-138.667"/>
    </contour>
  </outline>
</glyph>
<glyph name="uni032F" format="2">
  <unicode hex="032F"/>
  <outline>
    <contour>
      <point x="-412.667" y="-206.667" type="line"/>
      <point x="-412" y="-102.667"/>
      <point x="-352.333" y="-47.6667"/>
      <point x="-267" y="-47.6667" type="curve" smooth="yes"/>
      <point x="-181.667" y="-47.6667"/>
      <point x="-125" y="-104.667"/>
      <point x="-121" y="-206.667" type="curve"/>
      <point x="-159.667" y="-206.667" type="line"/>
      <point x="-172.333" y="-147.667"/>
      <point x="-205.667" y="-117.667"/>
      <point x="-266.333" y="-117.667" type="curve" smooth="yes"/>
      <point x="-326.333" y="-117.667"/>
      <point x="-364" y="-146.333"/>
      <point x="-374" y="-206.667" type="curve"/>
    </contour>
  </outline>
</glyph>
<glyph name="uni0342" format="2">
  <unicode hex="0342"/>
  <outline>
    <contour>
      <point x="-440.333" y="542.333" type="line"/>
      <point x="-429.667" y="601.667"/>
      <point x="-394.333" y="658"/>
      <point x="-327.667" y="658" type="curve" smooth="yes"/>
      <point x="-273.333" y="658"/>
      <point x="-226" y="611"/>
      <point x="-182.333" y="611" type="curve" smooth="yes"/>
      <point x="-155" y="611"/>
      <point x="-140" y="635"/>
      <point x="-131.333" y="658" type="curve"/>
      <point x="-93.6667" y="658" type="line"/>
      <point x="-106" y="600.333"/>
      <point x="-142" y="542.333"/>
      <point x="-207" y="542.333" type="curve" smooth="yes"/>
      <point x="-263.667" y="542.333"/>
      <point x="-310" y="589.333"/>
      <point x="-354.667" y="589.333" type="curve" smooth="yes"/>
      <point x="-382" y="589.333"/>
      <point x="-399.333" y="568"/>
      <point x="-403.333" y="542.333" type="curve"/>
    </contour>
  </outline>
</glyph>
<glyph name="uni0343" format="2">
  <unicode hex="0343"/>
  <outline>
    <contour>
      <point x="-339.333" y="522.333" type="line"/>
      <point x="-310" y="524.667"/>
      <point x="-252" y="550"/>
      <point x="-252" y="596.126" type="curve" smooth="yes"/>
      <point x="-252" y="620.011"/>
      <point x="-271.15" y="625.333"/>
      <point x="-290" y="625.333" type="curve" smooth="yes"/>
      <point x="-315.667" y="625.333"/>
      <point x="-338" y="643.333"/>
      <point x="-338" y="672.295" type="curve" smooth="yes"/>
      <point x="-338" y="710.333"/>
      <point x="-302.333" y="723.667"/>
      <point x="-275.545" y="723.667" type="curve" smooth="yes"/>
      <point x="-216.333" y="723.667"/>
      <point x="-188.667" y="672.333"/>
      <point x="-188.667" y="630.903" type="curve" smooth="yes"/>
      <point x="-188.667" y="541"/>
      <point x="-282.333" y="505.667"/>
      <point x="-335" y="500.333" type="curve"/>
    </contour>
  </outline>
</glyph>
<glyph name="uni0345" format="2">
  <unicode hex="0345"/>
  <outline>
    <contour>
      <point x="-351.667" y="-51.6667" type="line"/>
      <point x="-266.333" y="-51.6667" type="line"/>
      <point x="-266.564" y="-124.423" type="line"/>
      <point x="-266.564" y="-149.673"/>
      <point x="-263.421" y="-177"/>
      <point x="-243.333" y="-177" type="curve" smooth="yes"/>
      <point x="-213.914" y="-177"/>
      <point x="-213" y="-147.125"/>
      <point x="-213" y="-133" type="curve"/>
      <point x="-185.333" y="-133" type="line"/>
      <point x="-185.333" y="-187.333"/>
      <point x="-211.333" y="-214"/>
      <point x="-264.333" y="-214" type="curve" smooth="yes"/>
      <point x="-312.667" y="-214"/>
      <point x="-351.667" y="-185.333"/>
      <point x="-351.667" y="-136.667" type="curve" smooth="yes"/>
    </contour>
  </outline>
</glyph>
<glyph name="uni037A" format="2">
  <advance width="332"/>
  <unicode hex="037A"/>
  <outline>
    <contour>
      <point x="129" y="-55" type="line"/>
      <point x="205" y="-55" type="line"/>
      <point x="205" y="-139" type="line" smooth="yes"/>
      <point x="205" y="-168"/>
      <point x="209" y="-187"/>
      <point x="228" y="-187" type="curve" smooth="yes"/>
      <point x="262" y="-187"/>
      <point x="263" y="-156"/>
      <point x="263" y="-137" type="curve"/>
      <point x="288" y="-137" type="line"/>
      <point x="288" y="-196"/>
      <point x="262" y="-218"/>
      <point x="211" y="-218" type="curve" smooth="yes"/>
      <point x="158" y="-218"/>
      <point x="129" y="-186"/>
      <point x="129" y="-146" type="curve" smooth="yes"/>
    </contour>
  </outline>
</glyph>
<glyph name="tonos" format="2">
  <advance width="159"/>
  <unicode hex="0384"/>
  <anchor x="10" y="620" name="_tonos"/>
  <anchor x="17.3333" y="468.667" name="_tonos_top"/>
  <outline>
    <contour>
      <point x="0" y="468.667" type="line"/>
      <point x="40.3333" y="633.333" type="line" smooth="yes"/>
      <point x="49" y="667"/>
      <point x="64.3333" y="689.667"/>
      <point x="98.3333" y="689.667" type="curve" smooth="yes"/>
      <point x="127.667" y="689.667"/>
      <point x="140.667" y="670"/>
      <point x="140.667" y="650.53" type="curve" smooth="yes"/>
      <point x="140.667" y="629.501"/>
      <point x="123.547" y="604.822"/>
      <point x="113.675" y="590.658" type="curve" smooth="yes"/>
      <point x="28.6667" y="468.667" type="line"/>
    </contour>
  </outline>
</glyph>
<glyph name="dieresistonos" format="2">
  <advance width="369"/>
  <unicode hex="0385"/>
  <anchor x="150" y="468.667" name="_tonos_top"/>
  <outline>
    <contour>
      <point x="0" y="525.667" type="curve" smooth="yes"/>
      <point x="0" y="557.333"/>
      <point x="27" y="583.667"/>
      <point x="58.6667" y="583.667" type="curve" smooth="yes"/>
      <point x="90.3333" y="583.667"/>
      <point x="116.667" y="557.333"/>
      <point x="116.667" y="525.667" type="curve" smooth="yes"/>
      <point x="116.667" y="494"/>
      <point x="90.3333" y="467"/>
      <point x="58.6667" y="467" type="curve" smooth="yes"/>
      <point x="26.3333" y="467"/>
      <point x="0" y="493.333"/>
    </contour>
    <contour>
      <point x="135.333" y="468.667" type="line"/>
      <point x="175.667" y="626" type="line" smooth="yes"/>
      <point x="183.667" y="655.667"/>
      <point x="200.333" y="689.667"/>
      <point x="236.49" y="689.667" type="curve" smooth="yes"/>
      <point x="260.333" y="689.667"/>
      <point x="274.667" y="674"/>
      <point x="274.667" y="653.368" type="curve" smooth="yes"/>
      <point x="274.667" y="639.807"/>
      <point x="268.488" y="623.277"/>
      <point x="257.641" y="606.852" type="curve" smooth="yes"/>
      <point x="164" y="468.667" type="line"/>
    </contour>
    <contour>
      <point x="252.333" y="525.667" type="curve" smooth="yes"/>
      <point x="252.333" y="557.333"/>
      <point x="279.333" y="583.667"/>
      <point x="311" y="583.667" type="curve" smooth="yes"/>
      <point x="342.667" y="583.667"/>
      <point x="369" y="557.333"/>
      <point x="369" y="525.667" type="curve" smooth="yes"/>
      <point x="369" y="494"/>
      <point x="342.667" y="467"/>
      <point x="311" y="467" type="curve" smooth="yes"/>
      <point x="278.667" y="467"/>
      <point x="252.333" y="493.333"/>
    </contour>
  </outline>
</glyph>
<glyph name="uni0394" format="2">
  <advance width="726"/>
  <unicode hex="0394"/>
  <outline>
    <contour>
      <point x="8.66667" y="0" type="line"/>
      <point x="346.667" y="684.667" type="line"/>
      <point x="372.333" y="684.667" type="line"/>
      <point x="707.333" y="0" type="line"/>
    </contour>
    <contour>
      <point x="71" y="38" type="line"/>
      <point x="542" y="38" type="line"/>
      <point x="308" y="515.667" type="line"/>
    </contour>
  </outline>
</glyph>
<glyph name="Iota" format="2">
  <advance width="367"/>
  <unicode hex="0399"/>
  <outline>
    <contour>
      <point x="14.6667" y="0" type="line"/>
      <point x="14.6667" y="23" type="line"/>
      <point x="92.6667" y="28.6667"/>
      <point x="109" y="42"/>
      <point x="109" y="100.333" type="curve" smooth="yes"/>
      <point x="109" y="571" type="line" smooth="yes"/>
      <point x="109" y="629.667"/>
      <point x="91" y="643.333"/>
      <point x="14.6667" y="648.333" type="curve"/>
      <point x="14.6667" y="671.333" type="line"/>
      <point x="347" y="671.333" type="line"/>
      <point x="347" y="648.333" type="line"/>
      <point x="269.667" y="645"/>
      <point x="251" y="630"/>
      <point x="251" y="571" type="curve" smooth="yes"/>
      <point x="251" y="100.333" type="line" smooth="yes"/>
      <point x="251" y="41.3333"/>
      <point x="269" y="27.3333"/>
      <point x="347" y="23" type="curve"/>
      <point x="347" y="0" type="line"/>
    </contour>
  </outline>
</glyph>
<glyph name="Sigma" format="2">
  <advance width="651"/>
  <unicode hex="03A3"/>
  <outline>
    <contour>
      <point x="12.3333" y="0.333333" type="line"/>
      <point x="123" y="133" type="line"/>
      <point x="177" y="424" type="line"/>
      <point x="191" y="639.333" type="line"/>
      <point x="195" y="610.333" type="line"/>
      <point x="576.333" y="610.333" type="line"/>
      <point x="574.527" y="616.425"/>
      <point x="554.5" y="551.497"/>
      <point x="527.333" y="529" type="curve"/>
      <point x="452.667" y="529" type="line"/>
      <point x="438" y="601.667"/>
      <point x="391.333" y="635.667"/>
      <point x="318" y="630.333" type="curve"/>
      <point x="315.869" y="626"/>
      <point x="280.288" y="554.333"/>
      <point x="283.333" y="544.333" type="curve"/>
      <point x="310" y="289.333" type="line"/>
      <point x="263.667" y="124" type="line"/>
      <point x="314.268" y="124"/>
      <point x="442.228" y="137.333"/>
      <point x="474.667" y="152.333" type="curve"/>
      <point x="521.333" y="152.669"/>
      <point x="573.333" y="158.577"/>
      <point x="576.667" y="217.667" type="curve"/>
      <point x="601.333" y="217.667" type="line"/>
      <point x="584.667" y="0" type="line"/>
    </contour>
  </outline>
</glyph>
<glyph name="Psi" format="2">
  <advance width="885"/>
  <unicode hex="03A8"/>
  <outline>
    <contour>
      <point x="16.6667" y="596.183" type="curve" smooth="yes"/>
      <point x="16.6667" y="643.333"/>
      <point x="52.6667" y="680"/>
      <point x="107.949" y="680" type="curve" smooth="yes"/>
      <point x="190.667" y="680"/>
      <point x="249.667" y="625"/>
      <point x="249.667" y="538.702" type="curve" smooth="yes"/>
      <point x="249.667" y="514.539"/>
      <point x="245.008" y="490.487"/>
      <point x="237.422" y="459.045" type="curve" smooth="yes"/>
      <point x="230.147" y="427.797"/>
      <point x="223.333" y="397.602"/>
      <point x="223.333" y="364.924" type="curve" smooth="yes"/>
      <point x="223.333" y="280.667"/>
      <point x="275" y="239.667"/>
      <point x="369.333" y="239.667" type="curve"/>
      <point x="369.333" y="567" type="line" smooth="yes"/>
      <point x="369.333" y="621.667"/>
      <point x="346" y="643.667"/>
      <point x="290.333" y="650.667" type="curve"/>
      <point x="290.333" y="671.667" type="line"/>
      <point x="590.889" y="671.667" type="line"/>
      <point x="590.889" y="650.667" type="line"/>
      <point x="536.114" y="645"/>
      <point x="511.667" y="621"/>
      <point x="511.667" y="567.333" type="curve" smooth="yes"/>
      <point x="511.667" y="240" type="line"/>
      <point x="605.985" y="240"/>
      <point x="657.667" y="281"/>
      <point x="657.667" y="365.262" type="curve" smooth="yes"/>
      <point x="657.667" y="396.739"/>
      <point x="650.802" y="428.297"/>
      <point x="643.767" y="458.387" type="curve" smooth="yes"/>
      <point x="634.357" y="499.433"/>
      <point x="631.333" y="519.086"/>
      <point x="631.333" y="539.035" type="curve" smooth="yes"/>
      <point x="631.333" y="625.333"/>
      <point x="690.333" y="680.333"/>
      <point x="773.051" y="680.333" type="curve" smooth="yes"/>
      <point x="828.333" y="680.333"/>
      <point x="864.333" y="643.667"/>
      <point x="864.333" y="596.517" type="curve" smooth="yes"/>
      <point x="864.333" y="561.667"/>
      <point x="844" y="535"/>
      <point x="806.823" y="535" type="curve" smooth="yes"/>
      <point x="774.693" y="535"/>
      <point x="761.388" y="555.407"/>
      <point x="746.539" y="575.881" type="curve"/>
      <point x="736.991" y="590.26"/>
      <point x="727.955" y="602.333"/>
      <point x="711.883" y="602.333" type="curve" smooth="yes"/>
      <point x="696.333" y="602.333"/>
      <point x="687.333" y="592"/>
      <point x="687.333" y="572.614" type="curve" smooth="yes"/>
      <point x="687.333" y="546.139"/>
      <point x="703.545" y="524.184"/>
      <point x="728.959" y="492.728" type="curve" smooth="yes"/>
      <point x="758.365" y="456.444"/>
      <point x="784" y="421.392"/>
      <point x="784" y="370.011" type="curve" smooth="yes"/>
      <point x="784" y="251.118"/>
      <point x="640.32" y="209.659"/>
      <point x="511.667" y="209.667" type="curve"/>
      <point x="511.667" y="109.99" type="line" smooth="yes"/>
      <point x="511.667" y="53.5382"/>
      <point x="538.321" y="24.2638"/>
      <point x="595.911" y="21" type="curve"/>
      <point x="595.911" y="0" type="line"/>
      <point x="284.667" y="0" type="line"/>
      <point x="284.667" y="21" type="line"/>
      <point x="335.381" y="24.1761"/>
      <point x="369.333" y="53.3103"/>
      <point x="369.333" y="109.656" type="curve" smooth="yes"/>
      <point x="369.333" y="209.333" type="line"/>
      <point x="220.354" y="209.322"/>
      <point x="97" y="262.441"/>
      <point x="97" y="370.631" type="curve" smooth="yes"/>
      <point x="97" y="421.43"/>
      <point x="123.01" y="456.582"/>
      <point x="151.538" y="491.763" type="curve" smooth="yes"/>
      <point x="177.455" y="523.851"/>
      <point x="193.667" y="545.806"/>
      <point x="193.667" y="572.281" type="curve" smooth="yes"/>
      <point x="193.667" y="591.667"/>
      <point x="184.667" y="602"/>
      <point x="169.117" y="602" type="curve" smooth="yes"/>
      <point x="153.045" y="602"/>
      <point x="144.009" y="589.926"/>
      <point x="134.461" y="575.548" type="curve"/>
      <point x="119.612" y="555.074"/>
      <point x="106.307" y="534.667"/>
      <point x="74.1769" y="534.667" type="curve" smooth="yes"/>
      <point x="37" y="534.667"/>
      <point x="16.6667" y="561.333"/>
    </contour>
  </outline>
</glyph>
<glyph name="alpha" format="2">
  <advance width="599"/>
  <unicode hex="03B1"/>
  <anchor x="247" y="520" name="tonos_top"/>
  <outline>
    <contour>
      <point x="38.3333" y="229.797" type="curve" smooth="yes"/>
      <point x="38.3333" y="347"/>
      <point x="122.667" y="469.667"/>
      <point x="243.175" y="469.667" type="curve" smooth="yes"/>
      <point x="334.333" y="469.667"/>
      <point x="366.333" y="399"/>
      <point x="379" y="325" type="curve"/>
      <point x="381" y="325" type="line"/>
      <point x="411" y="457.667" type="line"/>
      <point x="532.333" y="457.667" type="line"/>
      <point x="439.333" y="152.333" type="line"/>
      <point x="446.667" y="124.333"/>
      <point x="471.333" y="77"/>
      <point x="506.405" y="77" type="curve" smooth="yes"/>
      <point x="531" y="77"/>
      <point x="549" y="101"/>
      <point x="552.333" y="124.333" type="curve"/>
      <point x="578" y="124.333" type="line"/>
      <point x="574.667" y="79"/>
      <point x="564.667" y="-12"/>
      <point x="503.908" y="-12" type="curve" smooth="yes"/>
      <point x="451.826" y="-12"/>
      <point x="431.011" y="56.609"/>
      <point x="420.333" y="116" type="curve"/>
      <point x="418.333" y="116" type="line"/>
      <point x="387" y="48.3333"/>
      <point x="327.667" y="-12"/>
      <point x="247.135" y="-12" type="curve" smooth="yes"/>
      <point x="111.333" y="-12"/>
      <point x="38.3333" y="103.333"/>
    </contour>
    <contour>
      <point x="166.963" y="209.218" type="curve" smooth="yes"/>
      <point x="166.963" y="145.743"/>
      <point x="176.174" y="21"/>
      <point x="256.348" y="21" type="curve" smooth="yes"/>
      <point x="343.333" y="21"/>
      <point x="356.667" y="167"/>
      <point x="356.667" y="228.471" type="curve" smooth="yes"/>
      <point x="356.667" y="292"/>
      <point x="346.333" y="434"/>
      <point x="262.886" y="434" type="curve" smooth="yes"/>
      <point x="175.631" y="434"/>
      <point x="166.963" y="281.196"/>
    </contour>
  </outline>
</glyph>
<glyph name="beta" format="2">
  <advance width="548"/>
  <unicode hex="03B2"/>
  <outline>
    <contour>
      <point x="57.6667" y="-212" type="line"/>
      <point x="57.6667" y="408.333" type="line" smooth="yes"/>
      <point x="57.6667" y="549.667"/>
      <point x="101" y="719.667"/>
      <point x="274.76" y="719.667" type="curve" smooth="yes"/>
      <point x="387.667" y="719.667"/>
      <point x="463" y="665.333"/>
      <point x="463" y="568.668" type="curve" smooth="yes"/>
      <point x="463" y="475.667"/>
      <point x="393.667" y="432"/>
      <point x="311.667" y="410" type="curve"/>
      <point x="311.667" y="408" type="line"/>
      <point x="410" y="400.333"/>
      <point x="511.333" y="335"/>
      <point x="511.333" y="202.349" type="curve" smooth="yes"/>
      <point x="511.333" y="82.3333"/>
      <point x="450.333" y="-12"/>
      <point x="337.426" y="-12" type="curve" smooth="yes"/>
      <point x="271.667" y="-12"/>
      <point x="210" y="20"/>
      <point x="189" y="84.3333" type="curve"/>
      <point x="220.667" y="84.3333" type="line"/>
      <point x="235.333" y="47.6667"/>
      <point x="268" y="26.6667"/>
      <point x="301.738" y="26.6667" type="curve" smooth="yes"/>
      <point x="362.667" y="26.6667"/>
      <point x="382.667" y="97"/>
      <point x="382.667" y="198.039" type="curve" smooth="yes"/>
      <point x="382.667" y="267"/>
      <point x="372" y="388.333"/>
      <point x="297.147" y="388.333" type="curve" smooth="yes"/>
      <point x="285.615" y="388.333"/>
      <point x="275.543" y="385.332"/>
      <point x="259.778" y="379.988" type="curve" smooth="yes"/>
      <point x="254.601" y="378.179"/>
      <point x="249.059" y="376.667"/>
      <point x="243.539" y="376.667" type="curve" smooth="yes"/>
      <point x="226" y="376.667"/>
      <point x="218.667" y="393.333"/>
      <point x="218.667" y="406.66" type="curve" smooth="yes"/>
      <point x="218.667" y="422"/>
      <point x="229.667" y="435.667"/>
      <point x="246.563" y="435.667" type="curve" smooth="yes"/>
      <point x="251.883" y="435.667"/>
      <point x="258.214" y="434.222"/>
      <point x="264.441" y="431.364" type="curve"/>
      <point x="272.951" y="428.293"/>
      <point x="281.621" y="424.667"/>
      <point x="290.778" y="424.667" type="curve" smooth="yes"/>
      <point x="342.333" y="424.667"/>
      <point x="352.333" y="527.667"/>
      <point x="352.333" y="568.827" type="curve" smooth="yes"/>
      <point x="352.333" y="613.333"/>
      <point x="337.667" y="690.667"/>
      <point x="270.574" y="690.667" type="curve" smooth="yes"/>
      <point x="182.333" y="690.667"/>
      <point x="178.333" y="556.333"/>
      <point x="178.333" y="495.667" type="curve" smooth="yes"/>
      <point x="178.333" y="-212" type="line"/>
    </contour>
  </outline>
</glyph>
<glyph name="zeta" format="2">
  <advance width="446"/>
  <unicode hex="03B6"/>
  <outline>
    <contour>
      <point x="38.3333" y="177" type="curve" smooth="yes"/>
      <point x="38.3333" y="321.333"/>
      <point x="100" y="449"/>
      <point x="175.333" y="528.333" type="curve"/>
      <point x="125" y="541.667"/>
      <point x="54.3333" y="574.333"/>
      <point x="54.3333" y="638.333" type="curve" smooth="yes"/>
      <point x="54.3333" y="687.667"/>
      <point x="102.667" y="718.333"/>
      <point x="174" y="719.333" type="curve"/>
      <point x="183.667" y="698.333" type="line"/>
      <point x="154.333" y="696"/>
      <point x="129" y="677.333"/>
      <point x="129" y="638.333" type="curve" smooth="yes"/>
      <point x="129" y="600"/>
      <point x="161" y="566"/>
      <point x="201.667" y="549.667" type="curve"/>
      <point x="235" y="576"/>
      <point x="288.333" y="634"/>
      <point x="342.333" y="634" type="curve" smooth="yes"/>
      <point x="375.667" y="634"/>
      <point x="412.333" y="624"/>
      <point x="412.333" y="588.667" type="curve" smooth="yes"/>
      <point x="412.333" y="544.667"/>
      <point x="365.333" y="513"/>
      <point x="298" y="513" type="curve" smooth="yes"/>
      <point x="267.253" y="513"/>
      <point x="253.612" y="513"/>
      <point x="226.333" y="518.333" type="curve"/>
      <point x="221.808" y="518.333"/>
      <point x="216.269" y="518.333"/>
      <point x="210" y="519.333" type="curve"/>
      <point x="153.333" y="460.667"/>
      <point x="83.3333" y="363.333"/>
      <point x="83.3333" y="208.667" type="curve" smooth="yes"/>
      <point x="83.3333" y="137.333"/>
      <point x="127.667" y="115.333"/>
      <point x="198.333" y="115.333" type="curve" smooth="yes"/>
      <point x="218.333" y="115.333"/>
      <point x="264.667" y="120.667"/>
      <point x="284.667" y="120.667" type="curve" smooth="yes"/>
      <point x="386" y="120.667"/>
      <point x="425.333" y="54"/>
      <point x="425.333" y="-27.3333" type="curve" smooth="yes"/>
      <point x="425.333" y="-114.667"/>
      <point x="362" y="-188.333"/>
      <point x="251.333" y="-188.333" type="curve" smooth="yes"/>
      <point x="184" y="-188.333"/>
      <point x="137.333" y="-156.667"/>
      <point x="137.333" y="-115.333" type="curve" smooth="yes"/>
      <point x="137.333" y="-90.3333"/>
      <point x="157.333" y="-73"/>
      <point x="177.667" y="-73" type="curve" smooth="yes"/>
      <point x="211.333" y="-73"/>
      <point x="223" y="-95.3333"/>
      <point x="235.667" y="-111.333" type="curve" smooth="yes"/>
      <point x="252.333" y="-132"/>
      <point x="269.667" y="-146.333"/>
      <point x="301.667" y="-146.333" type="curve" smooth="yes"/>
      <point x="352" y="-146.333"/>
      <point x="387.333" y="-110"/>
      <point x="387.333" y="-64" type="curve" smooth="yes"/>
      <point x="387.333" y="-14"/>
      <point x="356.667" y="0"/>
      <point x="294.667" y="0" type="curve" smooth="yes"/>
      <point x="279.333" y="0"/>
      <point x="232.333" y="-5.33333"/>
      <point x="212.333" y="-5.33333" type="curve" smooth="yes"/>
      <point x="97" y="-5.33333"/>
      <point x="38.3333" y="65"/>
    </contour>
  </outline>
</glyph>
<glyph name="eta" format="2">
  <advance width="581"/>
  <unicode hex="03B7"/>
  <anchor x="271.667" y="520" name="tonos_top"/>
  <outline>
    <contour>
      <point x="12.3333" y="330" type="line"/>
      <point x="12.3333" y="394.333"/>
      <point x="50" y="469.667"/>
      <point x="123.333" y="469.667" type="curve" smooth="yes"/>
      <point x="208" y="469.667"/>
      <point x="221.309" y="404.333"/>
      <point x="227.333" y="327" type="curve"/>
      <point x="228.998" y="327" type="line"/>
      <point x="247.972" y="403.333"/>
      <point x="303.567" y="469.667"/>
      <point x="387.077" y="469.667" type="curve" smooth="yes"/>
      <point x="468.92" y="469.667"/>
      <point x="511" y="413.667"/>
      <point x="511" y="336.333" type="curve" smooth="yes"/>
      <point x="511" y="-208" type="line"/>
      <point x="390.333" y="-208" type="line"/>
      <point x="390.439" y="331.397" type="line"/>
      <point x="390.439" y="365.389"/>
      <point x="384.315" y="412.333"/>
      <point x="332.442" y="412.333" type="curve" smooth="yes"/>
      <point x="259.975" y="412.333"/>
      <point x="234.166" y="288.667"/>
      <point x="234.166" y="208" type="curve" smooth="yes"/>
      <point x="234.166" y="0" type="line"/>
      <point x="113.333" y="0" type="line"/>
      <point x="113.66" y="370.003" type="line"/>
      <point x="113.66" y="389.081"/>
      <point x="111.619" y="414"/>
      <point x="86.3333" y="414" type="curve" smooth="yes"/>
      <point x="50" y="414"/>
      <point x="41.6667" y="351"/>
      <point x="39.6667" y="330" type="curve"/>
    </contour>
  </outline>
</glyph>
<glyph name="nu" format="2">
  <advance width="490"/>
  <unicode hex="03BD"/>
  <outline>
    <contour>
      <point x="11" y="323.667" type="line"/>
      <point x="11.6667" y="374.119"/>
      <point x="33" y="431.699"/>
      <point x="90.3333" y="433" type="curve"/>
      <point x="128.333" y="453.667"/>
      <point x="153.667" y="441.667"/>
      <point x="189" y="409.667" type="curve"/>
      <point x="216.074" y="378.88"/>
      <point x="255.737" y="280.264"/>
      <point x="271.333" y="238" type="curve"/>
      <point x="289.453" y="254.454"/>
      <point x="337.237" y="231.145"/>
      <point x="342" y="250.333" type="curve" smooth="yes"/>
      <point x="354.667" y="299"/>
      <point x="359.333" y="349"/>
      <point x="359.333" y="401.333" type="curve" smooth="yes"/>
      <point x="359.333" y="425.667"/>
      <point x="378.667" y="443"/>
      <point x="396" y="448" type="curve"/>
      <point x="418.667" y="459.667"/>
      <point x="437.333" y="459"/>
      <point x="450.667" y="435" type="curve"/>
      <point x="460" y="391"/>
      <point x="337.667" y="190"/>
      <point x="328.333" y="130.333" type="curve"/>
      <point x="327.198" y="115"/>
      <point x="255.235" y="15"/>
      <point x="243.333" y="-8.66667" type="curve"/>
      <point x="234.447" y="20"/>
      <point x="215.572" y="46.6667"/>
      <point x="203.333" y="74.6667" type="curve"/>
      <point x="100.333" y="354.667" type="line"/>
      <point x="95" y="368"/>
      <point x="85.6667" y="398.333"/>
      <point x="68.3333" y="398.333" type="curve" smooth="yes"/>
      <point x="41" y="398.333"/>
      <point x="39" y="342.333"/>
      <point x="38.3333" y="323.667" type="curve"/>
    </contour>
  </outline>
</glyph>
<glyph name="pi" format="2">
  <advance width="620"/>
  <unicode hex="03C0"/>
  <outline>
    <contour>
      <point x="14.6667" y="61.3333" type="curve" smooth="yes"/>
      <point x="14.6667" y="92.6667"/>
      <point x="36" y="115.667"/>
      <point x="68.6667" y="115.667" type="curve" smooth="yes"/>
      <point x="96.3333" y="115.667"/>
      <point x="115" y="100.667"/>
      <point x="116.667" y="80" type="curve"/>
      <point x="120.333" y="72.3333"/>
      <point x="120" y="64"/>
      <point x="124.667" y="61.3333" type="curve"/>
      <point x="142.333" y="55.3333"/>
      <point x="149" y="97.6667"/>
      <point x="155" y="150.333" type="curve"/>
      <point x="184.333" y="150.896"/>
      <point x="197.667" y="217.677"/>
      <point x="197.667" y="376.667" type="curve"/>
      <point x="153.667" y="376.667" type="line" smooth="yes"/>
      <point x="112" y="376.667"/>
      <point x="94.3333" y="350.667"/>
      <point x="88" y="316.667" type="curve"/>
      <point x="61.3333" y="316.667" type="line"/>
      <point x="72.3333" y="440.667"/>
      <point x="113" y="466.333"/>
      <point x="225.333" y="466.333" type="curve" smooth="yes"/>
      <point x="322" y="466.333"/>
      <point x="418.667" y="457.333"/>
      <point x="515.333" y="457.333" type="curve" smooth="yes"/>
      <point x="536.333" y="457.333"/>
      <point x="558" y="465"/>
      <point x="560" y="488.667" type="curve"/>
      <point x="585" y="488.667" type="line"/>
      <point x="580.333" y="397"/>
      <point x="546.333" y="376.667"/>
      <point x="477" y="376.667" type="curve"/>
      <point x="475.567" y="316.667"/>
      <point x="467.1" y="241.333"/>
      <point x="465.667" y="181.333" type="curve"/>
      <point x="465.667" y="153.769"/>
      <point x="471" y="76.3677"/>
      <point x="486.333" y="58.3333" type="curve"/>
      <point x="515" y="48.6667"/>
      <point x="519" y="92"/>
      <point x="533" y="112" type="curve"/>
      <point x="552.629" y="112"/>
      <point x="571.096" y="140.667"/>
      <point x="573.667" y="152" type="curve"/>
      <point x="571.172" y="90"/>
      <point x="565.207" y="40"/>
      <point x="493" y="40" type="curve"/>
      <point x="437" y="16"/>
      <point x="412" y="30.6667"/>
      <point x="382" y="80.6667" type="curve"/>
      <point x="358.667" y="131.333"/>
      <point x="352.333" y="213.667"/>
      <point x="352.333" y="285.667" type="curve"/>
      <point x="275.667" y="376.667" type="line"/>
      <point x="233" y="335.333" type="line"/>
      <point x="232.926" y="246.302"/>
      <point x="225.365" y="160.191"/>
      <point x="202.667" y="130.333" type="curve"/>
      <point x="189" y="51.6667"/>
      <point x="171.333" y="-7.66667"/>
      <point x="101.333" y="-7.66667" type="curve" smooth="yes"/>
      <point x="51.3333" y="-7.66667"/>
      <point x="14.6667" y="20"/>
    </contour>
  </outline>
</glyph>
<glyph name="upsilon" format="2">
  <advance width="534"/>
  <unicode hex="03C5"/>
  <anchor x="273.333" y="520" name="tonos_top"/>
  <outline>
    <contour>
      <point x="11.6667" y="339.133" type="line"/>
      <point x="11.6667" y="417.169"/>
      <point x="45.1403" y="469.667"/>
      <point x="119.298" y="469.667" type="curve" smooth="yes"/>
      <point x="200.543" y="469.667"/>
      <point x="237.963" y="408.848"/>
      <point x="237.963" y="316.466" type="curve" smooth="yes"/>
      <point x="237.963" y="290.423"/>
      <point x="235.947" y="263.687"/>
      <point x="234.037" y="238.267" type="curve" smooth="yes"/>
      <point x="232.312" y="215.301"/>
      <point x="230.667" y="193.33"/>
      <point x="230.667" y="174.719" type="curve" smooth="yes"/>
      <point x="230.667" y="87.2872"/>
      <point x="252.801" y="38.6667"/>
      <point x="313.003" y="38.6667" type="curve" smooth="yes"/>
      <point x="383.415" y="38.6667"/>
      <point x="427.333" y="106.447"/>
      <point x="427.333" y="181.169" type="curve" smooth="yes"/>
      <point x="427.333" y="231.931"/>
      <point x="407.078" y="274.368"/>
      <point x="388.636" y="312.976" type="curve" smooth="yes"/>
      <point x="373.195" y="345.383"/>
      <point x="359" y="377.152"/>
      <point x="359" y="406.068" type="curve" smooth="yes"/>
      <point x="359" y="441.639"/>
      <point x="381.21" y="469.667"/>
      <point x="414.207" y="469.667" type="curve" smooth="yes"/>
      <point x="465.143" y="469.667"/>
      <point x="481.351" y="401.11"/>
      <point x="481.334" y="313.667" type="curve" smooth="yes"/>
      <point x="481.333" y="307.858" type="line" smooth="yes"/>
      <point x="481.301" y="130.521"/>
      <point x="416.682" y="-12"/>
      <point x="268.261" y="-12" type="curve" smooth="yes"/>
      <point x="165.242" y="-12"/>
      <point x="109.739" y="51.8815"/>
      <point x="110" y="160.783" type="curve" smooth="yes"/>
      <point x="110.081" y="202.397"/>
      <point x="111.703" y="231.083"/>
      <point x="113.581" y="259.678" type="curve" smooth="yes"/>
      <point x="115.443" y="288.036"/>
      <point x="117.333" y="316.306"/>
      <point x="117.333" y="356.783" type="curve" smooth="yes"/>
      <point x="117.333" y="388.454"/>
      <point x="104.506" y="419"/>
      <point x="80.3471" y="419" type="curve" smooth="yes"/>
      <point x="52.443" y="419"/>
      <point x="39" y="376.913"/>
      <point x="39" y="339.133" type="curve"/>
    </contour>
  </outline>
</glyph>
<glyph name="phi" format="2">
  <advance width="653"/>
  <unicode hex="03C6"/>
  <outline>
    <contour>
      <point x="38" y="253.333" type="curve" smooth="yes"/>
      <point x="38" y="359"/>
      <point x="87" y="470"/>
      <point x="197.667" y="470" type="curve" smooth="yes"/>
      <point x="244.667" y="470"/>
      <point x="283" y="455.667"/>
      <point x="304.667" y="413.667" type="curve"/>
      <point x="284.333" y="391.667" type="line"/>
      <point x="274" y="408"/>
      <point x="258.333" y="430.333"/>
      <point x="234" y="430.333" type="curve" smooth="yes"/>
      <point x="167.333" y="430.333"/>
      <point x="166.667" y="311.333"/>
      <point x="166.667" y="264.333" type="curve" smooth="yes"/>
      <point x="166.667" y="259.844"/>
      <point x="166.654" y="253.631"/>
      <point x="166.654" y="248.747" type="curve" smooth="yes"/>
      <point x="166.654" y="149.616"/>
      <point x="175.969" y="28"/>
      <point x="290.333" y="25" type="curve"/>
      <point x="290.333" y="208.333" type="line" smooth="yes"/>
      <point x="290.333" y="321"/>
      <point x="319.667" y="469.667"/>
      <point x="472" y="469.667" type="curve" smooth="yes"/>
      <point x="586.333" y="469.667"/>
      <point x="615.333" y="357"/>
      <point x="615.333" y="267.333" type="curve" smooth="yes"/>
      <point x="615.333" y="135"/>
      <point x="548.667" y="-5"/>
      <point x="411" y="-7.66667" type="curve"/>
      <point x="411" y="-207.667" type="line"/>
      <point x="290.333" y="-207.667" type="line"/>
      <point x="290.333" y="-7.66667" type="line"/>
      <point x="132.667" y="-5"/>
      <point x="38" y="100.333"/>
    </contour>
    <contour>
      <point x="411" y="25.3333" type="line"/>
      <point x="527" y="27.6667"/>
      <point x="579.667" y="156"/>
      <point x="579.667" y="266" type="curve" smooth="yes"/>
      <point x="579.667" y="323.333"/>
      <point x="560" y="434.333"/>
      <point x="485.333" y="434.333" type="curve" smooth="yes"/>
      <point x="422.333" y="434.333"/>
      <point x="411" y="363.333"/>
      <point x="411" y="315.667" type="curve" smooth="yes"/>
    </contour>
  </outline>
</glyph>
